<svg width="651" height="560" viewBox="0 0 651 560" fill="none" xmlns="http://www.w3.org/2000/svg">
<g clip-path="url(#clip0_11187_7550)">
<g clip-path="url(#clip1_11187_7550)">
<path d="M277.827 386.527C271.256 382.764 260.638 382.744 254.106 386.488C248.607 389.642 247.778 394.451 251.571 398.137C252.263 397.469 253.092 396.831 254.106 396.25C260.638 392.506 271.256 392.525 277.827 396.289C278.861 396.879 279.719 397.537 280.431 398.233C284.243 394.547 283.385 389.71 277.827 386.527Z" fill="url(#paint0_linear_11187_7550)"/>
<path d="M314.301 409.494L299.754 407.473C298.506 408.45 297.17 409.388 295.63 410.268C294.099 411.149 292.442 411.913 290.745 412.629L294.197 420.785C294.684 420.543 295.172 420.301 295.63 420.04C297.161 419.159 298.506 418.211 299.754 417.244L314.301 419.266C316.865 416.741 318.757 414.061 320.005 411.304V401.542C318.757 404.299 316.855 406.989 314.301 409.504V409.494Z" fill="#CED3F4"/>
<path d="M280.372 424.229L272.523 416.925C268.292 417.292 263.982 417.283 259.741 416.905L251.97 424.181C247.144 423.445 242.454 422.342 238.038 420.862V430.624C242.454 432.104 247.144 433.207 251.97 433.942L259.741 426.667C263.982 427.044 268.282 427.054 272.523 426.686L280.372 433.991C285.188 433.275 289.868 432.191 294.275 430.721V420.959C289.878 422.429 285.198 423.513 280.372 424.229Z" fill="#CED3F4"/>
<path d="M241.479 412.542C239.772 411.826 238.115 411.052 236.565 410.162C235.024 409.282 233.669 408.324 232.411 407.347L217.884 409.32C215.3 406.786 213.37 404.106 212.092 401.339V411.101C213.37 413.867 215.3 416.557 217.884 419.082L232.411 417.108C233.669 418.086 235.014 419.034 236.565 419.924C237.062 420.204 237.579 420.466 238.095 420.727L241.479 412.542Z" fill="#CED3F4"/>
<path d="M237.734 365.63V375.392L241.263 383.731V373.96L237.734 365.63Z" fill="#AFB6E5"/>
<path d="M293.972 365.727V375.498L290.53 383.818V374.057L293.972 365.727Z" fill="#AFB6E5"/>
<path d="M319.916 385.26V395.021L307.212 399.472V389.71L319.916 385.26Z" fill="#AFB6E5"/>
<path d="M314.301 409.495V419.256L299.755 417.234V407.473L314.301 409.495Z" fill="#AFB6E5"/>
<path d="M280.37 424.229V434L272.522 426.696V416.925L280.37 424.229Z" fill="#AFB6E5"/>
<path d="M259.74 426.667V416.905L251.979 424.181V433.942L259.74 426.667Z" fill="#AFB6E5"/>
<path d="M232.412 407.347V417.109L217.884 419.082V409.321L232.412 407.347Z" fill="#AFB6E5"/>
<path d="M212.004 385.066V394.828L224.757 399.327V389.565L212.004 385.066Z" fill="#AFB6E5"/>
<path d="M295.629 410.268C297.16 409.388 298.506 408.44 299.754 407.473L314.3 409.495C316.865 406.969 318.756 404.29 320.004 401.532L307.251 397.034C307.895 394.605 307.875 392.138 307.212 389.71L319.916 385.26C318.639 382.493 316.709 379.803 314.125 377.278L299.598 379.252C298.34 378.275 296.994 377.327 295.444 376.436C293.894 375.546 292.236 374.772 290.53 374.057L293.972 365.736C289.555 364.256 284.865 363.153 280.039 362.418L272.269 369.693C268.027 369.316 263.718 369.306 259.486 369.674L251.638 362.37C246.821 363.086 242.141 364.169 237.734 365.64L241.264 373.979C239.567 374.695 237.91 375.459 236.379 376.34C234.848 377.22 233.503 378.168 232.255 379.136L217.708 377.114C215.144 379.639 213.252 382.319 212.004 385.076L224.757 389.575C224.114 392.003 224.133 394.47 224.796 396.898L212.092 401.329C213.369 404.096 215.3 406.786 217.883 409.311L232.411 407.337C233.669 408.314 235.014 409.262 236.564 410.152C238.105 411.033 239.772 411.816 241.478 412.532L238.037 420.852C242.453 422.333 247.143 423.436 251.969 424.171L259.74 416.896C263.981 417.273 268.291 417.283 272.522 416.915L280.371 424.219C285.187 423.503 289.867 422.42 294.274 420.949L290.745 412.61C292.441 411.894 294.099 411.13 295.629 410.249V410.268ZM254.182 400.071C247.611 396.308 247.582 390.223 254.104 386.479C260.627 382.735 271.255 382.754 277.826 386.517C284.397 390.281 284.427 396.366 277.904 400.11C271.372 403.854 260.754 403.835 254.182 400.071Z" fill="url(#paint1_linear_11187_7550)"/>
<g style="mix-blend-mode:color-dodge">
<path d="M241.264 373.225L238.105 365.756C237.988 365.795 237.861 365.824 237.734 365.872L240.913 373.389C241.03 373.341 241.147 373.283 241.264 373.234V373.225Z" fill="url(#paint2_radial_11187_7550)"/>
<path d="M307.691 393.154C307.652 394.199 307.525 395.244 307.252 396.289L307.427 396.357C307.632 395.292 307.73 394.228 307.691 393.164V393.154Z" fill="url(#paint3_radial_11187_7550)"/>
<path d="M277.827 385.782C271.255 382.019 260.638 382 254.105 385.744C250.634 387.727 249.045 390.378 249.269 392.99C249.474 390.707 251.073 388.462 254.105 386.721C260.638 382.977 271.255 382.996 277.827 386.76C280.908 388.53 282.536 390.804 282.741 393.106C282.975 390.475 281.346 387.795 277.827 385.782Z" fill="url(#paint4_radial_11187_7550)"/>
<path d="M290.872 373.466L293.973 365.968C293.856 365.93 293.729 365.901 293.612 365.862L290.531 373.321C290.648 373.37 290.755 373.428 290.872 373.476V373.466Z" fill="url(#paint5_radial_11187_7550)"/>
<path d="M307.398 389.874L319.917 385.492C319.79 385.211 319.624 384.94 319.488 384.669L307.213 388.965C307.3 389.265 307.339 389.574 307.398 389.874Z" fill="url(#paint6_radial_11187_7550)"/>
<path d="M224.758 388.82L212.434 384.476C212.297 384.757 212.132 385.028 212.005 385.298L224.582 389.729C224.641 389.429 224.68 389.12 224.758 388.82Z" fill="url(#paint7_radial_11187_7550)"/>
<path d="M280.371 423.494L272.523 416.19C268.291 416.557 263.982 416.547 259.74 416.17L251.97 423.445C247.27 422.73 242.707 421.665 238.388 420.233L238.027 421.095C242.444 422.575 247.134 423.678 251.96 424.413L259.731 417.138C263.972 417.515 268.272 417.525 272.513 417.157L280.361 424.461C285.178 423.745 289.858 422.662 294.265 421.191L293.904 420.33C289.604 421.733 285.061 422.788 280.371 423.484V423.494Z" fill="url(#paint8_radial_11187_7550)"/>
<path d="M224.319 392.932C224.28 394.025 224.387 395.118 224.611 396.212L224.797 396.144C224.504 395.08 224.358 394.006 224.319 392.932Z" fill="url(#paint9_radial_11187_7550)"/>
<path d="M314.301 408.75L299.754 406.728C298.506 407.705 297.17 408.643 295.63 409.524C294.099 410.404 292.442 411.168 290.745 411.884L291.096 412.707C292.676 412.039 294.206 411.323 295.63 410.501C297.161 409.62 298.506 408.672 299.754 407.705L314.301 409.727C316.865 407.202 318.757 404.522 320.005 401.765L319.576 401.61C318.337 404.077 316.602 406.476 314.291 408.75H314.301Z" fill="url(#paint10_radial_11187_7550)"/>
<path d="M241.479 411.797C239.772 411.081 238.115 410.307 236.565 409.417C235.024 408.537 233.669 407.579 232.411 406.602L217.884 408.576C215.553 406.302 213.789 403.893 212.521 401.417L212.092 401.571C213.369 404.338 215.3 407.028 217.884 409.553L232.411 407.579C233.669 408.556 235.014 409.504 236.565 410.395C238.008 411.217 239.548 411.942 241.137 412.62L241.479 411.797Z" fill="url(#paint11_radial_11187_7550)"/>
</g>
<g style="mix-blend-mode:color-dodge">
<path d="M290.053 378.933C276.686 371.28 255.08 371.232 241.8 378.846C228.521 386.459 228.589 398.833 241.946 406.486C255.314 414.148 276.919 414.177 290.199 406.573C303.478 398.959 303.41 386.585 290.053 378.933ZM249.161 402.355C239.802 396.995 239.763 388.327 249.054 383.006C258.356 377.675 273.478 377.704 282.828 383.064C292.188 388.423 292.237 397.092 282.935 402.413C273.634 407.744 258.512 407.715 249.161 402.355Z" fill="white"/>
</g>
<path d="M290.053 379.513C276.686 371.861 255.08 371.822 241.8 379.426C228.521 387.04 228.589 399.414 241.946 407.066C255.314 414.729 276.919 414.758 290.199 407.154C303.478 399.54 303.41 387.166 290.053 379.513ZM249.161 402.935C239.802 397.576 239.763 388.907 249.054 383.586C258.356 378.256 273.478 378.285 282.828 383.644C292.188 389.004 292.237 397.672 282.935 402.993C273.634 408.324 258.512 408.295 249.161 402.935Z" fill="#1062FE"/>
<g style="mix-blend-mode:multiply">
<path d="M241.8 380.606C255.079 372.992 276.685 373.031 290.052 380.693C296.506 384.389 299.851 389.188 300.094 394.025C300.377 388.801 297.023 383.518 290.052 379.523C276.685 371.87 255.079 371.831 241.8 379.436C234.936 383.373 231.64 388.578 231.903 393.744C232.157 388.965 235.452 384.244 241.8 380.606Z" fill="url(#paint12_linear_11187_7550)"/>
<path d="M249.169 404.116C258.529 409.475 273.651 409.504 282.943 404.174C287.838 401.368 290.109 397.643 289.836 393.967C289.593 397.256 287.311 400.497 282.943 403.003C273.642 408.334 258.52 408.305 249.169 402.945C244.733 400.401 242.422 397.121 242.169 393.802C241.896 397.508 244.216 401.271 249.169 404.116Z" fill="#466DF5"/>
</g>
<mask id="mask0_11187_7550" style="mask-type:luminance" maskUnits="userSpaceOnUse" x="231" y="373" width="70" height="40">
<path d="M290.053 379.513C276.686 371.861 255.08 371.822 241.8 379.426C228.521 387.04 228.589 399.414 241.946 407.066C255.314 414.729 276.919 414.758 290.199 407.154C303.478 399.54 303.41 387.166 290.053 379.513ZM249.161 402.935C239.802 397.576 239.763 388.907 249.054 383.586C258.356 378.256 273.478 378.285 282.828 383.644C292.188 389.004 292.237 397.672 282.935 402.993C273.634 408.324 258.512 408.295 249.161 402.935Z" fill="white"/>
</mask>
<g mask="url(#mask0_11187_7550)">
<path d="M289.867 392.061H242.044V413.297H289.867V392.061Z" fill="#0D4ECB"/>
</g>
</g>
<g clip-path="url(#clip2_11187_7550)">
<path d="M171.428 192.864C171.417 192.963 171.412 193.062 171.395 193.161C171.379 193.244 171.356 193.321 171.334 193.404C171.312 193.498 171.285 193.591 171.252 193.685C171.224 193.762 171.186 193.839 171.152 193.917C171.108 194.016 171.064 194.115 171.015 194.214C170.976 194.286 170.932 194.352 170.888 194.424C170.822 194.534 170.744 194.644 170.667 194.755C170.59 194.859 170.507 194.964 170.419 195.069C170.397 195.091 170.381 195.119 170.358 195.141C170.237 195.273 170.099 195.405 169.961 195.532C169.868 195.615 169.769 195.692 169.669 195.775C169.581 195.846 169.498 195.918 169.405 195.984C169.3 196.061 169.179 196.139 169.063 196.21C168.941 196.287 168.831 196.365 168.704 196.442L94.5672 239.525C94.286 239.691 93.9827 239.84 93.6739 239.977C93.5857 240.016 93.492 240.055 93.4038 240.093C93.1612 240.193 92.9131 240.286 92.6594 240.374C92.5657 240.408 92.4775 240.441 92.3837 240.468C92.2238 240.518 92.0584 240.562 91.8985 240.606C91.7717 240.639 91.6504 240.678 91.5236 240.705C91.3527 240.749 91.1762 240.782 90.9998 240.816C90.8785 240.838 90.7627 240.865 90.6414 240.887C90.2885 240.948 89.9246 240.997 89.5662 241.036C89.456 241.047 89.3402 241.053 89.2299 241.064C89.0149 241.08 88.8054 241.097 88.5903 241.108C88.4525 241.113 88.3146 241.119 88.1823 241.119C88.0114 241.119 87.8349 241.119 87.664 241.119C87.5207 241.119 87.3773 241.113 87.2284 241.108C87.0686 241.102 86.9087 241.091 86.7488 241.08C86.5999 241.069 86.4565 241.058 86.3132 241.042C86.1533 241.025 85.9989 241.009 85.839 240.986C85.6956 240.97 85.5523 240.948 85.4144 240.926C85.2435 240.898 85.0781 240.871 84.9127 240.838C84.7804 240.81 84.648 240.788 84.5212 240.76C84.3227 240.716 84.1297 240.667 83.9312 240.617C83.821 240.589 83.7107 240.562 83.6059 240.529C83.2586 240.43 82.9167 240.314 82.5914 240.187C82.426 240.121 82.2716 240.055 82.1117 239.983C82.029 239.944 81.9463 239.917 81.8691 239.878C81.632 239.762 81.3949 239.647 81.1744 239.514L6.53546 196.442C4.66632 195.361 3.73451 193.944 3.74002 192.533L3.48639 282.421C3.48639 283.833 4.41269 285.25 6.28183 286.331L80.9042 329.414C81.1303 329.541 81.3619 329.662 81.5989 329.778C81.6761 329.817 81.7644 329.85 81.8416 329.883C81.9849 329.943 82.1228 330.009 82.2661 330.07C82.2827 330.076 82.2992 330.081 82.3157 330.087C82.6466 330.213 82.9829 330.329 83.3303 330.429C83.3578 330.434 83.3854 330.451 83.413 330.456C83.4902 330.478 83.5784 330.495 83.6556 330.517C83.8485 330.566 84.047 330.616 84.2455 330.66C84.3007 330.671 84.3503 330.688 84.3999 330.699C84.4771 330.715 84.5598 330.726 84.637 330.737C84.8024 330.77 84.9678 330.798 85.1387 330.826C85.2049 330.837 85.2711 330.853 85.3372 330.859C85.4089 330.87 85.4861 330.875 85.5633 330.886C85.7177 330.908 85.8776 330.925 86.0375 330.941C86.1147 330.947 86.1864 330.958 86.2635 330.969C86.3352 330.974 86.4069 330.974 86.4786 330.98C86.6385 330.991 86.7984 331.002 86.9583 331.007C87.041 331.007 87.1182 331.018 87.2009 331.018C87.267 331.018 87.3277 331.018 87.3938 331.018C87.5648 331.018 87.7412 331.018 87.9121 331.018C88.0004 331.018 88.0831 331.018 88.1713 331.018C88.2209 331.018 88.2705 331.013 88.3257 331.007C88.5407 330.996 88.7557 330.98 88.9653 330.963C89.0535 330.958 89.1362 330.952 89.2244 330.947C89.252 330.947 89.274 330.941 89.3016 330.936C89.6655 330.897 90.0239 330.848 90.3823 330.787C90.3988 330.787 90.4154 330.787 90.4374 330.781C90.5422 330.765 90.6414 330.737 90.7407 330.715C90.9171 330.682 91.0935 330.644 91.2645 330.605C91.3913 330.572 91.5126 330.539 91.6394 330.506C91.8048 330.462 91.9647 330.417 92.1246 330.368C92.1577 330.357 92.1963 330.351 92.2294 330.34C92.2845 330.324 92.3396 330.296 92.3948 330.274C92.6484 330.186 92.8965 330.092 93.1391 329.993C93.2273 329.954 93.3211 329.916 93.4093 329.877C93.7181 329.739 94.0213 329.59 94.3025 329.425L168.44 286.342C168.478 286.32 168.517 286.297 168.555 286.275C168.644 286.226 168.715 286.165 168.798 286.11C168.914 286.033 169.03 285.961 169.14 285.884C169.234 285.818 169.316 285.746 169.405 285.674C169.504 285.597 169.603 285.515 169.697 285.432C169.713 285.415 169.735 285.399 169.757 285.382C169.879 285.272 169.989 285.156 170.099 285.04C170.121 285.018 170.138 284.991 170.16 284.969C170.221 284.897 170.287 284.825 170.347 284.754C170.375 284.721 170.386 284.687 170.414 284.654C170.496 284.544 170.568 284.434 170.634 284.324C170.662 284.279 170.7 284.23 170.728 284.186C170.739 284.164 170.75 284.136 170.761 284.114C170.816 284.015 170.855 283.916 170.899 283.816C170.926 283.761 170.959 283.701 170.982 283.645C170.987 283.623 170.993 283.607 170.998 283.585C171.031 283.491 171.053 283.397 171.081 283.304C171.097 283.237 171.125 283.177 171.136 283.111C171.136 283.094 171.136 283.077 171.141 283.061C171.158 282.962 171.169 282.862 171.174 282.763C171.18 282.697 171.197 282.631 171.197 282.57C171.197 282.543 171.197 282.515 171.197 282.488L171.45 192.599C171.45 192.693 171.434 192.786 171.428 192.875V192.864Z" fill="#EBEDF0"/>
<path d="M168.649 188.673C172.365 190.818 172.382 194.292 168.693 196.436L94.5562 239.52C90.8675 241.665 84.8686 241.665 81.1524 239.52L6.53548 196.442C2.81925 194.297 2.80271 190.818 6.49137 188.679L80.6286 145.595C84.3172 143.45 90.3161 143.45 94.0324 145.595L168.655 188.679L168.649 188.673Z" fill="#F0F2FD"/>
<path d="M142.481 190.086L142.482 190.085C143.696 190.788 144.249 191.672 144.253 192.505C144.258 193.337 143.714 194.222 142.506 194.925L92.0535 224.269L92.0534 224.269C90.8468 224.971 89.246 225.33 87.6288 225.33C86.0116 225.33 84.4057 224.971 83.1893 224.269L32.41 194.928L32.41 194.928C31.1922 194.225 30.6381 193.338 30.6336 192.504C30.6291 191.671 31.1728 190.786 32.3804 190.085L32.3806 190.085L82.8335 160.741L82.8336 160.741C84.0402 160.039 85.641 159.68 87.2582 159.68C88.8754 159.68 90.4812 160.039 91.6977 160.741L142.481 190.086Z" stroke="black" stroke-width="0.513699"/>
<path d="M129.281 190.477C131.199 191.597 131.208 193.41 129.304 194.53L91.0379 217.028C89.134 218.148 86.0376 218.148 84.1194 217.028L45.6056 194.533C43.6875 193.413 43.6789 191.597 45.5829 190.48L83.8491 167.982C85.753 166.862 88.8494 166.862 90.7675 167.982L129.284 190.48L129.281 190.477Z" fill="#1062FE"/>
<path d="M127.964 5.5002L129.623 193.608L92.9572 215.662C89.853 217.51 85.9934 217.532 82.8726 215.723L44.1609 193.608V-15.0656L72.1044 -23.6614L127.969 5.5002H127.964Z" fill="url(#paint13_linear_11187_7550)" fill-opacity="0.5"/>
<rect width="70.2056" height="4.43407" rx="1.5411" transform="matrix(-0.00684917 -0.999977 -0.869435 -0.494055 59.4843 307.151)" fill="#CFE0FF"/>
<rect width="70.2056" height="2.58654" rx="1.29327" transform="matrix(-0.00684916 -0.999977 -0.869435 -0.494055 59.4843 307.151)" fill="#1062FE"/>
<rect width="70.2056" height="4.43407" rx="1.5411" transform="matrix(-0.00684917 -0.999977 -0.869435 -0.494055 47.9188 300.579)" fill="#CFE0FF"/>
<rect width="70.2056" height="2.58654" rx="1.29327" transform="matrix(-0.00684916 -0.999977 -0.869435 -0.494055 47.9188 300.579)" fill="#1062FE"/>
<rect width="70.2056" height="4.43407" rx="1.5411" transform="matrix(-0.00684917 -0.999977 -0.869435 -0.494055 36.3535 294.007)" fill="#CFE0FF"/>
<rect width="70.2056" height="2.58654" rx="1.29327" transform="matrix(-0.00684916 -0.999977 -0.869435 -0.494055 36.3535 294.007)" fill="#1062FE"/>
<rect width="70.2056" height="4.43407" rx="1.5411" transform="matrix(-0.00684917 -0.999977 -0.869435 -0.494055 24.7881 287.435)" fill="#CFE0FF"/>
<rect width="70.2056" height="2.58654" rx="1.29327" transform="matrix(-0.00684916 -0.999977 -0.869435 -0.494055 24.7881 287.435)" fill="#1062FE"/>
</g>
<path d="M605.406 269.136C605.406 272.774 602.39 274.244 598.672 272.45L372.834 161.469C369.146 159.65 366.101 155.19 366.101 151.552V6.58434C366.101 2.94644 369.116 1.47633 372.834 3.27036L598.672 114.251C602.361 116.07 605.406 120.53 605.406 124.168V269.136Z" fill="#4E5256"/>
<path d="M603.766 111.759L377.929 0.778455C376.055 -0.143476 374.357 -0.218211 373.127 0.404714L368.297 2.79673C369.497 2.29839 371.078 2.42298 372.835 3.27016L598.672 114.251C602.361 116.07 605.406 120.53 605.406 124.168V269.135C605.406 270.929 604.645 272.225 603.444 272.823L608.275 270.431C609.622 269.882 610.5 268.562 610.5 266.643V121.676C610.5 118.038 607.455 113.578 603.766 111.759Z" fill="#393E41"/>
<path d="M372.864 9.89844V152.599L598.702 263.554V120.854L372.864 9.89844Z" fill="#EAEEF3"/>
<path d="M445.557 350.215C441.868 352.034 435.808 352.034 432.119 350.215L206.281 239.234C202.592 237.415 202.592 234.45 206.281 232.631L360.216 156.983C363.905 155.164 369.965 155.164 373.654 156.983L599.492 267.964C603.18 269.783 603.18 272.748 599.492 274.567L445.557 350.215Z" fill="#EBEDF0" stroke="#535353" stroke-width="0.318709" stroke-miterlimit="10"/>
<g filter="url(#filter0_d_11187_7550)">
<path d="M373.888 172.731L362.851 167.299L368.355 164.583L379.421 170.015L373.888 172.731Z" fill="white"/>
</g>
<g filter="url(#filter1_d_11187_7550)">
<path d="M392.479 181.875L381.442 176.443L386.975 173.727L398.012 179.159L392.479 181.875Z" fill="white"/>
</g>
<g filter="url(#filter2_d_11187_7550)">
<path d="M411.098 190.995L400.061 185.588L405.565 182.872L416.602 188.304L411.098 190.995Z" fill="white"/>
</g>
<g filter="url(#filter3_d_11187_7550)">
<path d="M429.688 200.139L418.651 194.732L424.184 192.016L435.222 197.423L429.688 200.139Z" fill="white"/>
</g>
<g filter="url(#filter4_d_11187_7550)">
<path d="M448.279 209.284L437.242 203.852L442.775 201.136L453.812 206.568L448.279 209.284Z" fill="white"/>
</g>
<g filter="url(#filter5_d_11187_7550)">
<path d="M466.899 218.429L455.862 212.997L461.366 210.281L472.432 215.713L466.899 218.429Z" fill="white"/>
</g>
<g filter="url(#filter6_d_11187_7550)">
<path d="M485.49 227.573L474.453 222.141L479.986 219.425L491.023 224.857L485.49 227.573Z" fill="white"/>
</g>
<g filter="url(#filter7_d_11187_7550)">
<path d="M504.109 236.718L493.043 231.286L498.576 228.57L509.613 234.002L504.109 236.718Z" fill="white"/>
</g>
<g filter="url(#filter8_d_11187_7550)">
<path d="M522.7 245.838L511.663 240.431L517.167 237.715L528.233 243.147L522.7 245.838Z" fill="white"/>
</g>
<g filter="url(#filter9_d_11187_7550)">
<path d="M541.29 254.982L530.253 249.55L535.787 246.859L546.824 252.266L541.29 254.982Z" fill="white"/>
</g>
<g filter="url(#filter10_d_11187_7550)">
<path d="M559.91 264.126L548.844 258.694L554.377 255.978L565.414 261.41L559.91 264.126Z" fill="white"/>
</g>
<g filter="url(#filter11_d_11187_7550)">
<path d="M578.5 273.271L567.463 267.839L572.967 265.124L584.033 270.555L578.5 273.271Z" fill="white"/>
</g>
<g filter="url(#filter12_d_11187_7550)">
<path d="M364.11 186.186L344.231 176.444L355.298 171.012L375.147 180.779L364.11 186.186Z" fill="white"/>
</g>
<g filter="url(#filter13_d_11187_7550)">
<path d="M353.834 198.669L326.402 185.189L337.469 179.782L364.871 193.237L353.834 198.669Z" fill="white"/>
</g>
<g filter="url(#filter14_d_11187_7550)">
<path d="M342.797 211.527L307.812 194.334L318.849 188.902L353.834 206.095L342.797 211.527Z" fill="white"/>
</g>
<g filter="url(#filter15_d_11187_7550)">
<path d="M305.147 215.165L285.298 205.397L300.258 198.047L320.108 207.814L305.147 215.165Z" fill="white"/>
</g>
<g filter="url(#filter16_d_11187_7550)">
<path d="M332.579 228.619L312.73 218.877L327.661 211.526L347.54 221.269L332.579 228.619Z" fill="white"/>
</g>
<g filter="url(#filter17_d_11187_7550)">
<path d="M359.982 242.101L340.133 232.333L355.093 224.983L374.942 234.75L359.982 242.101Z" fill="white"/>
</g>
<g filter="url(#filter18_d_11187_7550)">
<path d="M454.515 288.545L434.637 278.778L449.597 271.427L469.446 281.194L454.515 288.545Z" fill="white"/>
</g>
<g filter="url(#filter19_d_11187_7550)">
<path d="M500.948 311.369L462.01 292.233L476.97 284.883L515.908 304.019L500.948 311.369Z" fill="white"/>
</g>
<g filter="url(#filter20_d_11187_7550)">
<path d="M427.142 275.09L367.535 245.812L382.496 238.462L442.102 267.739L427.142 275.09Z" fill="white"/>
</g>
<g filter="url(#filter21_d_11187_7550)">
<path d="M387.912 197.898L371.663 189.899L382.7 184.492L398.949 192.466L387.912 197.898Z" fill="white"/>
</g>
<g filter="url(#filter22_d_11187_7550)">
<path d="M377.635 210.356L361.387 202.383L372.424 196.951L388.672 204.949L377.635 210.356Z" fill="white"/>
</g>
<g filter="url(#filter23_d_11187_7550)">
<path d="M367.096 222.964L350.848 214.99L361.885 209.558L378.133 217.557L367.096 222.964Z" fill="white"/>
</g>
<g filter="url(#filter24_d_11187_7550)">
<path d="M390.898 234.675L374.649 226.676L385.687 221.269L401.964 229.243L390.898 234.675Z" fill="white"/>
</g>
<g filter="url(#filter25_d_11187_7550)">
<path d="M414.699 246.361L398.451 238.387L409.518 232.955L425.766 240.954L414.699 246.361Z" fill="white"/>
</g>
<g filter="url(#filter26_d_11187_7550)">
<path d="M438.53 258.072L422.282 250.074L433.319 244.642L449.568 252.64L438.53 258.072Z" fill="white"/>
</g>
<g filter="url(#filter27_d_11187_7550)">
<path d="M462.332 269.758L446.084 261.785L457.121 256.353L473.369 264.351L462.332 269.758Z" fill="white"/>
</g>
<g filter="url(#filter28_d_11187_7550)">
<path d="M486.134 281.469L469.885 273.47L480.923 268.039L497.171 276.037L486.134 281.469Z" fill="white"/>
</g>
<g filter="url(#filter29_d_11187_7550)">
<path d="M523.988 300.057L493.687 285.181L504.724 279.749L535.025 294.625L523.988 300.057Z" fill="white"/>
</g>
<g filter="url(#filter30_d_11187_7550)">
<path d="M401.437 222.066L385.189 214.093L396.226 208.661L412.474 216.635L401.437 222.066Z" fill="white"/>
</g>
<g filter="url(#filter31_d_11187_7550)">
<path d="M425.239 233.753L408.991 225.779L420.057 220.347L436.305 228.346L425.239 233.753Z" fill="white"/>
</g>
<g filter="url(#filter32_d_11187_7550)">
<path d="M449.041 245.464L432.792 237.49L443.859 232.058L460.107 240.032L449.041 245.464Z" fill="white"/>
</g>
<g filter="url(#filter33_d_11187_7550)">
<path d="M472.872 257.15L456.623 249.176L467.66 243.744L483.909 251.743L472.872 257.15Z" fill="white"/>
</g>
<g filter="url(#filter34_d_11187_7550)">
<path d="M496.673 268.861L480.425 260.862L491.462 255.455L507.71 263.429L496.673 268.861Z" fill="white"/>
</g>
<g filter="url(#filter35_d_11187_7550)">
<path d="M542.081 291.162L504.227 272.574L515.264 267.142L553.118 285.755L542.081 291.162Z" fill="white"/>
</g>
<g filter="url(#filter36_d_11187_7550)">
<path d="M411.713 209.583L395.465 201.61L406.502 196.178L422.751 204.176L411.713 209.583Z" fill="white"/>
</g>
<g filter="url(#filter37_d_11187_7550)">
<path d="M435.516 221.295L419.267 213.296L430.304 207.889L446.553 215.863L435.516 221.295Z" fill="white"/>
</g>
<g filter="url(#filter38_d_11187_7550)">
<path d="M459.317 232.98L443.068 225.007L454.106 219.575L470.383 227.573L459.317 232.98Z" fill="white"/>
</g>
<g filter="url(#filter39_d_11187_7550)">
<path d="M483.118 244.691L466.87 236.693L477.937 231.286L494.185 239.259L483.118 244.691Z" fill="white"/>
</g>
<g filter="url(#filter40_d_11187_7550)">
<path d="M506.949 256.377L490.701 248.404L501.738 242.972L517.986 250.945L506.949 256.377Z" fill="white"/>
</g>
<g filter="url(#filter41_d_11187_7550)">
<path d="M530.751 268.088L514.503 260.09L525.54 254.683L541.788 262.656L530.751 268.088Z" fill="white"/>
</g>
<g filter="url(#filter42_d_11187_7550)">
<path d="M559.91 282.415L538.304 271.8L549.342 266.368L570.948 276.983L559.91 282.415Z" fill="white"/>
</g>
<path d="M570.45 258.944L391.981 171.261L397.339 168.62L575.808 256.328L570.45 258.944Z" fill="#CFE0FF"/>
<path d="M427.143 286.428L336.064 241.677L282.348 264.725L373.426 309.476L427.143 286.428Z" fill="#DADCDE"/>
<path d="M599.492 274.567L445.557 350.215C442.629 351.66 438.209 351.959 434.666 351.112C434.637 351.112 432.471 350.39 432.119 350.215L206.281 239.235C206.018 239.11 205.784 238.986 205.579 238.836L205.549 238.811C205.491 238.761 205.432 238.736 205.374 238.687C205.257 238.612 205.11 238.512 204.993 238.413C204.935 238.363 204.876 238.313 204.818 238.263C204.671 238.138 204.554 238.014 204.437 237.914C204.408 237.889 204.408 237.889 204.378 237.864L204.349 237.839C204.203 237.69 204.115 237.54 203.998 237.391C203.705 236.942 203.529 236.494 203.5 236.021V238.786H203.529C203.5 239.982 204.408 241.203 206.281 242.125L432.119 353.106C437.506 355.373 445.206 354.925 447.489 354.501C449.773 354.077 451.851 353.579 454.252 353.13L599.492 281.768C601.366 280.846 602.273 279.625 602.273 278.429V271.278C602.244 272.474 601.307 273.67 599.492 274.567Z" fill="#CBCFD5" stroke="#535353" stroke-width="0.318709" stroke-miterlimit="10"/>
<rect width="89.6792" height="44.0865" transform="matrix(0.897123 0.4116 0 1 395.489 49.9163)" fill="white"/>
<rect width="89.6792" height="44.0865" transform="matrix(0.897123 0.4116 0 1 395.489 99.1238)" fill="white"/>
<rect width="89.6792" height="44.0865" transform="matrix(0.897123 0.4116 0 1 486.069 94.4241)" fill="white"/>
<rect width="89.6792" height="44.0865" transform="matrix(0.897123 0.4116 0 1 486.069 143.632)" fill="white"/>
<g clip-path="url(#clip3_11187_7550)">
<rect width="236.946" height="157.387" transform="matrix(0.866025 0.5 0 1 278.746 94.1072)" fill="#0367E4"/>
<rect width="236.946" height="18.1601" transform="matrix(0.866025 0.5 0 1 278.746 94.1072)" fill="#347BE9"/>
<ellipse cx="1.72953" cy="1.72953" rx="1.72953" ry="1.72953" transform="matrix(0.866025 0.5 0 1 287.733 106.214)" fill="#D9D9D9"/>
<ellipse cx="1.72953" cy="1.72953" rx="1.72953" ry="1.72953" transform="matrix(0.866025 0.5 0 1 293.724 109.673)" fill="#D9D9D9"/>
<ellipse cx="1.72953" cy="1.72953" rx="1.72953" ry="1.72953" transform="matrix(0.866025 0.5 0 1 299.715 113.132)" fill="#D9D9D9"/>
<rect width="15.5658" height="2.5943" rx="1.29715" transform="matrix(0.866025 0.5 0 1 293.724 133.022)" fill="#D9D9D9"/>
<rect width="8.28645" height="1.91226" rx="0.956128" transform="matrix(0.866025 0.5 0 1 367.621 167.502)" fill="#D9D9D9"/>
<rect width="7.64903" height="1.91226" rx="0.956128" transform="matrix(0.866025 0.5 0 1 379.214 174.195)" fill="#D9D9D9"/>
<rect width="7.64903" height="1.91226" rx="0.956128" transform="matrix(0.866025 0.5 0 1 390.254 180.569)" fill="#D9D9D9"/>
<rect width="7.64903" height="1.91226" rx="0.956128" transform="matrix(0.866025 0.5 0 1 401.295 186.943)" fill="#D9D9D9"/>
<rect width="7.64903" height="1.91226" rx="0.956128" transform="matrix(0.866025 0.5 0 1 412.335 193.317)" fill="#D9D9D9"/>
<rect width="150.431" height="35.6955" transform="matrix(0.866025 0.5 0 1 288.682 132.762)" fill="#428BF0"/>
<rect width="46.5316" height="32.5084" transform="matrix(0.866025 0.5 0 1 288.682 172.282)" fill="#428BF0"/>
<rect width="47.169" height="32.5084" transform="matrix(0.866025 0.5 0 1 333.396 198.098)" fill="#428BF0"/>
<rect width="46.5316" height="32.5084" transform="matrix(0.866025 0.5 0 1 378.662 224.232)" fill="#428BF0"/>
</g>
<g clip-path="url(#clip4_11187_7550)">
<rect width="206.913" height="137.439" transform="matrix(0.866025 0.5 0 1 501.5 326.755)" fill="#EAEEF3"/>
<rect width="206.913" height="15.8583" transform="matrix(0.866025 0.5 0 1 501.5 326.755)" fill="#CBCFD5"/>
<circle cx="1.51032" cy="1.51032" r="1.51032" transform="matrix(0.866025 0.5 0 1 509.348 337.327)" fill="white"/>
<circle cx="1.51032" cy="1.51032" r="1.51032" transform="matrix(0.866025 0.5 0 1 514.58 340.348)" fill="white"/>
<circle cx="1.51032" cy="1.51032" r="1.51032" transform="matrix(0.866025 0.5 0 1 519.812 343.369)" fill="white"/>
<rect width="13.5928" height="2.26547" rx="1.13274" transform="matrix(0.866025 0.5 0 1 514.58 360.737)" fill="#D9D9D9"/>
<rect width="8.22785" height="1.89873" rx="0.949367" transform="matrix(0.866025 0.5 0 1 589.747 399.734)" fill="#D9D9D9"/>
<rect width="7.59494" height="1.89873" rx="0.949367" transform="matrix(0.866025 0.5 0 1 601.257 406.38)" fill="#D9D9D9"/>
<rect width="7.59494" height="1.89873" rx="0.949367" transform="matrix(0.866025 0.5 0 1 612.22 412.709)" fill="#D9D9D9"/>
<rect width="7.59494" height="1.89873" rx="0.949367" transform="matrix(0.866025 0.5 0 1 623.182 419.038)" fill="#D9D9D9"/>
<rect width="7.59494" height="1.89873" rx="0.949367" transform="matrix(0.866025 0.5 0 1 634.144 425.367)" fill="#D9D9D9"/>
<rect width="149.367" height="35.443" transform="matrix(0.866025 0.5 0 1 511.366 365.24)" fill="white"/>
<rect width="46.2025" height="32.2785" transform="matrix(0.866025 0.5 0 1 511.366 404.481)" fill="#428BF0"/>
<rect opacity="0.2" width="46.2025" height="32.2785" transform="matrix(0.866025 0.5 0 1 600.234 455.747)" fill="#428BF0"/>
<rect width="46.8354" height="1.30699" transform="matrix(0.866025 0.5 0 1 555.764 430.114)" fill="#428BF0"/>
<rect width="46.8354" height="1.30699" transform="matrix(0.866025 0.5 0 1 555.764 434.228)" fill="#428BF0"/>
<rect width="46.8354" height="1.30699" transform="matrix(0.866025 0.5 0 1 555.764 438.025)" fill="#428BF0"/>
<rect width="46.2025" height="20.0536" transform="matrix(0.866025 0.5 0 1 555.93 442.456)" fill="#428BF0"/>
</g>
<path d="M541.5 473.5L321.509 614.275C315.077 618.391 306.864 618.485 300.339 614.519L-71.0524 388.724C-74.2368 386.788 -74.2601 382.174 -71.0956 380.206L45 308" stroke="black" stroke-opacity="0.12" stroke-dasharray="7 7"/>
<path d="M133.343 400.539V455.781L165.933 442.031L166.5 358.323L133.343 400.539Z" fill="#DADFF7"/>
<path d="M68.1641 372.797V428.04L133.344 455.782V400.539L68.1641 372.797Z" fill="#DADFF7"/>
<path d="M100.754 331.064L165.934 358.806L133.344 400.539L68.1644 372.797L100.754 331.064Z" fill="white" stroke="#1062FE" stroke-width="0.5" stroke-miterlimit="10"/>
<path d="M102.454 336.13L159.415 360.494L131.643 395.714L74.6821 371.35L102.454 336.13Z" fill="white" stroke="#3D7FFC" stroke-width="0.2" stroke-miterlimit="10"/>
<path d="M105.462 387.85C105.9 386.965 106.118 385.739 105.991 385.149C105.863 384.56 104.641 383.132 105.407 382.837C106.173 382.542 107.267 383.97 107.267 383.97L108.033 382.635C108.033 382.635 107.796 382.263 108.106 381.813C108.398 381.347 109.109 381.3 109.365 381.425C109.62 381.549 110.714 381.595 110.714 381.595C110.295 381.3 109.365 380.462 109.693 379.779C110.039 379.097 112.045 380.214 113.577 381.145C115.091 382.076 115.073 383.085 115.328 384.187C115.583 385.274 116.532 385.553 114.836 387.974C113.14 390.395 111.097 392.133 109.128 394.073C108.781 394.415 108.234 394.943 107.541 395.579L103.875 391.73C105.152 391.078 106.045 390.643 106.045 390.643C106.045 390.643 105.024 388.735 105.462 387.85Z" fill="#FFCDA8"/>
<path d="M109.164 388.747C108.872 389.756 106.118 390.517 106.118 390.517H106.027C105.826 390.144 105.079 388.608 105.48 387.832C105.936 386.947 106.136 385.721 106.009 385.131C105.881 384.541 104.659 383.113 105.425 382.819C106.191 382.524 107.285 383.952 107.285 383.952L108.051 382.617C108.051 382.617 107.814 382.244 108.124 381.794C108.434 381.329 109.127 381.282 109.382 381.406C109.638 381.53 110.732 381.577 110.732 381.577C110.294 381.282 109.382 380.444 109.711 379.761C109.948 379.265 111.079 379.715 112.246 380.335C113.048 381.468 114.088 382.508 114.088 382.508L112.902 384.541L111.042 385.535C111.06 385.55 109.455 387.754 109.164 388.747Z" fill="#D9A782"/>
<path d="M98.4777 374.625C98.0764 374.842 97.2011 374.92 96.4533 374.438C95.7056 373.957 94.4838 372.747 93.6996 372.824C92.9336 372.918 92.0582 373.057 92.0582 373.057C92.0582 373.057 93.3531 374.206 93.0066 374.764C92.6783 375.323 92.2406 376.378 92.2406 376.378C92.2406 376.378 94.4838 377.294 94.2102 378.256C93.9366 379.219 91.5476 378.66 90.7087 378.272C90.7087 378.272 89.7969 379.669 89.2133 379.529C88.6297 379.389 88.9397 377.372 88.9397 377.372L88.3744 377.387C88.3744 377.387 86.3501 378.66 85.4382 378.831C84.5446 379.001 84.5081 378.536 84.727 378.194C84.9458 377.868 85.8941 376.813 85.8941 376.813L81.7179 376.037L76.7756 378.675L73.6754 374.547C73.6754 374.547 80.2042 372.157 81.5355 372.126C82.885 372.095 87.882 370.745 88.9579 370.714C90.0339 370.683 92.9336 370.853 93.9731 370.993C95.0126 371.133 99.2618 374.19 98.4777 374.625Z" fill="#FFCDA8"/>
<path d="M92.0582 373.057C92.0582 373.057 93.353 374.206 93.0065 374.764C92.6783 375.323 92.2406 376.378 92.2406 376.378C89.7056 375.82 88.2467 374.221 88.5202 373.725C88.7938 373.212 92.0582 373.057 92.0582 373.057Z" fill="#D9A782"/>
<path d="M88.7934 377.17C90.2706 377.48 90.7083 378.256 90.7083 378.256C90.7083 378.256 89.7964 379.653 89.2128 379.513C88.6292 379.374 88.9393 377.356 88.9393 377.356L88.3739 377.371C88.3739 377.371 86.3496 378.644 85.4378 378.815C84.5442 378.986 84.5077 378.52 84.7265 378.179C84.9454 377.853 85.8937 376.797 85.8937 376.797L85.8208 376.782C86.3314 376.735 87.3162 376.859 88.7934 377.17Z" fill="#D9A782"/>
<path d="M80.5326 371.816C80.5326 371.816 82.3563 373.399 81.9551 377.527L75.5175 381.221L71.0859 374.563L80.5326 371.816Z" fill="#16375B"/>
<path d="M60.5992 470.74C60.5992 470.74 66.0156 470.011 68.0034 470.569C69.9912 471.128 70.8119 473.068 69.7906 475.117C68.7511 477.165 66.5991 478.252 65.6508 478.314C64.7025 478.391 61.6387 479.338 61.0551 480.037C60.4715 480.735 58.0825 483.482 55.5658 483.73C53.0491 483.979 50.9336 482.675 50.97 481.371C50.97 480.968 51.1706 480.207 51.426 479.354C51.9731 477.538 51.426 474.605 51.426 474.605L60.5992 470.74Z" fill="#044CA4"/>
<path d="M61.0551 480.022C60.4715 480.72 58.0825 483.467 55.5658 483.716C53.0491 483.964 50.9336 482.66 50.97 481.357C50.97 481.031 51.0977 480.488 51.2801 479.851C51.6083 480.317 52.2649 480.876 53.5779 481.139C55.967 481.636 56.1858 482.086 58.0825 481.139C59.9791 480.193 60.8545 478.61 62.2587 478.253C63.4259 477.958 68.3499 477.29 70.2101 473.705C70.1553 474.155 70.0277 474.621 69.7906 475.087C68.7511 477.135 66.5991 478.222 65.6508 478.284C64.6842 478.377 61.6387 479.324 61.0551 480.022Z" fill="#5DA5FD"/>
<path d="M91.6747 473.829C91.6747 473.829 95.0303 474.108 96.398 474.077C97.7658 474.046 102.471 474.387 103.419 475.769C104.368 477.134 104.824 479.183 102.544 480.828C100.264 482.473 96.9269 483.156 95.2309 483.048C93.5348 482.939 90.9634 483.684 89.4862 484.181C87.9908 484.677 82.465 485.903 80.8784 485.655C79.31 485.407 79.6747 481.775 79.8571 479.757C80.0577 477.74 91.6747 473.829 91.6747 473.829Z" fill="#044CA4"/>
<path d="M95.2315 483.049C93.5354 482.94 90.964 483.685 89.4868 484.182C87.9914 484.678 82.4656 485.905 80.879 485.656C80.0948 485.532 79.7847 484.57 79.7118 483.39C80.4048 483.452 81.3896 483.561 82.2832 483.654C83.8881 483.825 86.6236 483.546 88.7391 482.785C90.8546 482.009 92.5871 482.009 95.0673 482.009C97.2922 482.009 101.687 481.745 104.186 477.741C104.277 478.765 103.894 479.867 102.563 480.845C100.265 482.49 96.9275 483.158 95.2315 483.049Z" fill="#5DA5FD"/>
<path d="M70.5748 422.97C70.5748 422.97 69.7359 431.769 69.0976 435.774C68.4593 439.778 65.0855 444.216 64.1736 446.932C63.2618 449.664 62.1676 460.388 62.277 464.439C62.3864 468.49 63.7177 471.563 63.7177 471.563C63.7177 471.563 64.6843 475.365 60.3986 477.367C56.0946 479.369 51.3713 477.74 51.3713 477.74C51.3713 477.74 50.6053 460.078 50.6236 454.894C50.6418 450.393 52.1007 448.065 53.122 445.241C54.1615 442.416 53.9792 436.472 53.9792 432.033C53.9792 427.595 53.4685 420.036 53.4685 420.036C53.4685 420.036 51.8454 413.207 52.3743 411.205C52.9032 409.219 66.125 411.702 66.125 411.702L70.5748 422.97Z" fill="#1C64BC"/>
<path d="M86.0762 416.592C86.0762 416.592 88.3376 423.607 89.1947 430.016C90.0336 436.426 88.0641 444.031 88.0641 447.709C88.0641 451.388 88.9759 465.868 90.2343 469.422C91.4926 472.976 92.6415 474.342 92.6415 474.342C92.6415 474.342 91.3285 480.829 79.8756 480.193C79.8756 480.193 77.8696 468.925 77.3589 466.489C76.8483 464.052 74.7328 458.449 75.2435 453.374C75.7541 448.299 76.1553 443.721 75.4805 441.765C74.7875 439.81 69.4076 426.121 69.4076 426.121C69.4076 426.121 62.3681 421.279 62.2952 416.592H86.0762Z" fill="#367ED6"/>
<path d="M86.0763 416.592C86.0763 416.592 88.3377 423.607 89.1948 430.016C90.0337 436.426 88.0641 444.031 88.0641 447.709C88.0641 451.388 88.976 465.868 90.2343 469.422C91.4927 472.976 92.6416 474.342 92.6416 474.342C92.6416 474.342 92.1127 476.903 88.8848 478.656C86.3681 471.486 85.128 457.797 85.0732 456.199C85.0185 454.321 83.3225 451.341 83.3225 449.572C83.3225 447.802 84.2343 438.739 84.2343 430.125C84.2343 421.511 79.3104 417.911 79.3104 417.911L78.6721 416.592H86.0763Z" fill="#1C64BC"/>
<path d="M56.2222 362.736C56.2222 362.736 54.5626 363.978 59.9972 365.126C65.4318 366.29 70.6841 366.15 70.6841 366.15C70.6841 366.15 76.757 370.31 78.7448 372.529C80.7144 374.764 81.9181 385.83 81.8451 388.903C81.7722 391.976 82.9029 407.853 83.1947 408.396C83.4865 408.939 86.5138 417.848 86.5138 417.848C86.5138 417.848 80.7144 421.216 72.0883 420.859C63.4622 420.502 51.2252 413.099 51.1705 412.23C51.0976 411.361 52.4471 405.215 52.8666 403.228C53.286 401.241 54.2161 394.195 53.4319 392.581C52.6477 390.952 45.0976 378.256 44.0216 373.926C42.9639 369.596 43.1645 365.499 47.979 364.055C52.7936 362.612 56.2222 362.736 56.2222 362.736Z" fill="#5DA5FD"/>
<path d="M74.1312 381.391C74.1312 381.391 77.7239 385.271 81.8454 389.757C81.9366 394.18 82.9214 407.884 83.1767 408.396C83.4685 408.94 86.4959 417.848 86.4959 417.848C86.4959 417.848 83.0491 419.85 77.5233 420.595C77.2862 418.236 76.7938 414.309 76.0825 412.214C75.0248 409.095 71.268 399.271 70.6297 394.692C70.0096 390.129 74.1312 381.391 74.1312 381.391Z" fill="#367ED6"/>
<path d="M70.0831 365.142C69.846 364.49 69.4995 360.579 70.3566 359.911C71.232 359.229 73.3657 359.229 74.1682 357.77C74.9706 356.295 75.9007 353.424 75.9371 352.741C75.9736 352.058 75.08 350.863 75.7001 349.792C76.3201 348.737 75.9007 346.409 75.1712 344.857C74.4417 343.305 73.0192 340.263 67.7487 340.03C62.46 339.797 57.9008 341.148 55.8582 344.531C53.8157 347.914 53.9616 350.568 55.0193 353.145C56.0953 355.736 57.7549 357.708 57.8278 359.12C57.9008 360.532 56.7883 362.534 55.4023 363.481C55.4023 363.481 55.2017 365.359 60.1804 366.958C65.1591 368.541 71.1408 366.958 71.1408 366.958L70.0831 365.142Z" fill="#FFCDA8"/>
<path d="M74.1313 357.801C73.2195 357.909 72.1982 357.847 71.5417 357.211C71.4323 357.506 71.2681 357.692 71.0675 357.692C70.4292 357.692 70.0098 356.016 70.0827 354.728C69.0797 353.377 67.8578 352.586 67.8578 352.586L64.8305 354.122C64.8305 354.122 66.6359 362.224 65.1405 367.64C68.4232 367.656 71.1222 366.942 71.1222 366.942L70.0827 365.157C69.8456 364.505 69.4991 360.594 70.3563 359.927C71.2134 359.229 73.3289 359.229 74.1313 357.801Z" fill="#D9A782"/>
<path d="M70.9576 339.192C67.7296 338.075 60.6719 337.656 56.9151 340.961C53.14 344.252 52.6476 349.73 55.3102 353.812C56.3498 356.047 57.7175 357.785 57.8087 359.073C58.3011 359.322 59.0488 359.555 60.1248 359.679C63.0974 360.067 65.2129 359.679 66.5625 358.499C67.912 357.32 68.3862 354.402 69.3892 353.579C70.3922 352.757 72.0883 353.145 72.5442 353.145C73.0001 353.145 73.3102 352.462 73.3466 352.198C73.3831 351.934 73.146 349.761 73.7296 349.078C74.3132 348.396 74.5138 347.402 74.3861 346.983C74.2402 346.564 74.1491 345.99 74.1491 345.245C74.1491 344.888 74.3132 344.143 74.4956 343.476C74.4956 343.476 75.1521 343.088 75.2068 342.327C75.2615 341.194 74.1855 340.31 70.9576 339.192Z" fill="#412999"/>
<path opacity="0.5" d="M55.0189 353.145C56.0949 355.721 57.7362 357.677 57.8092 359.089C58.3016 359.337 59.0493 359.57 60.1253 359.694C63.0979 360.082 65.2134 359.694 66.5629 358.515C67.9125 357.335 68.3866 354.417 69.3896 353.595C70.3927 352.772 72.0887 353.16 72.5446 353.16C73.0006 353.16 73.3106 352.477 73.3471 352.214C73.3835 351.996 73.2194 350.537 73.4747 349.637C71.8699 350.367 66.8729 352.477 61.7666 352.896C58.8122 353.129 56.6055 352.927 54.8183 352.571C54.873 352.772 54.9277 352.959 55.0189 353.145Z" fill="#412999"/>
<path d="M58.3743 365.436C61.0551 366.321 62.6053 366.569 65.5961 366.756C68.587 366.942 72.1797 366.306 74.2405 369.13C75.207 370.465 69.6083 380.957 55.2375 378.194C48.1069 376.828 47.5415 371.039 48.8911 367.935C50.2771 364.769 55.347 363.481 56.0764 364.102C57.4807 365.312 57.6813 365.219 58.3743 365.436Z" fill="#367ED6"/>
<path d="M58.3743 363.946C61.0551 364.831 62.6053 365.079 65.5961 365.266C68.587 365.452 72.1797 364.816 74.2405 367.64C75.207 368.975 69.6083 379.467 55.2375 376.704C48.1069 375.338 47.5415 369.549 48.8911 366.445C50.2771 363.279 55.347 361.991 56.0764 362.612C57.4807 363.822 57.6813 363.714 58.3743 363.946Z" fill="#5DA5FD"/>
<path d="M70.5748 367.982C70.5748 367.982 66.3439 373.072 57.9548 372.017C49.5658 370.962 53.1038 364.567 53.1038 364.567C53.1038 364.567 51.0248 370.248 58.0096 371.319C63.1706 372.11 70.5748 367.982 70.5748 367.982Z" fill="#367ED6"/>
<path d="M111.061 389.974C111.061 389.974 109.091 388.468 109.803 386.622C110.514 384.775 111.116 383.952 110.879 383.331C110.66 382.711 109.876 379.746 111.353 379.544C112.812 379.343 112.903 381.174 113.012 382.043C113.122 382.928 113.468 383.968 113.997 384.651C114.526 385.349 115 386.513 114.161 388.236C113.322 389.958 112.228 390.672 111.061 389.974Z" fill="#FFCDA8"/>
<path d="M89.5954 393.295C93.2064 392.053 105.17 388.561 105.17 388.561C107.358 388.872 109.218 390.268 109.401 391.727C109.62 393.636 107.832 396.228 107.832 396.228C107.832 396.228 98.3127 398.851 93.9541 401.07C89.5954 403.29 87.5347 402.591 85.9116 401.753C83.5225 400.543 85.255 394.785 89.5954 393.295Z" fill="#367ED6"/>
<path d="M89.5955 393.295C93.2064 392.053 105.17 388.561 105.17 388.561C105.991 388.685 106.756 388.949 107.431 389.322L107.194 389.834C107.194 389.834 92.0939 394.847 85.7475 401.66C83.5955 400.263 85.3645 394.738 89.5955 393.295Z" fill="#5DA5FD"/>
<path d="M75.4987 369.844C75.4987 369.844 81.0245 371.505 82.9758 374.857C84.9454 378.21 85.7296 383.967 86.4409 385.426C87.1521 386.885 90.9272 393.357 92.0031 394.707C93.0791 396.058 93.8633 397.734 92.5867 399.394C91.3284 401.055 89.6506 403.399 86.222 402.545C82.7935 401.691 77.3224 393.466 75.4804 389.989C73.6385 386.497 71.523 381.453 71.523 378.179C71.523 374.904 74.0762 370.589 75.4987 369.844Z" fill="#5DA5FD"/>
<rect width="66.6667" height="66.6667" rx="2.77778" transform="matrix(0.866025 0.5 0 1 293.5 0)" fill="#EAEEF3"/>
<path d="M308.111 560.415L382.034 523.757V449.831L308.111 486.43V560.415Z" fill="#EBEFFF"/>
<path d="M308.111 560.199L266.43 535.012L265.151 465.669L308.111 486.431V560.199Z" fill="#1062FE"/>
<path d="M308.111 486.431L265.577 466.032L344.495 427.186L382.034 450.058L308.111 486.431Z" fill="#F7F6FB"/>
<path d="M379.777 557.337L412.5 541.226V508.646L379.777 524.696V557.337Z" fill="#EBEFFF"/>
<path d="M379.777 557.337L347.054 541.226V508.646L379.777 524.696V557.337Z" fill="#CED3F8"/>
<path d="M379.777 524.696L347.054 508.646L379.777 492.535L412.5 508.646L379.777 524.696Z" fill="#F7F6FB"/>
<path d="M279.654 492.535L251.5 478.342V476.561L279.654 490.754V492.535Z" fill="white"/>
<path d="M279.654 496.892L257.046 485.282V483.459L279.654 495.068V496.892Z" fill="white"/>
<path d="M279.654 500.522L261.738 491.413V489.631L279.654 498.765V500.522Z" fill="white"/>
<path d="M301.903 537.844L302.113 531.192L282.255 520.143L282.02 526.542L301.903 537.844Z" fill="#E7EFFF"/>
<path d="M297.397 532.213C297.282 532.96 297.845 533.765 298.624 534.287C299.426 534.66 300.151 534.42 300.243 533.823C300.358 533.077 299.795 532.272 299.016 531.75C298.068 531.213 297.513 531.467 297.397 532.213Z" fill="#FB868A"/>
<path d="M293.038 530.845C292.501 530.085 292.541 529.221 293.127 528.916C293.712 528.61 294.623 528.977 295.159 529.737C295.696 530.496 295.657 531.36 295.071 531.666C294.485 531.972 293.575 531.604 293.038 530.845Z" fill="#1062FE"/>
<path d="M287.972 526.951C287.856 527.697 288.419 528.502 289.198 529.024C290 529.397 290.725 529.158 290.817 528.561C290.91 527.964 290.37 527.009 289.591 526.487C288.812 525.965 288.087 526.204 287.972 526.951Z" fill="#FB868A"/>
<path d="M283.613 525.702C283.076 524.943 283.115 524.079 283.701 523.773C284.287 523.467 285.197 523.835 285.734 524.594C286.271 525.354 286.231 526.217 285.645 526.523C285.06 526.829 284.149 526.461 283.613 525.702Z" fill="#FB868A"/>
<g clip-path="url(#clip5_11187_7550)">
<path d="M332.702 69.2424L327.999 61.14C329.824 59.5655 330.709 56.7397 330.469 53.2435C330.23 49.7473 328.886 45.8465 326.713 42.3432C324.54 38.8399 321.703 36.0003 318.786 34.4084C315.869 32.8165 313.094 32.5932 311.03 33.7845C308.967 34.9758 307.773 37.491 307.693 40.8131C307.613 44.1352 308.654 48.0116 310.601 51.6452C312.549 55.2788 315.255 58.3934 318.163 60.3487C321.071 62.3039 323.96 62.9512 326.237 62.1573L330.902 70.2378C331.02 70.4431 331.16 70.6329 331.314 70.7964C331.469 70.9599 331.635 71.0939 331.802 71.1905C331.969 71.2871 332.135 71.3445 332.289 71.3594C332.444 71.3743 332.584 71.3463 332.702 71.2771C332.931 71.1361 333.058 70.8451 333.058 70.4654C333.058 70.0858 332.931 69.6473 332.702 69.2424ZM319.125 58.0512C317.369 57.0379 315.654 55.4464 314.194 53.4778C312.735 51.5093 311.598 49.2523 310.926 46.9921C310.254 44.7319 310.079 42.5702 310.421 40.7801C310.763 38.9901 311.609 37.6522 312.85 36.9357C314.091 36.2192 315.672 36.1562 317.393 36.7546C319.115 37.3531 320.899 38.5862 322.521 40.298C324.142 42.0097 325.528 44.1233 326.503 46.3714C327.478 48.6194 327.999 50.9011 327.999 52.9277C327.999 55.6454 327.064 57.712 325.4 58.6728C323.735 59.6337 321.478 59.4101 319.125 58.0512Z" fill="black"/>
</g>
</g>
<defs>
<filter id="filter0_d_11187_7550" x="362.851" y="164.583" width="16.5704" height="8.65788" filterUnits="userSpaceOnUse" color-interpolation-filters="sRGB">
<feFlood flood-opacity="0" result="BackgroundImageFix"/>
<feColorMatrix in="SourceAlpha" type="matrix" values="0 0 0 0 0 0 0 0 0 0 0 0 0 0 0 0 0 0 127 0" result="hardAlpha"/>
<feOffset dy="0.509935"/>
<feComposite in2="hardAlpha" operator="out"/>
<feColorMatrix type="matrix" values="0 0 0 0 0 0 0 0 0 0 0 0 0 0 0 0 0 0 0.12 0"/>
<feBlend mode="normal" in2="BackgroundImageFix" result="effect1_dropShadow_11187_7550"/>
<feBlend mode="normal" in="SourceGraphic" in2="effect1_dropShadow_11187_7550" result="shape"/>
</filter>
<filter id="filter1_d_11187_7550" x="381.442" y="173.727" width="16.5704" height="8.65788" filterUnits="userSpaceOnUse" color-interpolation-filters="sRGB">
<feFlood flood-opacity="0" result="BackgroundImageFix"/>
<feColorMatrix in="SourceAlpha" type="matrix" values="0 0 0 0 0 0 0 0 0 0 0 0 0 0 0 0 0 0 127 0" result="hardAlpha"/>
<feOffset dy="0.509935"/>
<feComposite in2="hardAlpha" operator="out"/>
<feColorMatrix type="matrix" values="0 0 0 0 0 0 0 0 0 0 0 0 0 0 0 0 0 0 0.12 0"/>
<feBlend mode="normal" in2="BackgroundImageFix" result="effect1_dropShadow_11187_7550"/>
<feBlend mode="normal" in="SourceGraphic" in2="effect1_dropShadow_11187_7550" result="shape"/>
</filter>
<filter id="filter2_d_11187_7550" x="400.061" y="182.872" width="16.5411" height="8.63274" filterUnits="userSpaceOnUse" color-interpolation-filters="sRGB">
<feFlood flood-opacity="0" result="BackgroundImageFix"/>
<feColorMatrix in="SourceAlpha" type="matrix" values="0 0 0 0 0 0 0 0 0 0 0 0 0 0 0 0 0 0 127 0" result="hardAlpha"/>
<feOffset dy="0.509935"/>
<feComposite in2="hardAlpha" operator="out"/>
<feColorMatrix type="matrix" values="0 0 0 0 0 0 0 0 0 0 0 0 0 0 0 0 0 0 0.12 0"/>
<feBlend mode="normal" in2="BackgroundImageFix" result="effect1_dropShadow_11187_7550"/>
<feBlend mode="normal" in="SourceGraphic" in2="effect1_dropShadow_11187_7550" result="shape"/>
</filter>
<filter id="filter3_d_11187_7550" x="418.651" y="192.016" width="16.5704" height="8.63274" filterUnits="userSpaceOnUse" color-interpolation-filters="sRGB">
<feFlood flood-opacity="0" result="BackgroundImageFix"/>
<feColorMatrix in="SourceAlpha" type="matrix" values="0 0 0 0 0 0 0 0 0 0 0 0 0 0 0 0 0 0 127 0" result="hardAlpha"/>
<feOffset dy="0.509935"/>
<feComposite in2="hardAlpha" operator="out"/>
<feColorMatrix type="matrix" values="0 0 0 0 0 0 0 0 0 0 0 0 0 0 0 0 0 0 0.12 0"/>
<feBlend mode="normal" in2="BackgroundImageFix" result="effect1_dropShadow_11187_7550"/>
<feBlend mode="normal" in="SourceGraphic" in2="effect1_dropShadow_11187_7550" result="shape"/>
</filter>
<filter id="filter4_d_11187_7550" x="437.242" y="201.136" width="16.5704" height="8.65788" filterUnits="userSpaceOnUse" color-interpolation-filters="sRGB">
<feFlood flood-opacity="0" result="BackgroundImageFix"/>
<feColorMatrix in="SourceAlpha" type="matrix" values="0 0 0 0 0 0 0 0 0 0 0 0 0 0 0 0 0 0 127 0" result="hardAlpha"/>
<feOffset dy="0.509935"/>
<feComposite in2="hardAlpha" operator="out"/>
<feColorMatrix type="matrix" values="0 0 0 0 0 0 0 0 0 0 0 0 0 0 0 0 0 0 0.12 0"/>
<feBlend mode="normal" in2="BackgroundImageFix" result="effect1_dropShadow_11187_7550"/>
<feBlend mode="normal" in="SourceGraphic" in2="effect1_dropShadow_11187_7550" result="shape"/>
</filter>
<filter id="filter5_d_11187_7550" x="455.862" y="210.281" width="16.5704" height="8.65788" filterUnits="userSpaceOnUse" color-interpolation-filters="sRGB">
<feFlood flood-opacity="0" result="BackgroundImageFix"/>
<feColorMatrix in="SourceAlpha" type="matrix" values="0 0 0 0 0 0 0 0 0 0 0 0 0 0 0 0 0 0 127 0" result="hardAlpha"/>
<feOffset dy="0.509935"/>
<feComposite in2="hardAlpha" operator="out"/>
<feColorMatrix type="matrix" values="0 0 0 0 0 0 0 0 0 0 0 0 0 0 0 0 0 0 0.12 0"/>
<feBlend mode="normal" in2="BackgroundImageFix" result="effect1_dropShadow_11187_7550"/>
<feBlend mode="normal" in="SourceGraphic" in2="effect1_dropShadow_11187_7550" result="shape"/>
</filter>
<filter id="filter6_d_11187_7550" x="474.453" y="219.425" width="16.5704" height="8.65788" filterUnits="userSpaceOnUse" color-interpolation-filters="sRGB">
<feFlood flood-opacity="0" result="BackgroundImageFix"/>
<feColorMatrix in="SourceAlpha" type="matrix" values="0 0 0 0 0 0 0 0 0 0 0 0 0 0 0 0 0 0 127 0" result="hardAlpha"/>
<feOffset dy="0.509935"/>
<feComposite in2="hardAlpha" operator="out"/>
<feColorMatrix type="matrix" values="0 0 0 0 0 0 0 0 0 0 0 0 0 0 0 0 0 0 0.12 0"/>
<feBlend mode="normal" in2="BackgroundImageFix" result="effect1_dropShadow_11187_7550"/>
<feBlend mode="normal" in="SourceGraphic" in2="effect1_dropShadow_11187_7550" result="shape"/>
</filter>
<filter id="filter7_d_11187_7550" x="493.043" y="228.57" width="16.5704" height="8.65788" filterUnits="userSpaceOnUse" color-interpolation-filters="sRGB">
<feFlood flood-opacity="0" result="BackgroundImageFix"/>
<feColorMatrix in="SourceAlpha" type="matrix" values="0 0 0 0 0 0 0 0 0 0 0 0 0 0 0 0 0 0 127 0" result="hardAlpha"/>
<feOffset dy="0.509935"/>
<feComposite in2="hardAlpha" operator="out"/>
<feColorMatrix type="matrix" values="0 0 0 0 0 0 0 0 0 0 0 0 0 0 0 0 0 0 0.12 0"/>
<feBlend mode="normal" in2="BackgroundImageFix" result="effect1_dropShadow_11187_7550"/>
<feBlend mode="normal" in="SourceGraphic" in2="effect1_dropShadow_11187_7550" result="shape"/>
</filter>
<filter id="filter8_d_11187_7550" x="511.663" y="237.715" width="16.5704" height="8.63298" filterUnits="userSpaceOnUse" color-interpolation-filters="sRGB">
<feFlood flood-opacity="0" result="BackgroundImageFix"/>
<feColorMatrix in="SourceAlpha" type="matrix" values="0 0 0 0 0 0 0 0 0 0 0 0 0 0 0 0 0 0 127 0" result="hardAlpha"/>
<feOffset dy="0.509935"/>
<feComposite in2="hardAlpha" operator="out"/>
<feColorMatrix type="matrix" values="0 0 0 0 0 0 0 0 0 0 0 0 0 0 0 0 0 0 0.12 0"/>
<feBlend mode="normal" in2="BackgroundImageFix" result="effect1_dropShadow_11187_7550"/>
<feBlend mode="normal" in="SourceGraphic" in2="effect1_dropShadow_11187_7550" result="shape"/>
</filter>
<filter id="filter9_d_11187_7550" x="530.253" y="246.859" width="16.5704" height="8.63298" filterUnits="userSpaceOnUse" color-interpolation-filters="sRGB">
<feFlood flood-opacity="0" result="BackgroundImageFix"/>
<feColorMatrix in="SourceAlpha" type="matrix" values="0 0 0 0 0 0 0 0 0 0 0 0 0 0 0 0 0 0 127 0" result="hardAlpha"/>
<feOffset dy="0.509935"/>
<feComposite in2="hardAlpha" operator="out"/>
<feColorMatrix type="matrix" values="0 0 0 0 0 0 0 0 0 0 0 0 0 0 0 0 0 0 0.12 0"/>
<feBlend mode="normal" in2="BackgroundImageFix" result="effect1_dropShadow_11187_7550"/>
<feBlend mode="normal" in="SourceGraphic" in2="effect1_dropShadow_11187_7550" result="shape"/>
</filter>
<filter id="filter10_d_11187_7550" x="548.844" y="255.978" width="16.5704" height="8.65788" filterUnits="userSpaceOnUse" color-interpolation-filters="sRGB">
<feFlood flood-opacity="0" result="BackgroundImageFix"/>
<feColorMatrix in="SourceAlpha" type="matrix" values="0 0 0 0 0 0 0 0 0 0 0 0 0 0 0 0 0 0 127 0" result="hardAlpha"/>
<feOffset dy="0.509935"/>
<feComposite in2="hardAlpha" operator="out"/>
<feColorMatrix type="matrix" values="0 0 0 0 0 0 0 0 0 0 0 0 0 0 0 0 0 0 0.12 0"/>
<feBlend mode="normal" in2="BackgroundImageFix" result="effect1_dropShadow_11187_7550"/>
<feBlend mode="normal" in="SourceGraphic" in2="effect1_dropShadow_11187_7550" result="shape"/>
</filter>
<filter id="filter11_d_11187_7550" x="567.463" y="265.124" width="16.5704" height="8.65788" filterUnits="userSpaceOnUse" color-interpolation-filters="sRGB">
<feFlood flood-opacity="0" result="BackgroundImageFix"/>
<feColorMatrix in="SourceAlpha" type="matrix" values="0 0 0 0 0 0 0 0 0 0 0 0 0 0 0 0 0 0 127 0" result="hardAlpha"/>
<feOffset dy="0.509935"/>
<feComposite in2="hardAlpha" operator="out"/>
<feColorMatrix type="matrix" values="0 0 0 0 0 0 0 0 0 0 0 0 0 0 0 0 0 0 0.12 0"/>
<feBlend mode="normal" in2="BackgroundImageFix" result="effect1_dropShadow_11187_7550"/>
<feBlend mode="normal" in="SourceGraphic" in2="effect1_dropShadow_11187_7550" result="shape"/>
</filter>
<filter id="filter12_d_11187_7550" x="344.231" y="171.012" width="30.9158" height="15.6845" filterUnits="userSpaceOnUse" color-interpolation-filters="sRGB">
<feFlood flood-opacity="0" result="BackgroundImageFix"/>
<feColorMatrix in="SourceAlpha" type="matrix" values="0 0 0 0 0 0 0 0 0 0 0 0 0 0 0 0 0 0 127 0" result="hardAlpha"/>
<feOffset dy="0.509935"/>
<feComposite in2="hardAlpha" operator="out"/>
<feColorMatrix type="matrix" values="0 0 0 0 0 0 0 0 0 0 0 0 0 0 0 0 0 0 0.12 0"/>
<feBlend mode="normal" in2="BackgroundImageFix" result="effect1_dropShadow_11187_7550"/>
<feBlend mode="normal" in="SourceGraphic" in2="effect1_dropShadow_11187_7550" result="shape"/>
</filter>
<filter id="filter13_d_11187_7550" x="326.402" y="179.782" width="38.4692" height="19.3969" filterUnits="userSpaceOnUse" color-interpolation-filters="sRGB">
<feFlood flood-opacity="0" result="BackgroundImageFix"/>
<feColorMatrix in="SourceAlpha" type="matrix" values="0 0 0 0 0 0 0 0 0 0 0 0 0 0 0 0 0 0 127 0" result="hardAlpha"/>
<feOffset dy="0.509935"/>
<feComposite in2="hardAlpha" operator="out"/>
<feColorMatrix type="matrix" values="0 0 0 0 0 0 0 0 0 0 0 0 0 0 0 0 0 0 0.12 0"/>
<feBlend mode="normal" in2="BackgroundImageFix" result="effect1_dropShadow_11187_7550"/>
<feBlend mode="normal" in="SourceGraphic" in2="effect1_dropShadow_11187_7550" result="shape"/>
</filter>
<filter id="filter14_d_11187_7550" x="307.812" y="188.902" width="46.0225" height="23.1347" filterUnits="userSpaceOnUse" color-interpolation-filters="sRGB">
<feFlood flood-opacity="0" result="BackgroundImageFix"/>
<feColorMatrix in="SourceAlpha" type="matrix" values="0 0 0 0 0 0 0 0 0 0 0 0 0 0 0 0 0 0 127 0" result="hardAlpha"/>
<feOffset dy="0.509935"/>
<feComposite in2="hardAlpha" operator="out"/>
<feColorMatrix type="matrix" values="0 0 0 0 0 0 0 0 0 0 0 0 0 0 0 0 0 0 0.12 0"/>
<feBlend mode="normal" in2="BackgroundImageFix" result="effect1_dropShadow_11187_7550"/>
<feBlend mode="normal" in="SourceGraphic" in2="effect1_dropShadow_11187_7550" result="shape"/>
</filter>
<filter id="filter15_d_11187_7550" x="285.298" y="198.047" width="34.8095" height="17.6281" filterUnits="userSpaceOnUse" color-interpolation-filters="sRGB">
<feFlood flood-opacity="0" result="BackgroundImageFix"/>
<feColorMatrix in="SourceAlpha" type="matrix" values="0 0 0 0 0 0 0 0 0 0 0 0 0 0 0 0 0 0 127 0" result="hardAlpha"/>
<feOffset dy="0.509935"/>
<feComposite in2="hardAlpha" operator="out"/>
<feColorMatrix type="matrix" values="0 0 0 0 0 0 0 0 0 0 0 0 0 0 0 0 0 0 0.12 0"/>
<feBlend mode="normal" in2="BackgroundImageFix" result="effect1_dropShadow_11187_7550"/>
<feBlend mode="normal" in="SourceGraphic" in2="effect1_dropShadow_11187_7550" result="shape"/>
</filter>
<filter id="filter16_d_11187_7550" x="312.73" y="211.526" width="34.8095" height="17.603" filterUnits="userSpaceOnUse" color-interpolation-filters="sRGB">
<feFlood flood-opacity="0" result="BackgroundImageFix"/>
<feColorMatrix in="SourceAlpha" type="matrix" values="0 0 0 0 0 0 0 0 0 0 0 0 0 0 0 0 0 0 127 0" result="hardAlpha"/>
<feOffset dy="0.509935"/>
<feComposite in2="hardAlpha" operator="out"/>
<feColorMatrix type="matrix" values="0 0 0 0 0 0 0 0 0 0 0 0 0 0 0 0 0 0 0.12 0"/>
<feBlend mode="normal" in2="BackgroundImageFix" result="effect1_dropShadow_11187_7550"/>
<feBlend mode="normal" in="SourceGraphic" in2="effect1_dropShadow_11187_7550" result="shape"/>
</filter>
<filter id="filter17_d_11187_7550" x="340.133" y="224.983" width="34.8096" height="17.6281" filterUnits="userSpaceOnUse" color-interpolation-filters="sRGB">
<feFlood flood-opacity="0" result="BackgroundImageFix"/>
<feColorMatrix in="SourceAlpha" type="matrix" values="0 0 0 0 0 0 0 0 0 0 0 0 0 0 0 0 0 0 127 0" result="hardAlpha"/>
<feOffset dy="0.509935"/>
<feComposite in2="hardAlpha" operator="out"/>
<feColorMatrix type="matrix" values="0 0 0 0 0 0 0 0 0 0 0 0 0 0 0 0 0 0 0.12 0"/>
<feBlend mode="normal" in2="BackgroundImageFix" result="effect1_dropShadow_11187_7550"/>
<feBlend mode="normal" in="SourceGraphic" in2="effect1_dropShadow_11187_7550" result="shape"/>
</filter>
<filter id="filter18_d_11187_7550" x="434.637" y="271.427" width="34.8096" height="17.6281" filterUnits="userSpaceOnUse" color-interpolation-filters="sRGB">
<feFlood flood-opacity="0" result="BackgroundImageFix"/>
<feColorMatrix in="SourceAlpha" type="matrix" values="0 0 0 0 0 0 0 0 0 0 0 0 0 0 0 0 0 0 127 0" result="hardAlpha"/>
<feOffset dy="0.509935"/>
<feComposite in2="hardAlpha" operator="out"/>
<feColorMatrix type="matrix" values="0 0 0 0 0 0 0 0 0 0 0 0 0 0 0 0 0 0 0.12 0"/>
<feBlend mode="normal" in2="BackgroundImageFix" result="effect1_dropShadow_11187_7550"/>
<feBlend mode="normal" in="SourceGraphic" in2="effect1_dropShadow_11187_7550" result="shape"/>
</filter>
<filter id="filter19_d_11187_7550" x="462.01" y="284.883" width="53.8978" height="26.9968" filterUnits="userSpaceOnUse" color-interpolation-filters="sRGB">
<feFlood flood-opacity="0" result="BackgroundImageFix"/>
<feColorMatrix in="SourceAlpha" type="matrix" values="0 0 0 0 0 0 0 0 0 0 0 0 0 0 0 0 0 0 127 0" result="hardAlpha"/>
<feOffset dy="0.509935"/>
<feComposite in2="hardAlpha" operator="out"/>
<feColorMatrix type="matrix" values="0 0 0 0 0 0 0 0 0 0 0 0 0 0 0 0 0 0 0.12 0"/>
<feBlend mode="normal" in2="BackgroundImageFix" result="effect1_dropShadow_11187_7550"/>
<feBlend mode="normal" in="SourceGraphic" in2="effect1_dropShadow_11187_7550" result="shape"/>
</filter>
<filter id="filter20_d_11187_7550" x="367.535" y="238.462" width="74.5669" height="37.1381" filterUnits="userSpaceOnUse" color-interpolation-filters="sRGB">
<feFlood flood-opacity="0" result="BackgroundImageFix"/>
<feColorMatrix in="SourceAlpha" type="matrix" values="0 0 0 0 0 0 0 0 0 0 0 0 0 0 0 0 0 0 127 0" result="hardAlpha"/>
<feOffset dy="0.509935"/>
<feComposite in2="hardAlpha" operator="out"/>
<feColorMatrix type="matrix" values="0 0 0 0 0 0 0 0 0 0 0 0 0 0 0 0 0 0 0.12 0"/>
<feBlend mode="normal" in2="BackgroundImageFix" result="effect1_dropShadow_11187_7550"/>
<feBlend mode="normal" in="SourceGraphic" in2="effect1_dropShadow_11187_7550" result="shape"/>
</filter>
<filter id="filter21_d_11187_7550" x="371.663" y="184.492" width="27.2855" height="13.9152" filterUnits="userSpaceOnUse" color-interpolation-filters="sRGB">
<feFlood flood-opacity="0" result="BackgroundImageFix"/>
<feColorMatrix in="SourceAlpha" type="matrix" values="0 0 0 0 0 0 0 0 0 0 0 0 0 0 0 0 0 0 127 0" result="hardAlpha"/>
<feOffset dy="0.509935"/>
<feComposite in2="hardAlpha" operator="out"/>
<feColorMatrix type="matrix" values="0 0 0 0 0 0 0 0 0 0 0 0 0 0 0 0 0 0 0.12 0"/>
<feBlend mode="normal" in2="BackgroundImageFix" result="effect1_dropShadow_11187_7550"/>
<feBlend mode="normal" in="SourceGraphic" in2="effect1_dropShadow_11187_7550" result="shape"/>
</filter>
<filter id="filter22_d_11187_7550" x="361.387" y="196.951" width="27.2856" height="13.9152" filterUnits="userSpaceOnUse" color-interpolation-filters="sRGB">
<feFlood flood-opacity="0" result="BackgroundImageFix"/>
<feColorMatrix in="SourceAlpha" type="matrix" values="0 0 0 0 0 0 0 0 0 0 0 0 0 0 0 0 0 0 127 0" result="hardAlpha"/>
<feOffset dy="0.509935"/>
<feComposite in2="hardAlpha" operator="out"/>
<feColorMatrix type="matrix" values="0 0 0 0 0 0 0 0 0 0 0 0 0 0 0 0 0 0 0.12 0"/>
<feBlend mode="normal" in2="BackgroundImageFix" result="effect1_dropShadow_11187_7550"/>
<feBlend mode="normal" in="SourceGraphic" in2="effect1_dropShadow_11187_7550" result="shape"/>
</filter>
<filter id="filter23_d_11187_7550" x="350.848" y="209.558" width="27.2856" height="13.9152" filterUnits="userSpaceOnUse" color-interpolation-filters="sRGB">
<feFlood flood-opacity="0" result="BackgroundImageFix"/>
<feColorMatrix in="SourceAlpha" type="matrix" values="0 0 0 0 0 0 0 0 0 0 0 0 0 0 0 0 0 0 127 0" result="hardAlpha"/>
<feOffset dy="0.509935"/>
<feComposite in2="hardAlpha" operator="out"/>
<feColorMatrix type="matrix" values="0 0 0 0 0 0 0 0 0 0 0 0 0 0 0 0 0 0 0.12 0"/>
<feBlend mode="normal" in2="BackgroundImageFix" result="effect1_dropShadow_11187_7550"/>
<feBlend mode="normal" in="SourceGraphic" in2="effect1_dropShadow_11187_7550" result="shape"/>
</filter>
<filter id="filter24_d_11187_7550" x="374.649" y="221.269" width="27.3148" height="13.9152" filterUnits="userSpaceOnUse" color-interpolation-filters="sRGB">
<feFlood flood-opacity="0" result="BackgroundImageFix"/>
<feColorMatrix in="SourceAlpha" type="matrix" values="0 0 0 0 0 0 0 0 0 0 0 0 0 0 0 0 0 0 127 0" result="hardAlpha"/>
<feOffset dy="0.509935"/>
<feComposite in2="hardAlpha" operator="out"/>
<feColorMatrix type="matrix" values="0 0 0 0 0 0 0 0 0 0 0 0 0 0 0 0 0 0 0.12 0"/>
<feBlend mode="normal" in2="BackgroundImageFix" result="effect1_dropShadow_11187_7550"/>
<feBlend mode="normal" in="SourceGraphic" in2="effect1_dropShadow_11187_7550" result="shape"/>
</filter>
<filter id="filter25_d_11187_7550" x="398.451" y="232.955" width="27.3148" height="13.9152" filterUnits="userSpaceOnUse" color-interpolation-filters="sRGB">
<feFlood flood-opacity="0" result="BackgroundImageFix"/>
<feColorMatrix in="SourceAlpha" type="matrix" values="0 0 0 0 0 0 0 0 0 0 0 0 0 0 0 0 0 0 127 0" result="hardAlpha"/>
<feOffset dy="0.509935"/>
<feComposite in2="hardAlpha" operator="out"/>
<feColorMatrix type="matrix" values="0 0 0 0 0 0 0 0 0 0 0 0 0 0 0 0 0 0 0.12 0"/>
<feBlend mode="normal" in2="BackgroundImageFix" result="effect1_dropShadow_11187_7550"/>
<feBlend mode="normal" in="SourceGraphic" in2="effect1_dropShadow_11187_7550" result="shape"/>
</filter>
<filter id="filter26_d_11187_7550" x="422.282" y="244.642" width="27.2856" height="13.9401" filterUnits="userSpaceOnUse" color-interpolation-filters="sRGB">
<feFlood flood-opacity="0" result="BackgroundImageFix"/>
<feColorMatrix in="SourceAlpha" type="matrix" values="0 0 0 0 0 0 0 0 0 0 0 0 0 0 0 0 0 0 127 0" result="hardAlpha"/>
<feOffset dy="0.509935"/>
<feComposite in2="hardAlpha" operator="out"/>
<feColorMatrix type="matrix" values="0 0 0 0 0 0 0 0 0 0 0 0 0 0 0 0 0 0 0.12 0"/>
<feBlend mode="normal" in2="BackgroundImageFix" result="effect1_dropShadow_11187_7550"/>
<feBlend mode="normal" in="SourceGraphic" in2="effect1_dropShadow_11187_7550" result="shape"/>
</filter>
<filter id="filter27_d_11187_7550" x="446.084" y="256.353" width="27.2856" height="13.9152" filterUnits="userSpaceOnUse" color-interpolation-filters="sRGB">
<feFlood flood-opacity="0" result="BackgroundImageFix"/>
<feColorMatrix in="SourceAlpha" type="matrix" values="0 0 0 0 0 0 0 0 0 0 0 0 0 0 0 0 0 0 127 0" result="hardAlpha"/>
<feOffset dy="0.509935"/>
<feComposite in2="hardAlpha" operator="out"/>
<feColorMatrix type="matrix" values="0 0 0 0 0 0 0 0 0 0 0 0 0 0 0 0 0 0 0.12 0"/>
<feBlend mode="normal" in2="BackgroundImageFix" result="effect1_dropShadow_11187_7550"/>
<feBlend mode="normal" in="SourceGraphic" in2="effect1_dropShadow_11187_7550" result="shape"/>
</filter>
<filter id="filter28_d_11187_7550" x="469.885" y="268.039" width="27.2856" height="13.9401" filterUnits="userSpaceOnUse" color-interpolation-filters="sRGB">
<feFlood flood-opacity="0" result="BackgroundImageFix"/>
<feColorMatrix in="SourceAlpha" type="matrix" values="0 0 0 0 0 0 0 0 0 0 0 0 0 0 0 0 0 0 127 0" result="hardAlpha"/>
<feOffset dy="0.509935"/>
<feComposite in2="hardAlpha" operator="out"/>
<feColorMatrix type="matrix" values="0 0 0 0 0 0 0 0 0 0 0 0 0 0 0 0 0 0 0.12 0"/>
<feBlend mode="normal" in2="BackgroundImageFix" result="effect1_dropShadow_11187_7550"/>
<feBlend mode="normal" in="SourceGraphic" in2="effect1_dropShadow_11187_7550" result="shape"/>
</filter>
<filter id="filter29_d_11187_7550" x="493.687" y="279.749" width="41.3382" height="20.8173" filterUnits="userSpaceOnUse" color-interpolation-filters="sRGB">
<feFlood flood-opacity="0" result="BackgroundImageFix"/>
<feColorMatrix in="SourceAlpha" type="matrix" values="0 0 0 0 0 0 0 0 0 0 0 0 0 0 0 0 0 0 127 0" result="hardAlpha"/>
<feOffset dy="0.509935"/>
<feComposite in2="hardAlpha" operator="out"/>
<feColorMatrix type="matrix" values="0 0 0 0 0 0 0 0 0 0 0 0 0 0 0 0 0 0 0.12 0"/>
<feBlend mode="normal" in2="BackgroundImageFix" result="effect1_dropShadow_11187_7550"/>
<feBlend mode="normal" in="SourceGraphic" in2="effect1_dropShadow_11187_7550" result="shape"/>
</filter>
<filter id="filter30_d_11187_7550" x="385.189" y="208.661" width="27.2855" height="13.9152" filterUnits="userSpaceOnUse" color-interpolation-filters="sRGB">
<feFlood flood-opacity="0" result="BackgroundImageFix"/>
<feColorMatrix in="SourceAlpha" type="matrix" values="0 0 0 0 0 0 0 0 0 0 0 0 0 0 0 0 0 0 127 0" result="hardAlpha"/>
<feOffset dy="0.509935"/>
<feComposite in2="hardAlpha" operator="out"/>
<feColorMatrix type="matrix" values="0 0 0 0 0 0 0 0 0 0 0 0 0 0 0 0 0 0 0.12 0"/>
<feBlend mode="normal" in2="BackgroundImageFix" result="effect1_dropShadow_11187_7550"/>
<feBlend mode="normal" in="SourceGraphic" in2="effect1_dropShadow_11187_7550" result="shape"/>
</filter>
<filter id="filter31_d_11187_7550" x="408.991" y="220.347" width="27.3148" height="13.9152" filterUnits="userSpaceOnUse" color-interpolation-filters="sRGB">
<feFlood flood-opacity="0" result="BackgroundImageFix"/>
<feColorMatrix in="SourceAlpha" type="matrix" values="0 0 0 0 0 0 0 0 0 0 0 0 0 0 0 0 0 0 127 0" result="hardAlpha"/>
<feOffset dy="0.509935"/>
<feComposite in2="hardAlpha" operator="out"/>
<feColorMatrix type="matrix" values="0 0 0 0 0 0 0 0 0 0 0 0 0 0 0 0 0 0 0.12 0"/>
<feBlend mode="normal" in2="BackgroundImageFix" result="effect1_dropShadow_11187_7550"/>
<feBlend mode="normal" in="SourceGraphic" in2="effect1_dropShadow_11187_7550" result="shape"/>
</filter>
<filter id="filter32_d_11187_7550" x="432.792" y="232.058" width="27.3149" height="13.9152" filterUnits="userSpaceOnUse" color-interpolation-filters="sRGB">
<feFlood flood-opacity="0" result="BackgroundImageFix"/>
<feColorMatrix in="SourceAlpha" type="matrix" values="0 0 0 0 0 0 0 0 0 0 0 0 0 0 0 0 0 0 127 0" result="hardAlpha"/>
<feOffset dy="0.509935"/>
<feComposite in2="hardAlpha" operator="out"/>
<feColorMatrix type="matrix" values="0 0 0 0 0 0 0 0 0 0 0 0 0 0 0 0 0 0 0.12 0"/>
<feBlend mode="normal" in2="BackgroundImageFix" result="effect1_dropShadow_11187_7550"/>
<feBlend mode="normal" in="SourceGraphic" in2="effect1_dropShadow_11187_7550" result="shape"/>
</filter>
<filter id="filter33_d_11187_7550" x="456.623" y="243.744" width="27.2856" height="13.9152" filterUnits="userSpaceOnUse" color-interpolation-filters="sRGB">
<feFlood flood-opacity="0" result="BackgroundImageFix"/>
<feColorMatrix in="SourceAlpha" type="matrix" values="0 0 0 0 0 0 0 0 0 0 0 0 0 0 0 0 0 0 127 0" result="hardAlpha"/>
<feOffset dy="0.509935"/>
<feComposite in2="hardAlpha" operator="out"/>
<feColorMatrix type="matrix" values="0 0 0 0 0 0 0 0 0 0 0 0 0 0 0 0 0 0 0.12 0"/>
<feBlend mode="normal" in2="BackgroundImageFix" result="effect1_dropShadow_11187_7550"/>
<feBlend mode="normal" in="SourceGraphic" in2="effect1_dropShadow_11187_7550" result="shape"/>
</filter>
<filter id="filter34_d_11187_7550" x="480.425" y="255.455" width="27.2855" height="13.9152" filterUnits="userSpaceOnUse" color-interpolation-filters="sRGB">
<feFlood flood-opacity="0" result="BackgroundImageFix"/>
<feColorMatrix in="SourceAlpha" type="matrix" values="0 0 0 0 0 0 0 0 0 0 0 0 0 0 0 0 0 0 127 0" result="hardAlpha"/>
<feOffset dy="0.509935"/>
<feComposite in2="hardAlpha" operator="out"/>
<feColorMatrix type="matrix" values="0 0 0 0 0 0 0 0 0 0 0 0 0 0 0 0 0 0 0.12 0"/>
<feBlend mode="normal" in2="BackgroundImageFix" result="effect1_dropShadow_11187_7550"/>
<feBlend mode="normal" in="SourceGraphic" in2="effect1_dropShadow_11187_7550" result="shape"/>
</filter>
<filter id="filter35_d_11187_7550" x="504.227" y="267.142" width="48.8915" height="24.53" filterUnits="userSpaceOnUse" color-interpolation-filters="sRGB">
<feFlood flood-opacity="0" result="BackgroundImageFix"/>
<feColorMatrix in="SourceAlpha" type="matrix" values="0 0 0 0 0 0 0 0 0 0 0 0 0 0 0 0 0 0 127 0" result="hardAlpha"/>
<feOffset dy="0.509935"/>
<feComposite in2="hardAlpha" operator="out"/>
<feColorMatrix type="matrix" values="0 0 0 0 0 0 0 0 0 0 0 0 0 0 0 0 0 0 0.12 0"/>
<feBlend mode="normal" in2="BackgroundImageFix" result="effect1_dropShadow_11187_7550"/>
<feBlend mode="normal" in="SourceGraphic" in2="effect1_dropShadow_11187_7550" result="shape"/>
</filter>
<filter id="filter36_d_11187_7550" x="395.465" y="196.178" width="27.2856" height="13.9152" filterUnits="userSpaceOnUse" color-interpolation-filters="sRGB">
<feFlood flood-opacity="0" result="BackgroundImageFix"/>
<feColorMatrix in="SourceAlpha" type="matrix" values="0 0 0 0 0 0 0 0 0 0 0 0 0 0 0 0 0 0 127 0" result="hardAlpha"/>
<feOffset dy="0.509935"/>
<feComposite in2="hardAlpha" operator="out"/>
<feColorMatrix type="matrix" values="0 0 0 0 0 0 0 0 0 0 0 0 0 0 0 0 0 0 0.12 0"/>
<feBlend mode="normal" in2="BackgroundImageFix" result="effect1_dropShadow_11187_7550"/>
<feBlend mode="normal" in="SourceGraphic" in2="effect1_dropShadow_11187_7550" result="shape"/>
</filter>
<filter id="filter37_d_11187_7550" x="419.267" y="207.889" width="27.2856" height="13.9152" filterUnits="userSpaceOnUse" color-interpolation-filters="sRGB">
<feFlood flood-opacity="0" result="BackgroundImageFix"/>
<feColorMatrix in="SourceAlpha" type="matrix" values="0 0 0 0 0 0 0 0 0 0 0 0 0 0 0 0 0 0 127 0" result="hardAlpha"/>
<feOffset dy="0.509935"/>
<feComposite in2="hardAlpha" operator="out"/>
<feColorMatrix type="matrix" values="0 0 0 0 0 0 0 0 0 0 0 0 0 0 0 0 0 0 0.12 0"/>
<feBlend mode="normal" in2="BackgroundImageFix" result="effect1_dropShadow_11187_7550"/>
<feBlend mode="normal" in="SourceGraphic" in2="effect1_dropShadow_11187_7550" result="shape"/>
</filter>
<filter id="filter38_d_11187_7550" x="443.068" y="219.575" width="27.3148" height="13.9152" filterUnits="userSpaceOnUse" color-interpolation-filters="sRGB">
<feFlood flood-opacity="0" result="BackgroundImageFix"/>
<feColorMatrix in="SourceAlpha" type="matrix" values="0 0 0 0 0 0 0 0 0 0 0 0 0 0 0 0 0 0 127 0" result="hardAlpha"/>
<feOffset dy="0.509935"/>
<feComposite in2="hardAlpha" operator="out"/>
<feColorMatrix type="matrix" values="0 0 0 0 0 0 0 0 0 0 0 0 0 0 0 0 0 0 0.12 0"/>
<feBlend mode="normal" in2="BackgroundImageFix" result="effect1_dropShadow_11187_7550"/>
<feBlend mode="normal" in="SourceGraphic" in2="effect1_dropShadow_11187_7550" result="shape"/>
</filter>
<filter id="filter39_d_11187_7550" x="466.87" y="231.286" width="27.3148" height="13.9152" filterUnits="userSpaceOnUse" color-interpolation-filters="sRGB">
<feFlood flood-opacity="0" result="BackgroundImageFix"/>
<feColorMatrix in="SourceAlpha" type="matrix" values="0 0 0 0 0 0 0 0 0 0 0 0 0 0 0 0 0 0 127 0" result="hardAlpha"/>
<feOffset dy="0.509935"/>
<feComposite in2="hardAlpha" operator="out"/>
<feColorMatrix type="matrix" values="0 0 0 0 0 0 0 0 0 0 0 0 0 0 0 0 0 0 0.12 0"/>
<feBlend mode="normal" in2="BackgroundImageFix" result="effect1_dropShadow_11187_7550"/>
<feBlend mode="normal" in="SourceGraphic" in2="effect1_dropShadow_11187_7550" result="shape"/>
</filter>
<filter id="filter40_d_11187_7550" x="490.701" y="242.972" width="27.2856" height="13.9152" filterUnits="userSpaceOnUse" color-interpolation-filters="sRGB">
<feFlood flood-opacity="0" result="BackgroundImageFix"/>
<feColorMatrix in="SourceAlpha" type="matrix" values="0 0 0 0 0 0 0 0 0 0 0 0 0 0 0 0 0 0 127 0" result="hardAlpha"/>
<feOffset dy="0.509935"/>
<feComposite in2="hardAlpha" operator="out"/>
<feColorMatrix type="matrix" values="0 0 0 0 0 0 0 0 0 0 0 0 0 0 0 0 0 0 0.12 0"/>
<feBlend mode="normal" in2="BackgroundImageFix" result="effect1_dropShadow_11187_7550"/>
<feBlend mode="normal" in="SourceGraphic" in2="effect1_dropShadow_11187_7550" result="shape"/>
</filter>
<filter id="filter41_d_11187_7550" x="514.503" y="254.683" width="27.2856" height="13.9152" filterUnits="userSpaceOnUse" color-interpolation-filters="sRGB">
<feFlood flood-opacity="0" result="BackgroundImageFix"/>
<feColorMatrix in="SourceAlpha" type="matrix" values="0 0 0 0 0 0 0 0 0 0 0 0 0 0 0 0 0 0 127 0" result="hardAlpha"/>
<feOffset dy="0.509935"/>
<feComposite in2="hardAlpha" operator="out"/>
<feColorMatrix type="matrix" values="0 0 0 0 0 0 0 0 0 0 0 0 0 0 0 0 0 0 0.12 0"/>
<feBlend mode="normal" in2="BackgroundImageFix" result="effect1_dropShadow_11187_7550"/>
<feBlend mode="normal" in="SourceGraphic" in2="effect1_dropShadow_11187_7550" result="shape"/>
</filter>
<filter id="filter42_d_11187_7550" x="538.304" y="266.368" width="32.6431" height="16.5566" filterUnits="userSpaceOnUse" color-interpolation-filters="sRGB">
<feFlood flood-opacity="0" result="BackgroundImageFix"/>
<feColorMatrix in="SourceAlpha" type="matrix" values="0 0 0 0 0 0 0 0 0 0 0 0 0 0 0 0 0 0 127 0" result="hardAlpha"/>
<feOffset dy="0.509935"/>
<feComposite in2="hardAlpha" operator="out"/>
<feColorMatrix type="matrix" values="0 0 0 0 0 0 0 0 0 0 0 0 0 0 0 0 0 0 0.12 0"/>
<feBlend mode="normal" in2="BackgroundImageFix" result="effect1_dropShadow_11187_7550"/>
<feBlend mode="normal" in="SourceGraphic" in2="effect1_dropShadow_11187_7550" result="shape"/>
</filter>
<linearGradient id="paint0_linear_11187_7550" x1="282.147" y1="390.958" x2="248.977" y2="390.958" gradientUnits="userSpaceOnUse">
<stop stop-color="#B9BFEA"/>
<stop offset="0.25" stop-color="#E5E9FF"/>
<stop offset="0.7" stop-color="#AFB6E5"/>
<stop offset="0.95" stop-color="#B9C0EA"/>
<stop offset="1" stop-color="#BDC3EC"/>
</linearGradient>
<linearGradient id="paint1_linear_11187_7550" x1="260.939" y1="299.436" x2="268.619" y2="444.078" gradientUnits="userSpaceOnUse">
<stop offset="0.02" stop-color="#E5E9FF"/>
<stop offset="0.66" stop-color="#F4F6FF"/>
<stop offset="1" stop-color="white"/>
</linearGradient>
<radialGradient id="paint2_radial_11187_7550" cx="0" cy="0" r="1" gradientUnits="userSpaceOnUse" gradientTransform="translate(239.499 369.568) scale(2.99323 2.9701)">
<stop stop-color="white"/>
<stop offset="1"/>
</radialGradient>
<radialGradient id="paint3_radial_11187_7550" cx="0" cy="0" r="1" gradientUnits="userSpaceOnUse" gradientTransform="translate(307.476 394.751) scale(1.15048 1.1416)">
<stop stop-color="white"/>
<stop offset="1"/>
</radialGradient>
<radialGradient id="paint4_radial_11187_7550" cx="0" cy="0" r="1" gradientUnits="userSpaceOnUse" gradientTransform="translate(266.01 388.027) scale(12.3922 12.2964)">
<stop stop-color="white"/>
<stop offset="1"/>
</radialGradient>
<radialGradient id="paint5_radial_11187_7550" cx="0" cy="0" r="1" gradientUnits="userSpaceOnUse" gradientTransform="translate(292.247 369.654) scale(2.97373 2.95075)">
<stop stop-color="white"/>
<stop offset="1"/>
</radialGradient>
<radialGradient id="paint6_radial_11187_7550" cx="0" cy="0" r="1" gradientUnits="userSpaceOnUse" gradientTransform="translate(313.56 387.272) scale(4.85547 4.81794)">
<stop stop-color="white"/>
<stop offset="1"/>
</radialGradient>
<radialGradient id="paint7_radial_11187_7550" cx="0" cy="0" r="1" gradientUnits="userSpaceOnUse" gradientTransform="translate(218.381 387.108) scale(4.88472 4.84697)">
<stop stop-color="white"/>
<stop offset="1"/>
</radialGradient>
<radialGradient id="paint8_radial_11187_7550" cx="0" cy="0" r="1" gradientUnits="userSpaceOnUse" gradientTransform="translate(266.156 420.311) scale(20.1044 19.949)">
<stop stop-color="white"/>
<stop offset="1"/>
</radialGradient>
<radialGradient id="paint9_radial_11187_7550" cx="0" cy="0" r="1" gradientUnits="userSpaceOnUse" gradientTransform="translate(224.553 394.567) scale(1.17974 1.17062)">
<stop stop-color="white"/>
<stop offset="1"/>
</radialGradient>
<radialGradient id="paint10_radial_11187_7550" cx="0" cy="0" r="1" gradientUnits="userSpaceOnUse" gradientTransform="translate(305.37 407.163) scale(11.0759 10.9903)">
<stop stop-color="white"/>
<stop offset="1"/>
</radialGradient>
<radialGradient id="paint11_radial_11187_7550" cx="0" cy="0" r="1" gradientUnits="userSpaceOnUse" gradientTransform="translate(226.785 407.018) scale(11.1344 11.0484)">
<stop stop-color="white"/>
<stop offset="1"/>
</radialGradient>
<linearGradient id="paint12_linear_11187_7550" x1="231.894" y1="383.886" x2="300.114" y2="383.886" gradientUnits="userSpaceOnUse">
<stop stop-color="#2BE9A3"/>
<stop offset="0.28" stop-color="#07CCBF"/>
<stop offset="0.33" stop-color="#00C7C5"/>
<stop offset="0.4" stop-color="#19C8D3"/>
<stop offset="0.57" stop-color="#50CAF2"/>
<stop offset="0.66" stop-color="#66CCFF"/>
<stop offset="0.99" stop-color="#5277F7"/>
</linearGradient>
<linearGradient id="paint13_linear_11187_7550" x1="92.1301" y1="197.468" x2="92.1301" y2="77" gradientUnits="userSpaceOnUse">
<stop stop-color="#1062FE"/>
<stop offset="1" stop-color="#1062FE" stop-opacity="0"/>
</linearGradient>
<clipPath id="clip0_11187_7550">
<rect width="651" height="560" fill="white"/>
</clipPath>
<clipPath id="clip1_11187_7550">
<rect width="108" height="77" fill="white" transform="translate(212 357)"/>
</clipPath>
<clipPath id="clip2_11187_7550">
<rect width="172" height="263" fill="white" transform="translate(-0.5 69)"/>
</clipPath>
<clipPath id="clip3_11187_7550">
<rect width="237.81" height="158.252" fill="white" transform="matrix(0.866025 0.5 0 1 278.746 93.2424)"/>
</clipPath>
<clipPath id="clip4_11187_7550">
<rect width="173.205" height="125.734" fill="white" transform="matrix(0.866025 0.5 0 1 501.5 326)"/>
</clipPath>
<clipPath id="clip5_11187_7550">
<rect width="35.1325" height="35.1325" fill="white" transform="matrix(0.866025 0.5 0 1 305.18 23.6506)"/>
</clipPath>
</defs>
</svg>
