<?xml version="1.0" encoding="utf-8"?>
<!-- Generator: Adobe Illustrator 16.0.0, SVG Export Plug-In . SVG Version: 6.00 Build 0)  -->
<!DOCTYPE svg PUBLIC "-//W3C//DTD SVG 1.1//EN" "http://www.w3.org/Graphics/SVG/1.1/DTD/svg11.dtd">
<svg version="1.1" id="Layer_1" xmlns="http://www.w3.org/2000/svg" xmlns:xlink="http://www.w3.org/1999/xlink" x="0px" y="0px"
	 width="716.964px" height="685.434px" viewBox="0 0 716.964 685.434" enable-background="new 0 0 716.964 685.434"
	 xml:space="preserve">
<g id="BACKGROUND" display="none">
	
		<linearGradient id="SVGID_1_" gradientUnits="userSpaceOnUse" x1="-634.9502" y1="121.3647" x2="-553.9541" y2="752.8322" gradientTransform="matrix(1 0 0 -1 0 686.4336)">
		<stop  offset="0" style="stop-color:#081639"/>
		<stop  offset="1" style="stop-color:#251669"/>
	</linearGradient>
	<rect x="-963.421" y="-47.688" display="inline" fill="url(#SVGID_1_)" width="750" height="500"/>
	<g display="inline" opacity="0.5" enable-background="new    ">
		<g>
			<defs>
				<rect id="SVGID_2_" x="-963.421" y="-47.688" width="750" height="500"/>
			</defs>
			<clipPath id="SVGID_3_">
				<use xlink:href="#SVGID_2_"  overflow="visible"/>
			</clipPath>
			<path clip-path="url(#SVGID_3_)" fill="#352892" d="M-149.058,97.963l-56.611,56.611c-5.143,5.143-13.479,5.143-18.622,0l0,0
				c-5.143-5.142-5.143-13.479,0-18.622l9.125-9.125c4.011-4.011,4.011-10.514,0-14.525l0,0c-4.011-4.011-10.515-4.011-14.525,0
				l-9.732,9.733c-3.161,3.161-8.286,3.161-11.447,0l0,0c-3.161-3.161-3.161-8.286,0-11.447l40.72-40.72
				c4.382-4.381,4.382-11.484,0-15.865l0,0c-4.381-4.381-11.483-4.381-15.865,0l-9.43,9.43c-3.977,3.977-10.424,3.977-14.4,0l0,0
				c-3.977-3.977-3.977-10.424,0-14.401l8.982-8.983c4.73-4.731,4.73-12.401,0-17.132l0,0c-4.731-4.731-12.401-4.731-17.133,0
				l-40.658,40.658c-5.554,5.554-14.558,5.554-20.111,0l0,0c-5.554-5.554-5.554-14.558,0-20.111l19.987-19.988
				c5.211-5.21,5.211-13.659,0-18.87l0,0c-5.211-5.211-13.659-5.211-18.87,0l-9.188,9.187c-4.662,4.663-12.222,4.663-16.884,0l0,0
				c-4.662-4.663-4.662-12.222,0-16.884l30.242-30.242c4.964-4.964,4.964-13.012,0-17.977l0,0c-4.964-4.964-13.012-4.964-17.977,0
				l-40.348,40.348c-6.623,6.624-17.361,6.624-23.985,0l0,0c-6.623-6.624-6.623-17.362,0-23.985l14.625-14.625
				c6.239-6.239,6.239-16.354,0-22.595l0,0c-6.24-6.24-16.355-6.24-22.596,0L-422.927-53c-6.308,6.308-16.535,6.308-22.843,0l0,0
				c-6.308-6.308-6.308-16.535,0-22.843l70.941-70.942h225.771V97.963L-149.058,97.963z"/>
		</g>
		<g>
			<defs>
				<rect id="SVGID_4_" x="-963.421" y="-47.688" width="750" height="500"/>
			</defs>
			<clipPath id="SVGID_5_">
				<use xlink:href="#SVGID_4_"  overflow="visible"/>
			</clipPath>
			<path clip-path="url(#SVGID_5_)" fill="#4630DD" d="M-261.123,69.66l26.372-26.373c3.439-3.439,9.015-3.439,12.454,0l0,0
				c3.438,3.439,3.438,9.014,0,12.453l-26.373,26.373c-3.439,3.438-9.015,3.438-12.453,0l0,0
				C-264.563,78.674-264.563,73.099-261.123,69.66z"/>
		</g>
		<g>
			<defs>
				<rect id="SVGID_6_" x="-963.421" y="-47.688" width="750" height="500"/>
			</defs>
			<clipPath id="SVGID_7_">
				<use xlink:href="#SVGID_6_"  overflow="visible"/>
			</clipPath>
			<path clip-path="url(#SVGID_7_)" fill="#4630DD" d="M-228.123,197.66l26.372-26.373c3.439-3.439,9.015-3.439,12.454,0l0,0
				c3.438,3.439,3.438,9.014,0,12.453l-26.373,26.373c-3.439,3.438-9.015,3.438-12.453,0l0,0
				C-231.563,206.674-231.563,201.099-228.123,197.66z"/>
		</g>
		<g>
			<defs>
				<rect id="SVGID_8_" x="-963.421" y="-47.688" width="750" height="500"/>
			</defs>
			<clipPath id="SVGID_9_">
				<use xlink:href="#SVGID_8_"  overflow="visible"/>
			</clipPath>
			<path clip-path="url(#SVGID_9_)" fill="#4630DD" d="M-269.06-80.233l10.5-10.5c3.438-3.439,9.015-3.439,12.453,0l0,0
				c3.439,3.438,3.439,9.014,0,12.453l-10.5,10.5c-3.438,3.439-9.015,3.439-12.453,0l0,0
				C-272.499-71.219-272.499-76.794-269.06-80.233z"/>
		</g>
		<g>
			<defs>
				<rect id="SVGID_10_" x="-963.421" y="-47.688" width="750" height="500"/>
			</defs>
			<clipPath id="SVGID_11_">
				<use xlink:href="#SVGID_10_"  overflow="visible"/>
			</clipPath>
			<path clip-path="url(#SVGID_11_)" fill="#431FBF" d="M627.097,96.097l15.344-15.343c5.023-5.024,13.172-5.024,18.195,0l0,0
				c5.025,5.025,5.025,13.172,0,18.197l-15.342,15.342c-5.023,5.025-13.172,5.025-18.197,0l0,0
				C622.072,109.269,622.072,101.122,627.097,96.097z"/>
		</g>
		<g>
			<defs>
				<rect id="SVGID_12_" x="-963.421" y="-47.688" width="750" height="500"/>
			</defs>
			<clipPath id="SVGID_13_">
				<use xlink:href="#SVGID_12_"  overflow="visible"/>
			</clipPath>
			<path clip-path="url(#SVGID_13_)" fill="#431FBF" d="M-455.209-51.569l15.052-15.052c4.93-4.93,12.922-4.93,17.852,0l0,0
				c4.93,4.93,4.93,12.922,0,17.852l-15.052,15.052c-4.93,4.93-12.922,4.93-17.852,0l0,0
				C-460.139-38.647-460.139-46.639-455.209-51.569z"/>
		</g>
		<g>
			<defs>
				<rect id="SVGID_14_" x="-963.421" y="-47.688" width="750" height="500"/>
			</defs>
			<clipPath id="SVGID_15_">
				<use xlink:href="#SVGID_14_"  overflow="visible"/>
			</clipPath>
			<path clip-path="url(#SVGID_15_)" fill="#352892" d="M-345.514,133.968l15.052-15.052c4.93-4.93,12.923-4.93,17.852,0l0,0
				c4.93,4.93,4.93,12.922,0,17.852l-15.051,15.052c-4.93,4.93-12.923,4.93-17.853,0l0,0
				C-350.442,146.89-350.442,138.897-345.514,133.968z"/>
		</g>
		<g>
			<defs>
				<rect id="SVGID_16_" x="-963.421" y="-47.688" width="750" height="500"/>
			</defs>
			<clipPath id="SVGID_17_">
				<use xlink:href="#SVGID_16_"  overflow="visible"/>
			</clipPath>
			<path clip-path="url(#SVGID_17_)" fill="#352892" d="M-550.681-123.006l15.051-15.052c4.93-4.93,12.923-4.93,17.853,0l0,0
				c4.929,4.93,4.929,12.922,0,17.852l-15.052,15.052c-4.93,4.929-12.923,4.929-17.852,0l0,0
				C-555.61-110.083-555.61-118.076-550.681-123.006z"/>
		</g>
		<g>
			<defs>
				<rect id="SVGID_18_" x="-963.421" y="-47.688" width="750" height="500"/>
			</defs>
			<clipPath id="SVGID_19_">
				<use xlink:href="#SVGID_18_"  overflow="visible"/>
			</clipPath>
			<path clip-path="url(#SVGID_19_)" fill="#431FBF" d="M-179.523,147.143l15.052-15.052c4.93-4.93,12.922-4.93,17.852,0l0,0
				c4.93,4.93,4.93,12.922,0,17.852l-15.052,15.052c-4.93,4.93-12.922,4.93-17.852,0l0,0
				C-184.453,160.065-184.453,152.073-179.523,147.143z"/>
		</g>
		<g>
			<defs>
				<rect id="SVGID_20_" x="-963.421" y="-47.688" width="750" height="500"/>
			</defs>
			<clipPath id="SVGID_21_">
				<use xlink:href="#SVGID_20_"  overflow="visible"/>
			</clipPath>
			<path clip-path="url(#SVGID_21_)" fill="#431FBF" d="M-349.894,59.247l3.211-3.211c3.438-3.439,9.015-3.439,12.453,0l0,0
				c3.439,3.438,3.439,9.014,0,12.453l-3.211,3.211c-3.438,3.439-9.015,3.439-12.453,0l0,0
				C-353.333,68.261-353.333,62.686-349.894,59.247z"/>
		</g>
		<g>
			<defs>
				<rect id="SVGID_22_" x="-963.421" y="-47.688" width="750" height="500"/>
			</defs>
			<clipPath id="SVGID_23_">
				<use xlink:href="#SVGID_22_"  overflow="visible"/>
			</clipPath>
			<path clip-path="url(#SVGID_23_)" fill="#4630DD" d="M-449.029-78.321l24.324-24.325c6.2-6.2,16.253-6.2,22.453,0l0,0
				c6.201,6.201,6.201,16.253,0,22.454l-24.324,24.324c-6.2,6.201-16.253,6.201-22.453,0l0,0
				C-455.229-62.068-455.229-72.121-449.029-78.321z"/>
		</g>
		<g>
			<defs>
				<rect id="SVGID_24_" x="-963.421" y="-47.688" width="750" height="500"/>
			</defs>
			<clipPath id="SVGID_25_">
				<use xlink:href="#SVGID_24_"  overflow="visible"/>
			</clipPath>
			<path clip-path="url(#SVGID_25_)" fill="#431FBF" d="M-972.659,267.996l24.941-24.941c5.326-5.326,13.962-5.326,19.288,0l0,0
				c5.326,5.326,5.326,13.962,0,19.288l-31.792,31.791c-4.003,4.004-4.003,10.496,0,14.5l0,0c4.004,4.004,10.496,4.004,14.5,0
				l8.313-8.314c4.481-4.481,11.747-4.481,16.229,0l0,0c4.481,4.481,4.481,11.747,0,16.229l-14.233,14.233
				c-5.583,5.583-5.583,14.636,0,20.219l0,0c5.583,5.584,5.583,14.636,0,20.22l-3.326,3.325c-4.996,4.995-4.996,13.095,0,18.091l0,0
				c4.996,4.995,13.095,4.995,18.091,0l26.338-26.338c5.216-5.217,13.673-5.217,18.889,0l0,0c5.216,5.217,5.216,13.674,0,18.889
				l-5.388,5.388c-6.061,6.062-6.061,15.888,0,21.949l0,0c6.061,6.061,15.888,6.061,21.948,0l25.673-25.673
				c6.795-6.797,17.813-6.797,24.608,0l0,0c6.795,6.795,6.795,17.813,0,24.607l-16.96,16.96c-4.555,4.555-4.555,11.939,0,16.494l0,0
				c4.555,4.556,11.939,4.556,16.495,0l7.848-7.848c6.465-6.466,16.946-6.466,23.411,0l0,0c6.465,6.465,6.465,16.945,0,23.41
				l-32.685,32.687H-972.66L-972.659,267.996L-972.659,267.996z"/>
		</g>
		<g>
			<defs>
				<rect id="SVGID_26_" x="-963.421" y="-47.688" width="750" height="500"/>
			</defs>
			<clipPath id="SVGID_27_">
				<use xlink:href="#SVGID_26_"  overflow="visible"/>
			</clipPath>
			<path clip-path="url(#SVGID_27_)" fill="#4630DD" d="M-868.528,281.366l-21.049,21.049c-2.745,2.744-7.194,2.744-9.939,0l0,0
				c-2.745-2.745-2.745-7.195,0-9.939l21.048-21.049c2.745-2.745,7.195-2.745,9.939,0l0,0
				C-865.784,274.17-865.784,278.621-868.528,281.366z"/>
		</g>
		<g>
			<defs>
				<rect id="SVGID_28_" x="-963.421" y="-47.688" width="750" height="500"/>
			</defs>
			<clipPath id="SVGID_29_">
				<use xlink:href="#SVGID_28_"  overflow="visible"/>
			</clipPath>
			<path clip-path="url(#SVGID_29_)" fill="#352892" d="M-894.487,355.887l-8.38,8.381c-2.745,2.744-7.194,2.744-9.939,0l0,0
				c-2.744-2.744-2.744-7.194,0-9.939l8.381-8.38c2.744-2.745,7.194-2.745,9.939,0l0,0
				C-891.742,348.691-891.742,353.143-894.487,355.887z"/>
		</g>
		<g>
			<defs>
				<rect id="SVGID_30_" x="-963.421" y="-47.688" width="750" height="500"/>
			</defs>
			<clipPath id="SVGID_31_">
				<use xlink:href="#SVGID_30_"  overflow="visible"/>
			</clipPath>
			<path clip-path="url(#SVGID_31_)" fill="#431FBF" d="M-888.889,222.98l-8.38,8.38c-2.745,2.745-7.195,2.745-9.939,0l0,0
				c-2.745-2.744-2.745-7.194,0-9.939l8.38-8.38c2.745-2.745,7.195-2.745,9.939,0l0,0
				C-886.144,215.786-886.144,220.235-888.889,222.98z"/>
		</g>
		<g>
			<defs>
				<rect id="SVGID_32_" x="-963.421" y="-47.688" width="750" height="500"/>
			</defs>
			<clipPath id="SVGID_33_">
				<use xlink:href="#SVGID_32_"  overflow="visible"/>
			</clipPath>
			<path clip-path="url(#SVGID_33_)" fill="#352892" d="M-822.829,304.776l-12.013,12.013c-3.934,3.935-10.313,3.935-14.248,0l0,0
				c-3.935-3.935-3.935-10.313,0-14.247l12.013-12.014c3.935-3.935,10.313-3.935,14.248,0l0,0
				C-818.894,294.462-818.894,300.841-822.829,304.776z"/>
		</g>
		<g>
			<defs>
				<rect id="SVGID_34_" x="-963.421" y="-47.688" width="750" height="500"/>
			</defs>
			<clipPath id="SVGID_35_">
				<use xlink:href="#SVGID_34_"  overflow="visible"/>
			</clipPath>
			<path clip-path="url(#SVGID_35_)" fill="#352892" d="M-696.221,453.43l-12.013,12.014c-3.935,3.935-10.313,3.935-14.248,0l0,0
				c-3.934-3.936-3.934-10.313,0-14.247l12.013-12.015c3.935-3.935,10.313-3.935,14.248,0l0,0
				C-692.287,443.117-692.287,449.496-696.221,453.43z"/>
		</g>
		<g>
			<defs>
				<rect id="SVGID_36_" x="-963.421" y="-47.688" width="750" height="500"/>
			</defs>
			<clipPath id="SVGID_37_">
				<use xlink:href="#SVGID_36_"  overflow="visible"/>
			</clipPath>
			<path clip-path="url(#SVGID_37_)" fill="#431FBF" d="M-947.448,211.428l-12.013,12.014c-3.934,3.935-10.313,3.935-14.248,0l0,0
				c-3.935-3.935-3.935-10.313,0-14.248l12.013-12.013c3.934-3.934,10.313-3.934,14.248,0l0,0
				C-943.513,201.115-943.513,207.495-947.448,211.428z"/>
		</g>
		<g>
			<defs>
				<rect id="SVGID_38_" x="-963.421" y="-47.688" width="750" height="500"/>
			</defs>
			<clipPath id="SVGID_39_">
				<use xlink:href="#SVGID_38_"  overflow="visible"/>
			</clipPath>
			<path clip-path="url(#SVGID_39_)" fill="#431FBF" d="M-865.811,199.901l-2.563,2.563c-2.745,2.744-7.194,2.744-9.939,0l0,0
				c-2.745-2.745-2.745-7.195,0-9.939l2.563-2.563c2.745-2.745,7.194-2.745,9.939,0l0,0
				C-863.066,192.707-863.066,197.157-865.811,199.901z"/>
		</g>
		<g>
			<defs>
				<rect id="SVGID_40_" x="-963.421" y="-47.688" width="750" height="500"/>
			</defs>
			<clipPath id="SVGID_41_">
				<use xlink:href="#SVGID_40_"  overflow="visible"/>
			</clipPath>
			<path clip-path="url(#SVGID_41_)" fill="#4630DD" d="M168.092,628.806l-28.368,28.367c-7.23,7.23-18.955,7.23-26.186,0l0,0
				c-7.231-7.229-7.231-18.954,0-26.184l28.369-28.368c7.23-7.232,18.951-7.232,26.185,0l0,0
				C175.323,609.852,175.323,621.576,168.092,628.806z"/>
		</g>
	</g>
</g>
<g id="OBJECTS">
	<path opacity="0.2" fill="#431FBF" enable-background="new    " d="M126.755,149.636L350.544,20.433
		c23.379-13.5,52.188-13.5,75.567,0l223.787,129.203c23.381,13.5,37.783,38.445,37.783,65.443v258.408
		c0,26.998-14.402,51.944-37.783,65.443L426.111,668.135c-23.381,13.499-52.188,13.499-75.567,0L126.755,538.932
		c-23.381-13.499-37.783-38.445-37.783-65.443V215.08C88.972,188.082,103.374,163.136,126.755,149.636z"/>
	<path opacity="0.2" fill="#431FBF" enable-background="new    " d="M554.365,121.16l110.213,190.894
		c11.514,19.943,11.514,44.518,0,64.461L554.365,567.409c-11.516,19.944-32.795,32.229-55.824,32.229H278.115
		c-23.03,0-44.31-12.284-55.826-32.229L112.077,376.516c-11.516-19.945-11.516-44.52,0-64.462L222.289,121.16
		c11.517-19.944,32.796-32.23,55.826-32.23h220.425C521.57,88.929,542.851,101.216,554.365,121.16z"/>
	<path opacity="0.2" fill="#431FBF" enable-background="new    " d="M200.628,204.609l160.586-92.715
		c16.777-9.687,37.447-9.687,54.227,0l160.586,92.715c16.777,9.686,27.113,27.587,27.113,46.961v185.429
		c0,19.372-10.336,37.275-27.113,46.962l-160.586,92.715c-16.777,9.687-37.447,9.687-54.227,0L200.628,483.96
		c-16.777-9.687-27.114-27.59-27.114-46.962V251.57C173.514,232.196,183.851,214.294,200.628,204.609z"/>
	<path fill="#E7D847" d="M105.172,119.221l15.342-15.342c5.025-5.025,13.172-5.025,18.196,0l0,0c5.025,5.025,5.025,13.171,0,18.196
		l-15.342,15.342c-5.024,5.025-13.171,5.025-18.196,0l0,0C100.146,132.393,100.146,124.246,105.172,119.221z"/>
	<path fill="#E7D847" d="M486.544,590.23l15.342-15.344c5.025-5.023,13.172-5.023,18.197,0l0,0c5.025,5.023,5.025,13.172,0,18.196
		l-15.342,15.343c-5.025,5.025-13.172,5.025-18.197,0l0,0C481.519,603.402,481.519,595.255,486.544,590.23z"/>
	<path fill="#E7D847" d="M570.466,79.972l18.998-18.999c4.016-4.016,10.525-4.016,14.541,0l0,0c4.016,4.016,4.016,10.525,0,14.541
		l-18.998,18.999c-4.016,4.016-10.525,4.016-14.541,0l0,0C566.451,90.498,566.451,83.987,570.466,79.972z"/>
	<path fill="#E7D847" d="M17.163,552.415l15.342-15.345c5.025-5.024,13.172-5.024,18.196,0l0,0c5.025,5.024,5.025,13.172,0,18.197
		l-15.342,15.344c-5.025,5.023-13.171,5.023-18.196,0l0,0C12.136,565.585,12.136,557.438,17.163,552.415z"/>
	<path fill="#F67162" d="M201.465,109.109l36.802-36.802c1.315-1.316,3.451-1.316,4.768,0l0,0c1.316,1.316,1.316,3.451,0,4.768
		l-36.802,36.801c-1.317,1.317-3.452,1.317-4.768,0l0,0C200.149,112.561,200.149,110.426,201.465,109.109z"/>
	<path fill="#F67162" d="M621.019,521.126l9.199-9.198c1.316-1.316,3.451-1.316,4.768,0l0,0c1.316,1.317,1.316,3.451,0,4.769
		l-9.197,9.198c-1.316,1.315-3.451,1.315-4.77,0l0,0C619.703,524.579,619.703,522.444,621.019,521.126z"/>
	<path fill="#E70058" d="M667.259,583.559c4.16,4.16,10.906,4.16,15.066,0c4.16-4.161,4.16-10.907,0-15.067L667.259,583.559z"/>
	<path fill="#E70058" d="M341.806,65.495c0-5.884-4.771-10.654-10.652-10.654c-5.886,0-10.657,4.77-10.657,10.654H341.806z"/>
	<path fill="#E70058" d="M262.21,582.913c-4.161-4.162-10.907-4.162-15.068,0c-4.161,4.16-4.161,10.907,0,15.067L262.21,582.913z"/>
	<polygon fill="#6FA847" points="412.25,117.052 422.47,99.351 432.689,117.052 	"/>
	<polygon fill="#6FA847" points="367.886,629.898 378.107,612.195 388.328,629.898 	"/>
	<circle fill="#8C7EDD" cx="523.853" cy="141.187" r="2.922"/>
	<circle fill="#8C7EDD" cx="355.378" cy="533.301" r="2.922"/>
	<circle fill="#8C7EDD" cx="262.21" cy="120.647" r="2.923"/>
</g>
</svg>
