<svg width="1032" height="888" viewBox="0 0 1032 888" fill="none" xmlns="http://www.w3.org/2000/svg">
<path d="M461.194 630.398L456.42 627.656L622.173 531.945L626.946 534.721L461.194 630.398Z" fill="#DAE0F5"/>
<path d="M435.837 615.772L431.029 612.996L596.782 517.285L601.589 520.061L435.837 615.772Z" fill="#DAE0F5"/>
<path d="M410.446 601.112L405.672 598.336L571.425 502.658L576.198 505.401L410.446 601.112Z" fill="#DAE0F5"/>
<path d="M385.088 586.453L380.315 583.711L546.034 488L550.841 490.776L385.088 586.453Z" fill="#DAE0F5"/>
<path d="M359.697 571.793L354.924 569.051L520.676 473.34L525.45 476.116L359.697 571.793Z" fill="#DAE0F5"/>
<path d="M781.654 671.55L771.091 665.456L791.506 653.674C805.386 645.65 805.386 632.616 791.506 624.626C777.625 616.602 755.044 616.602 741.198 624.626L720.783 636.408L710.221 630.314L730.635 618.532C750.339 607.156 782.365 607.156 802.068 618.532C821.772 629.907 821.772 648.393 802.068 659.768L781.654 671.55Z" fill="white" stroke="#1062FE" stroke-width="0.5" stroke-miterlimit="10"/>
<path d="M800.207 645.448C804.134 638.338 801.29 630.246 791.54 624.626C777.66 616.602 755.079 616.602 741.232 624.626L720.818 636.408V636.747L710.255 642.841L720.818 648.935L741.232 637.153C755.112 629.129 777.693 629.129 791.54 637.153C795.67 639.557 798.548 642.401 800.207 645.448Z" fill="white" stroke="#1062FE" stroke-width="0.5" stroke-miterlimit="10"/>
<path d="M802.069 659.768L781.654 671.55V671.889L771.092 677.983L781.654 684.077L802.069 672.295C811.954 666.573 816.863 659.057 816.83 651.575V639.184C816.83 646.632 811.921 654.08 802.069 659.768Z" fill="white" stroke="#1062FE" stroke-width="0.5" stroke-miterlimit="10"/>
<path d="M687.001 721.679L610.486 677.601C603.051 673.318 603.963 665.797 612.581 660.873L678.856 622.697C687.474 617.739 700.486 617.2 707.921 621.483L784.436 665.561C791.871 669.844 790.959 677.365 782.341 682.288L716.066 720.465C707.448 725.456 694.436 725.996 687.001 721.679Z" fill="white" stroke="#1062FE" stroke-width="0.5" stroke-miterlimit="10"/>
<path d="M789.305 672.7C789.44 676.086 787.003 679.675 782.195 682.451L715.806 720.776C707.174 725.753 694.139 726.294 686.691 721.995L610.044 677.745C606.794 675.849 605.135 673.378 605 670.737V691.761C605 694.504 606.625 697.111 610.011 699.074L686.658 743.324C694.106 747.624 707.14 747.082 715.773 742.105L782.162 703.78C786.901 701.038 789.305 697.517 789.271 694.199L789.305 672.7Z" fill="white" stroke="#1062FE" stroke-width="0.5" stroke-miterlimit="10"/>
<path d="M605.034 670.263L605 670.703C605 670.534 605.034 670.398 605.034 670.263Z" fill="#BBC0E6"/>
<g clip-path="url(#clip0_11190_37816)">
<path d="M813 118.852L811.997 472.141L665.097 557L666.099 203.71L813 118.852Z" fill="#F1F5F9"/>
<path d="M666.099 203.71L665.097 557L458 438.148L459.003 84.8589L666.099 203.71Z" fill="white"/>
<path d="M813 118.852L666.1 203.71L459.003 84.8589L605.904 0L813 118.852Z" fill="#F1F5F9"/>
<path d="M485.515 328.405L507.635 341.283L641.974 418.555V502.802V528.023L485.515 435.726V328.405Z" fill="#1062FE"/>
<g clip-path="url(#clip1_11190_37816)">
<path d="M634.117 423.116L642.081 418.522L641.849 503.038L633.872 507.632L634.117 423.116Z" fill="#B9C0EB"/>
<path d="M499.249 345.877L507.213 341.283L642.081 418.522L634.117 423.116L499.249 345.877Z" fill="white"/>
<path d="M634.118 423.116L633.872 507.632L499.003 430.393L499.249 345.877L634.118 423.116Z" fill="white"/>
<path d="M508.103 253.652C508.103 253.652 508.103 253.6 508.103 253.566C508.103 253.532 508.103 253.515 508.103 253.481C508.103 253.446 508.103 253.412 508.103 253.395C508.103 253.361 508.103 253.327 508.103 253.31C508.103 253.275 508.103 253.241 508.103 253.224C508.103 253.19 508.103 253.156 508.085 253.121C508.085 253.087 508.085 253.053 508.068 253.019C508.068 252.985 508.068 252.95 508.051 252.916C508.051 252.882 508.051 252.865 508.034 252.831C508.034 252.796 508.016 252.762 507.999 252.728C507.999 252.694 507.982 252.66 507.965 252.625C507.965 252.591 507.948 252.557 507.93 252.54C507.93 252.506 507.913 252.489 507.896 252.454C507.896 252.42 507.879 252.403 507.861 252.369C507.861 252.335 507.827 252.318 507.827 252.283C507.827 252.249 507.792 252.215 507.775 252.181C507.758 252.147 507.741 252.112 507.723 252.078C507.706 252.044 507.672 251.993 507.654 251.958V251.924C507.603 251.856 507.568 251.77 507.517 251.702C507.482 251.651 507.448 251.582 507.396 251.531C507.361 251.497 507.344 251.463 507.31 251.428C507.292 251.394 507.258 251.377 507.241 251.343C507.223 251.309 507.189 251.292 507.172 251.257C507.154 251.223 507.12 251.206 507.103 251.172C507.086 251.155 507.068 251.138 507.051 251.103C507.034 251.069 506.999 251.052 506.965 251.035C506.93 251.018 506.913 250.984 506.879 250.967C506.844 250.949 506.827 250.915 506.792 250.898C506.758 250.881 506.741 250.847 506.706 250.83C506.672 250.813 506.655 250.796 506.62 250.761C506.586 250.744 506.568 250.727 506.534 250.71C506.517 250.693 506.482 250.676 506.448 250.659C506.43 250.659 506.396 250.625 506.361 250.607C506.361 250.607 506.361 250.607 506.344 250.607L479.674 235.336C479.674 235.336 479.639 235.318 479.622 235.301C479.605 235.301 479.57 235.267 479.553 235.267C479.536 235.267 479.501 235.25 479.484 235.233C479.467 235.233 479.432 235.216 479.415 235.199C479.398 235.199 479.363 235.182 479.346 235.165C479.329 235.165 479.312 235.165 479.295 235.165C479.277 235.165 479.243 235.165 479.226 235.147C479.208 235.147 479.174 235.147 479.157 235.147C479.122 235.147 479.105 235.147 479.07 235.147C479.053 235.147 479.036 235.147 479.019 235.147C479.019 235.147 479.019 235.147 479.001 235.147C478.967 235.147 478.95 235.147 478.915 235.147C478.881 235.147 478.846 235.147 478.812 235.147C478.777 235.147 478.743 235.147 478.708 235.147C478.708 235.147 478.622 235.165 478.588 235.182C478.536 235.199 478.484 235.216 478.433 235.25L473.571 238.055C473.571 238.055 473.743 237.969 473.847 237.952C473.95 237.935 474.054 237.935 474.157 237.952C474.26 237.952 474.381 237.986 474.502 238.021C474.622 238.055 474.743 238.123 474.881 238.192L501.448 253.412C501.707 253.566 501.948 253.754 502.172 253.994C502.396 254.233 502.586 254.49 502.758 254.78C502.931 255.071 503.051 255.379 503.155 255.67C503.241 255.977 503.293 256.285 503.293 256.576L503.155 305.128C503.155 305.419 503.103 305.658 503.017 305.863C502.931 306.051 502.793 306.205 502.62 306.308L507.482 303.503C507.603 303.435 507.723 303.332 507.81 303.195C507.827 303.161 507.861 303.11 507.879 303.076C507.879 303.041 507.913 303.007 507.913 302.973C507.913 302.939 507.93 302.905 507.948 302.87C507.948 302.836 507.965 302.802 507.965 302.785C507.965 302.751 507.965 302.734 507.982 302.699C507.982 302.665 507.982 302.648 507.982 302.614C507.982 302.58 507.982 302.563 507.982 302.528C507.982 302.494 507.982 302.477 507.982 302.443C507.982 302.409 507.982 302.392 507.982 302.357L508.12 253.788C508.12 253.754 508.12 253.737 508.12 253.703L508.103 253.652Z" fill="white"/>
<path d="M474.706 238.323L501.147 253.471V253.489L501.273 253.561C501.734 253.824 502.171 254.293 502.494 254.842C502.816 255.392 503.009 255.999 503.009 256.525L502.871 305.076V305.076C502.871 305.602 502.683 305.904 502.45 306.034C502.214 306.165 501.846 306.167 501.383 305.903L474.816 290.682L474.816 290.682C474.354 290.418 473.917 289.953 473.595 289.406C473.273 288.859 473.08 288.253 473.08 287.718C473.08 287.718 473.08 287.718 473.08 287.718L473.218 239.167H473.218V239.166C473.218 238.641 473.406 238.333 473.641 238.199C473.877 238.065 474.244 238.059 474.706 238.323C474.706 238.323 474.706 238.323 474.706 238.323Z" fill="#F1F5F9" stroke="#1062FE" stroke-width="0.5"/>
<path d="M556.376 281.236C556.376 281.236 556.376 281.185 556.376 281.151C556.376 281.117 556.376 281.1 556.376 281.065C556.376 281.031 556.376 280.997 556.376 280.98C556.376 280.946 556.376 280.912 556.376 280.894C556.376 280.86 556.376 280.826 556.376 280.809C556.376 280.775 556.376 280.741 556.358 280.706C556.358 280.672 556.358 280.638 556.341 280.604C556.341 280.57 556.341 280.535 556.324 280.501C556.324 280.467 556.324 280.45 556.307 280.416C556.307 280.381 556.289 280.347 556.272 280.313C556.272 280.279 556.255 280.245 556.238 280.21C556.238 280.176 556.221 280.142 556.203 280.125C556.203 280.091 556.186 280.074 556.169 280.039C556.169 280.005 556.152 279.988 556.134 279.954C556.134 279.92 556.1 279.903 556.1 279.868C556.1 279.834 556.065 279.8 556.048 279.766C556.031 279.732 556.014 279.697 555.996 279.663C555.979 279.629 555.945 279.578 555.927 279.543V279.509C555.876 279.441 555.841 279.355 555.79 279.287C555.755 279.236 555.721 279.167 555.669 279.116C555.634 279.082 555.617 279.047 555.583 279.013C555.565 278.979 555.531 278.962 555.514 278.928C555.496 278.894 555.462 278.876 555.445 278.842C555.427 278.808 555.393 278.791 555.376 278.757C555.359 278.74 555.341 278.723 555.324 278.688C555.307 278.654 555.272 278.637 555.238 278.62C555.203 278.603 555.186 278.569 555.152 278.552C555.117 278.534 555.1 278.5 555.065 278.483C555.031 278.466 555.014 278.432 554.979 278.415C554.945 278.398 554.928 278.38 554.893 278.346C554.859 278.329 554.841 278.312 554.807 278.295C554.79 278.278 554.755 278.261 554.721 278.244C554.703 278.244 554.669 278.209 554.634 278.192C554.634 278.192 554.634 278.192 554.617 278.192L528.05 262.972C528.05 262.972 528.016 262.955 527.999 262.938C527.981 262.938 527.947 262.903 527.93 262.903C527.912 262.903 527.878 262.886 527.861 262.869C527.843 262.869 527.809 262.852 527.792 262.835C527.774 262.835 527.74 262.818 527.723 262.801C527.705 262.801 527.688 262.801 527.671 262.801C527.654 262.801 527.619 262.801 527.602 262.784C527.585 262.784 527.55 262.784 527.533 262.784C527.499 262.784 527.481 262.784 527.447 262.784C527.43 262.784 527.412 262.784 527.395 262.784C527.395 262.784 527.395 262.784 527.378 262.784C527.343 262.784 527.326 262.784 527.292 262.784C527.257 262.784 527.223 262.784 527.188 262.784C527.154 262.784 527.119 262.784 527.085 262.784C527.085 262.784 526.999 262.801 526.964 262.818C526.912 262.835 526.861 262.852 526.809 262.886L521.947 265.691C521.947 265.691 522.12 265.605 522.223 265.588C522.327 265.571 522.43 265.571 522.533 265.588C522.637 265.588 522.758 265.623 522.878 265.657C522.999 265.691 523.12 265.759 523.258 265.828L549.824 281.048C550.083 281.202 550.324 281.39 550.549 281.63C550.773 281.869 550.962 282.126 551.135 282.417C551.307 282.707 551.428 283.015 551.531 283.306C551.617 283.614 551.669 283.921 551.669 284.212L551.531 332.764C551.531 333.055 551.48 333.294 551.393 333.499C551.307 333.688 551.169 333.841 550.997 333.944L555.858 331.139C555.979 331.071 556.1 330.968 556.186 330.832C556.203 330.797 556.238 330.746 556.255 330.712C556.255 330.678 556.289 330.643 556.289 330.609C556.289 330.575 556.307 330.541 556.324 330.507C556.324 330.472 556.341 330.438 556.341 330.421C556.341 330.387 556.341 330.37 556.358 330.336C556.358 330.301 556.358 330.284 556.358 330.25C556.358 330.216 556.358 330.199 556.358 330.165C556.358 330.13 556.358 330.113 556.358 330.079C556.358 330.045 556.358 330.028 556.358 329.994L556.496 281.425C556.496 281.39 556.496 281.373 556.496 281.339L556.376 281.236Z" fill="white"/>
<path d="M522.978 265.908L549.419 281.056V281.073L549.545 281.145C550.007 281.409 550.444 281.877 550.766 282.427C551.088 282.977 551.281 283.584 551.281 284.109L551.143 332.66V332.661C551.143 333.186 550.955 333.489 550.722 333.618C550.487 333.749 550.119 333.752 549.656 333.487L523.089 318.267L523.089 318.267C522.626 318.003 522.189 317.538 521.868 316.991C521.546 316.444 521.353 315.838 521.353 315.303C521.353 315.303 521.353 315.303 521.353 315.303L521.49 266.752H521.49V266.751C521.49 266.226 521.679 265.917 521.914 265.784C522.149 265.65 522.517 265.644 522.978 265.908C522.978 265.908 522.978 265.908 522.978 265.908Z" fill="#F1F5F9" stroke="#1062FE" stroke-width="0.5"/>
<path d="M603.303 307.607C603.303 307.607 603.303 307.556 603.303 307.521C603.303 307.487 603.303 307.47 603.303 307.436C603.303 307.402 603.303 307.367 603.303 307.35C603.303 307.316 603.303 307.282 603.303 307.265C603.303 307.231 603.303 307.196 603.303 307.179C603.303 307.145 603.303 307.111 603.286 307.077C603.286 307.042 603.286 307.008 603.268 306.974C603.268 306.94 603.268 306.906 603.251 306.871C603.251 306.837 603.251 306.82 603.234 306.786C603.234 306.752 603.217 306.718 603.2 306.683C603.2 306.649 603.182 306.615 603.165 306.581C603.165 306.547 603.148 306.512 603.131 306.495C603.131 306.461 603.113 306.444 603.096 306.41C603.096 306.376 603.079 306.358 603.062 306.324C603.062 306.29 603.027 306.273 603.027 306.239C603.027 306.205 602.993 306.17 602.975 306.136C602.958 306.102 602.941 306.068 602.924 306.033C602.906 305.999 602.872 305.948 602.855 305.914V305.88C602.803 305.811 602.769 305.726 602.717 305.657C602.682 305.606 602.648 305.538 602.596 305.486C602.562 305.452 602.544 305.418 602.51 305.384C602.493 305.349 602.458 305.332 602.441 305.298C602.424 305.264 602.389 305.247 602.372 305.213C602.355 305.178 602.32 305.161 602.303 305.127C602.286 305.11 602.269 305.093 602.251 305.059C602.234 305.024 602.2 305.007 602.165 304.99C602.131 304.973 602.113 304.939 602.079 304.922C602.044 304.905 602.027 304.871 601.993 304.853C601.958 304.836 601.941 304.802 601.907 304.785C601.872 304.768 601.855 304.751 601.82 304.717C601.786 304.7 601.769 304.682 601.734 304.665C601.717 304.648 601.682 304.631 601.648 304.614C601.631 304.614 601.596 304.58 601.562 304.563C601.562 304.563 601.562 304.563 601.544 304.563L574.978 289.342C574.978 289.342 574.943 289.325 574.926 289.308C574.909 289.308 574.874 289.274 574.857 289.274C574.84 289.274 574.805 289.257 574.788 289.24C574.771 289.24 574.736 289.222 574.719 289.205C574.702 289.205 574.667 289.188 574.65 289.171C574.633 289.171 574.615 289.171 574.598 289.171C574.581 289.171 574.547 289.171 574.529 289.154C574.512 289.154 574.478 289.154 574.46 289.154C574.426 289.154 574.409 289.154 574.374 289.154C574.357 289.154 574.34 289.154 574.322 289.154C574.322 289.154 574.322 289.154 574.305 289.154C574.271 289.154 574.253 289.154 574.219 289.154C574.184 289.154 574.15 289.154 574.115 289.154C574.081 289.154 574.047 289.154 574.012 289.154C574.012 289.154 573.926 289.171 573.891 289.188C573.84 289.205 573.788 289.222 573.736 289.257L568.875 292.061C568.875 292.061 569.047 291.976 569.15 291.959C569.254 291.942 569.357 291.942 569.461 291.959C569.564 291.959 569.685 291.993 569.805 292.027C569.926 292.061 570.047 292.13 570.185 292.198L596.752 307.419C597.01 307.573 597.252 307.761 597.476 308C597.7 308.24 597.89 308.496 598.062 308.787C598.234 309.078 598.355 309.385 598.458 309.676C598.545 309.984 598.596 310.292 598.596 310.583L598.458 359.134C598.458 359.425 598.407 359.665 598.321 359.87C598.234 360.058 598.096 360.212 597.924 360.314L602.786 357.51C602.906 357.441 603.027 357.339 603.113 357.202C603.131 357.168 603.165 357.116 603.182 357.082C603.182 357.048 603.217 357.014 603.217 356.98C603.217 356.945 603.234 356.911 603.251 356.877C603.251 356.843 603.268 356.809 603.268 356.791C603.268 356.757 603.268 356.74 603.286 356.706C603.286 356.672 603.286 356.655 603.286 356.62C603.286 356.586 603.286 356.569 603.286 356.535C603.286 356.501 603.286 356.484 603.286 356.449C603.286 356.415 603.286 356.398 603.286 356.364L603.424 307.795C603.424 307.761 603.424 307.744 603.424 307.709L603.303 307.607Z" fill="white"/>
<path d="M569.888 292.295L596.329 307.444V307.461L596.455 307.533C596.916 307.797 597.353 308.265 597.676 308.815C597.998 309.365 598.191 309.971 598.191 310.497L598.053 359.048V359.049C598.053 359.574 597.865 359.876 597.632 360.006C597.396 360.137 597.028 360.139 596.565 359.875L569.998 344.654L569.998 344.654C569.536 344.39 569.099 343.926 568.777 343.378C568.455 342.831 568.262 342.225 568.262 341.691C568.262 341.691 568.262 341.69 568.262 341.69L568.4 293.139H568.4V293.138C568.4 292.613 568.589 292.305 568.823 292.171C569.059 292.037 569.426 292.031 569.888 292.295C569.888 292.295 569.888 292.295 569.888 292.295Z" fill="#F1F5F9" stroke="#1062FE" stroke-width="0.5"/>
<path d="M656.144 338.271C656.144 338.271 656.144 338.22 656.144 338.186C656.144 338.151 656.144 338.134 656.144 338.1C656.144 338.066 656.144 338.032 656.144 338.015C656.144 337.98 656.144 337.946 656.144 337.929C656.144 337.895 656.144 337.861 656.144 337.844C656.144 337.809 656.144 337.775 656.127 337.741C656.127 337.707 656.127 337.673 656.109 337.638C656.109 337.604 656.109 337.57 656.092 337.536C656.092 337.502 656.092 337.484 656.075 337.45C656.075 337.416 656.058 337.382 656.04 337.348C656.04 337.313 656.023 337.279 656.006 337.245C656.006 337.211 655.989 337.177 655.971 337.16C655.971 337.125 655.954 337.108 655.937 337.074C655.937 337.04 655.92 337.023 655.902 336.989C655.902 336.954 655.868 336.937 655.868 336.903C655.868 336.869 655.833 336.835 655.816 336.8C655.799 336.766 655.782 336.732 655.764 336.698C655.747 336.664 655.713 336.612 655.696 336.578V336.544C655.644 336.475 655.609 336.39 655.558 336.322C655.523 336.27 655.489 336.202 655.437 336.151C655.402 336.116 655.385 336.082 655.351 336.048C655.333 336.014 655.299 335.997 655.282 335.962C655.265 335.928 655.23 335.911 655.213 335.877C655.196 335.843 655.161 335.826 655.144 335.791C655.127 335.774 655.109 335.757 655.092 335.723C655.075 335.689 655.04 335.672 655.006 335.655C654.971 335.637 654.954 335.603 654.92 335.586C654.885 335.569 654.868 335.535 654.834 335.518C654.799 335.501 654.782 335.466 654.747 335.449C654.713 335.432 654.696 335.415 654.661 335.381C654.627 335.364 654.609 335.347 654.575 335.33C654.558 335.313 654.523 335.295 654.489 335.278C654.471 335.278 654.437 335.244 654.403 335.227C654.403 335.227 654.403 335.227 654.385 335.227L627.818 320.006C627.818 320.006 627.784 319.989 627.767 319.972C627.749 319.972 627.715 319.938 627.698 319.938C627.68 319.938 627.646 319.921 627.629 319.904C627.611 319.904 627.577 319.887 627.56 319.87C627.542 319.87 627.508 319.853 627.491 319.835C627.474 319.835 627.456 319.835 627.439 319.835C627.422 319.835 627.387 319.835 627.37 319.818C627.353 319.818 627.318 319.818 627.301 319.818C627.267 319.818 627.249 319.818 627.215 319.818C627.198 319.818 627.18 319.818 627.163 319.818C627.163 319.818 627.163 319.818 627.146 319.818C627.111 319.818 627.094 319.818 627.06 319.818C627.025 319.818 626.991 319.818 626.956 319.818C626.922 319.818 626.887 319.818 626.853 319.818C626.853 319.818 626.767 319.835 626.732 319.853C626.68 319.87 626.629 319.887 626.577 319.921L621.715 322.726C621.715 322.726 621.888 322.64 621.991 322.623C622.095 322.606 622.198 322.606 622.302 322.623C622.405 322.623 622.526 322.657 622.646 322.691C622.767 322.726 622.888 322.794 623.026 322.862L649.593 338.083C649.851 338.237 650.093 338.425 650.317 338.664C650.541 338.904 650.73 339.16 650.903 339.451C651.075 339.742 651.196 340.05 651.299 340.34C651.386 340.648 651.437 340.956 651.437 341.247L651.299 389.799C651.299 390.089 651.248 390.329 651.161 390.534C651.075 390.722 650.937 390.876 650.765 390.979L655.627 388.174C655.747 388.106 655.868 388.003 655.954 387.866C655.971 387.832 656.006 387.781 656.023 387.747C656.023 387.712 656.058 387.678 656.058 387.644C656.058 387.61 656.075 387.576 656.092 387.541C656.092 387.507 656.109 387.473 656.109 387.456C656.109 387.422 656.109 387.404 656.127 387.37C656.127 387.336 656.127 387.319 656.127 387.285C656.127 387.251 656.127 387.233 656.127 387.199C656.127 387.165 656.127 387.148 656.127 387.114C656.127 387.08 656.127 387.062 656.127 387.028L656.264 338.459C656.264 338.425 656.264 338.408 656.264 338.374L656.144 338.271Z" fill="#F1F5F9"/>
<path d="M622.746 322.96L649.187 338.108V338.125L649.313 338.197C649.775 338.461 650.212 338.929 650.534 339.479C650.857 340.029 651.049 340.636 651.049 341.161L650.911 389.712V389.713C650.911 390.238 650.723 390.541 650.49 390.67C650.255 390.801 649.887 390.804 649.424 390.539L622.857 375.319L622.857 375.319C622.394 375.055 621.957 374.59 621.636 374.043C621.314 373.496 621.121 372.89 621.121 372.355C621.121 372.355 621.121 372.355 621.121 372.355L621.259 323.804H621.259V323.803C621.259 323.278 621.447 322.969 621.682 322.836C621.918 322.702 622.285 322.696 622.746 322.96C622.746 322.96 622.746 322.96 622.746 322.96Z" fill="#F1F5F9" stroke="#1062FE" stroke-width="0.5"/>
<g clip-path="url(#clip2_11190_37816)">
<path d="M643.873 361.519C644.765 361.953 645.485 363.041 645.553 364.108C645.622 365.215 644.97 365.709 644.079 365.274C643.222 364.859 642.467 363.673 642.399 362.645C642.33 361.538 642.947 361.104 643.873 361.519Z" fill="#86DA2F"/>
<path d="M633.038 363.693C633.038 362.665 633.724 362.27 634.547 362.744C635.37 363.218 636.158 364.543 636.158 365.531C636.158 366.48 635.472 366.914 634.684 366.499C633.69 365.926 633.038 364.839 633.038 363.693Z" fill="#24C2FF"/>
<path d="M635.472 353.553C635.335 353.553 635.267 353.394 635.232 353.256C633.964 349.797 634.341 346.575 636.569 345.805C637.152 345.587 638.25 346.101 638.73 346.931C638.935 347.247 638.97 347.504 639.004 347.801C639.072 348.433 639.175 349.086 639.518 349.758C639.895 350.489 640.375 350.963 640.924 351.24C641.404 351.517 641.884 351.714 642.193 352.525C642.364 352.979 642.295 354.323 642.021 354.442C641.884 354.481 641.781 354.343 641.678 354.244C640.89 353.434 640.067 352.96 639.244 352.643C638.97 352.525 638.832 352.367 638.832 352.011C638.798 351.398 638.695 350.785 638.421 350.113C637.907 348.75 636.947 348.157 636.329 348.789C635.815 349.283 635.678 350.153 635.541 351.023C635.404 351.774 635.438 352.663 635.472 353.553Z" fill="#FFCB12"/>
<path d="M636.33 354.64C636.261 354.482 636.295 354.383 636.398 354.364C638.353 353.435 641.267 354.719 643.53 358.04C644.113 358.929 644.49 360.293 644.181 360.787C644.044 360.985 643.873 361.005 643.667 360.965C643.187 360.926 642.741 360.906 642.433 361.242C642.124 361.578 642.056 362.131 642.193 362.843C642.296 363.416 642.467 364.068 642.021 364.286C641.781 364.424 640.615 363.989 640.307 363.574C640.17 363.376 640.204 363.278 640.238 363.139C640.341 362.21 640.135 361.183 639.827 360.135C639.724 359.759 639.758 359.621 640.033 359.7C640.513 359.819 640.958 359.799 641.301 359.601C642.056 359.206 641.884 358.04 640.89 356.992C640.101 356.142 639.278 355.747 638.49 355.372C637.735 354.976 637.015 354.798 636.33 354.64Z" fill="#86DA2F"/>
<path d="M635.884 355.411C635.987 355.352 636.056 355.431 636.158 355.569C638.421 358.455 639.587 362.25 638.559 364.701C638.284 365.333 637.393 365.61 636.741 365.037C636.467 364.8 636.33 364.562 636.193 364.286C635.884 363.633 635.541 363.001 635.027 362.507C634.478 361.993 633.998 361.835 633.518 361.874C633.107 361.914 632.695 362.032 632.181 361.38C631.873 361.005 631.358 359.483 631.461 359.147C631.53 359.028 631.667 359.107 631.804 359.186C632.661 359.522 633.347 359.443 633.998 359.186C634.204 359.107 634.376 359.206 634.547 359.582C634.821 360.214 635.164 360.807 635.61 361.341C636.501 362.447 637.358 362.428 637.461 361.301C637.564 360.372 637.256 359.325 636.981 358.297C636.673 357.328 636.296 356.36 635.884 355.411Z" fill="#24C2FF"/>
<path d="M634.786 355.015C634.649 355.727 634.341 356.3 633.929 356.735C632.695 358.158 630.912 358 628.718 356.498C627.929 355.964 627.278 354.837 627.209 354.047C627.175 353.711 627.243 353.513 627.415 353.375C627.655 353.157 627.86 352.96 627.963 352.584C628.169 351.833 627.895 350.963 627.346 350.015C626.592 348.71 626.695 347.979 627.586 347.86C627.689 347.84 627.826 347.84 627.963 347.84C628.169 347.84 628.34 347.939 628.409 348.255C628.718 349.343 629.335 350.37 630.021 351.319C630.261 351.695 630.261 351.853 630.055 352.011C629.643 352.288 629.403 352.782 629.369 353.473C629.3 354.304 629.746 355.114 630.501 355.549C630.981 355.826 631.426 355.885 631.838 355.885C632.901 355.865 633.723 355.43 634.512 354.936C634.615 354.956 634.649 354.897 634.786 355.015Z" fill="#0069DA"/>
<path d="M629.163 343.473C629.232 343.512 629.404 343.651 629.575 343.789C630.844 344.797 631.632 344.738 632.044 343.591C632.318 342.84 632.901 342.9 633.655 343.809C633.689 343.829 633.689 343.868 633.724 343.888C634.512 344.856 634.512 344.935 634.032 345.449C633.621 345.845 633.415 346.438 633.312 347.129C633.244 347.525 633.106 347.525 632.764 347.169C632.215 346.615 631.632 346.279 631.049 346.181C630.398 346.042 630.124 346.556 630.329 347.426C630.604 348.572 631.358 349.442 632.009 350.331C632.661 351.221 633.415 351.932 634.135 352.703C634.238 352.802 634.409 352.901 634.375 353.079C634.341 353.177 634.204 353.098 634.067 353.019C632.524 352.209 631.049 351.082 629.849 349.205C628.718 347.485 627.895 345.706 628.032 343.967C628.135 343.433 628.512 343.216 629.163 343.473Z" fill="#FF4649"/>
<path d="M626.352 352.961C625.529 352.605 624.707 351.34 624.638 350.312C624.569 349.324 625.255 348.77 626.044 349.146C626.935 349.541 627.758 350.727 627.827 351.715C627.861 352.644 627.347 353.455 626.352 352.961Z" fill="#0069DA"/>
<path d="M640.753 347.189C641.61 347.604 642.433 348.869 642.501 349.897C642.57 350.885 641.884 351.399 641.061 351.003C640.17 350.569 639.381 349.363 639.313 348.335C639.244 347.307 639.861 346.754 640.753 347.189Z" fill="#FFCB12"/>
<path d="M631.804 342.781C631.907 343.868 631.29 344.382 630.364 344.007C629.575 343.671 628.752 342.445 628.65 341.516C628.547 340.311 629.095 339.797 630.021 340.212C630.878 340.587 631.701 341.813 631.804 342.781Z" fill="#FF4649"/>
</g>
<g clip-path="url(#clip3_11190_37816)">
<ellipse cx="2.07846" cy="2.07846" rx="2.07846" ry="2.07846" transform="matrix(-0.86719 -0.497978 0 1 626.329 431.736)" fill="#63687A"/>
<ellipse cx="2.07846" cy="2.07846" rx="2.07846" ry="2.07846" transform="matrix(-0.86719 -0.497978 0 1 615.514 425.526)" fill="#63687A"/>
<ellipse cx="2.07846" cy="2.07846" rx="2.07846" ry="2.07846" transform="matrix(-0.86719 -0.497978 0 1 604.7 419.316)" fill="#63687A"/>
<ellipse cx="2.07846" cy="2.07846" rx="2.07846" ry="2.07846" transform="matrix(-0.86719 -0.497978 0 1 593.885 413.106)" fill="#63687A"/>
<ellipse cx="2.07846" cy="2.07846" rx="2.07846" ry="2.07846" transform="matrix(-0.86719 -0.497978 0 1 583.07 406.896)" fill="#63687A"/>
<ellipse cx="2.07846" cy="2.07846" rx="2.07846" ry="2.07846" transform="matrix(-0.86719 -0.497978 0 1 572.256 400.686)" fill="#63687A"/>
<ellipse cx="2.07846" cy="2.07846" rx="2.07846" ry="2.07846" transform="matrix(-0.86719 -0.497978 0 1 561.441 394.476)" fill="#63687A"/>
<ellipse cx="2.07846" cy="2.07846" rx="2.07846" ry="2.07846" transform="matrix(-0.86719 -0.497978 0 1 550.627 388.265)" fill="#63687A"/>
<ellipse cx="2.07846" cy="2.07846" rx="2.07846" ry="2.07846" transform="matrix(-0.86719 -0.497978 0 1 539.812 382.055)" fill="#9598A4"/>
<ellipse cx="2.07846" cy="2.07846" rx="2.07846" ry="2.07846" transform="matrix(-0.86719 -0.497978 0 1 528.998 375.845)" fill="#9598A4"/>
<ellipse cx="2.07846" cy="2.07846" rx="2.07846" ry="2.07846" transform="matrix(-0.86719 -0.497978 0 1 518.184 369.635)" fill="#9598A4"/>
</g>
<g clip-path="url(#clip4_11190_37816)">
<ellipse cx="2.07846" cy="2.07846" rx="2.07846" ry="2.07846" transform="matrix(-0.86719 -0.497978 0 1 626.329 445.12)" fill="#63687A"/>
<ellipse cx="2.07846" cy="2.07846" rx="2.07846" ry="2.07846" transform="matrix(-0.86719 -0.497978 0 1 615.514 438.91)" fill="#63687A"/>
<ellipse cx="2.07846" cy="2.07846" rx="2.07846" ry="2.07846" transform="matrix(-0.86719 -0.497978 0 1 604.7 432.699)" fill="#63687A"/>
<ellipse cx="2.07846" cy="2.07846" rx="2.07846" ry="2.07846" transform="matrix(-0.86719 -0.497978 0 1 593.885 426.49)" fill="#63687A"/>
<ellipse cx="2.07846" cy="2.07846" rx="2.07846" ry="2.07846" transform="matrix(-0.86719 -0.497978 0 1 583.07 420.279)" fill="#63687A"/>
<ellipse cx="2.07846" cy="2.07846" rx="2.07846" ry="2.07846" transform="matrix(-0.86719 -0.497978 0 1 572.256 414.069)" fill="#63687A"/>
<ellipse cx="2.07846" cy="2.07846" rx="2.07846" ry="2.07846" transform="matrix(-0.86719 -0.497978 0 1 561.441 407.859)" fill="#63687A"/>
<ellipse cx="2.07846" cy="2.07846" rx="2.07846" ry="2.07846" transform="matrix(-0.86719 -0.497978 0 1 550.684 401.993)" fill="#63687A"/>
<ellipse cx="2.07846" cy="2.07846" rx="2.07846" ry="2.07846" transform="matrix(-0.86719 -0.497978 0 1 539.812 395.438)" fill="#63687A"/>
<ellipse cx="2.07846" cy="2.07846" rx="2.07846" ry="2.07846" transform="matrix(-0.86719 -0.497978 0 1 528.998 389.228)" fill="#9598A4"/>
<ellipse cx="2.07846" cy="2.07846" rx="2.07846" ry="2.07846" transform="matrix(-0.86719 -0.497978 0 1 518.184 383.018)" fill="#9598A4"/>
</g>
<g clip-path="url(#clip5_11190_37816)">
<ellipse cx="2.07846" cy="2.07846" rx="2.07846" ry="2.07846" transform="matrix(-0.86719 -0.497978 0 1 626.406 458.975)" fill="#63687A"/>
<ellipse cx="2.07846" cy="2.07846" rx="2.07846" ry="2.07846" transform="matrix(-0.86719 -0.497978 0 1 615.591 452.765)" fill="#63687A"/>
<ellipse cx="2.07846" cy="2.07846" rx="2.07846" ry="2.07846" transform="matrix(-0.86719 -0.497978 0 1 604.777 446.555)" fill="#63687A"/>
<ellipse cx="2.07846" cy="2.07846" rx="2.07846" ry="2.07846" transform="matrix(-0.86719 -0.497978 0 1 593.962 440.344)" fill="#63687A"/>
<ellipse cx="2.07846" cy="2.07846" rx="2.07846" ry="2.07846" transform="matrix(-0.86719 -0.497978 0 1 583.147 434.135)" fill="#63687A"/>
<ellipse cx="2.07846" cy="2.07846" rx="2.07846" ry="2.07846" transform="matrix(-0.86719 -0.497978 0 1 572.333 427.924)" fill="#63687A"/>
<ellipse cx="2.07846" cy="2.07846" rx="2.07846" ry="2.07846" transform="matrix(-0.86719 -0.497978 0 1 561.519 421.714)" fill="#63687A"/>
<ellipse cx="2.07846" cy="2.07846" rx="2.07846" ry="2.07846" transform="matrix(-0.86719 -0.497978 0 1 550.704 415.504)" fill="#63687A"/>
<ellipse cx="2.07846" cy="2.07846" rx="2.07846" ry="2.07846" transform="matrix(-0.86719 -0.497978 0 1 539.89 409.294)" fill="#9598A4"/>
<ellipse cx="2.07846" cy="2.07846" rx="2.07846" ry="2.07846" transform="matrix(-0.86719 -0.497978 0 1 529.075 403.083)" fill="#9598A4"/>
<ellipse cx="2.07846" cy="2.07846" rx="2.07846" ry="2.07846" transform="matrix(-0.86719 -0.497978 0 1 518.261 396.874)" fill="#9598A4"/>
</g>
<g clip-path="url(#clip6_11190_37816)">
<ellipse cx="2.07846" cy="2.07846" rx="2.07846" ry="2.07846" transform="matrix(-0.86719 -0.497978 0 1 626.329 471.888)" fill="#9598A4"/>
<ellipse cx="2.07846" cy="2.07846" rx="2.07846" ry="2.07846" transform="matrix(-0.86719 -0.497978 0 1 615.514 465.678)" fill="#9598A4"/>
<ellipse cx="2.07846" cy="2.07846" rx="2.07846" ry="2.07846" transform="matrix(-0.86719 -0.497978 0 1 604.7 459.468)" fill="#9598A4"/>
<ellipse cx="2.07846" cy="2.07846" rx="2.07846" ry="2.07846" transform="matrix(-0.86719 -0.497978 0 1 593.885 453.258)" fill="#63687A"/>
<ellipse cx="2.07846" cy="2.07846" rx="2.07846" ry="2.07846" transform="matrix(-0.86719 -0.497978 0 1 583.07 447.047)" fill="#9598A4"/>
<ellipse cx="2.07846" cy="2.07846" rx="2.07846" ry="2.07846" transform="matrix(-0.86719 -0.497978 0 1 572.256 440.837)" fill="#9598A4"/>
<ellipse cx="2.07846" cy="2.07846" rx="2.07846" ry="2.07846" transform="matrix(-0.86719 -0.497978 0 1 561.441 434.627)" fill="#9598A4"/>
<ellipse cx="2.07846" cy="2.07846" rx="2.07846" ry="2.07846" transform="matrix(-0.86719 -0.497978 0 1 550.627 428.417)" fill="#9598A4"/>
<ellipse cx="2.07846" cy="2.07846" rx="2.07846" ry="2.07846" transform="matrix(-0.86719 -0.497978 0 1 539.812 422.207)" fill="#9598A4"/>
<ellipse cx="2.07846" cy="2.07846" rx="2.07846" ry="2.07846" transform="matrix(-0.86719 -0.497978 0 1 528.998 415.997)" fill="#9598A4"/>
<ellipse cx="2.07846" cy="2.07846" rx="2.07846" ry="2.07846" transform="matrix(-0.86719 -0.497978 0 1 518.184 409.787)" fill="#9598A4"/>
</g>
<g clip-path="url(#clip7_11190_37816)">
<ellipse cx="2.07846" cy="2.07846" rx="2.07846" ry="2.07846" transform="matrix(-0.86719 -0.497978 0 1 626.329 485.272)" fill="#9598A4"/>
<ellipse cx="2.07846" cy="2.07846" rx="2.07846" ry="2.07846" transform="matrix(-0.86719 -0.497978 0 1 615.514 479.062)" fill="#9598A4"/>
<ellipse cx="2.07846" cy="2.07846" rx="2.07846" ry="2.07846" transform="matrix(-0.86719 -0.497978 0 1 604.7 472.852)" fill="#9598A4"/>
<ellipse cx="2.07846" cy="2.07846" rx="2.07846" ry="2.07846" transform="matrix(-0.86719 -0.497978 0 1 593.885 466.642)" fill="#9598A4"/>
<ellipse cx="2.07846" cy="2.07846" rx="2.07846" ry="2.07846" transform="matrix(-0.86719 -0.497978 0 1 583.07 460.431)" fill="#9598A4"/>
<ellipse cx="2.07846" cy="2.07846" rx="2.07846" ry="2.07846" transform="matrix(-0.86719 -0.497978 0 1 572.256 454.221)" fill="#9598A4"/>
<ellipse cx="2.07846" cy="2.07846" rx="2.07846" ry="2.07846" transform="matrix(-0.86719 -0.497978 0 1 561.441 448.011)" fill="#9598A4"/>
<ellipse cx="2.07846" cy="2.07846" rx="2.07846" ry="2.07846" transform="matrix(-0.86719 -0.497978 0 1 550.627 441.801)" fill="#9598A4"/>
<ellipse cx="2.07846" cy="2.07846" rx="2.07846" ry="2.07846" transform="matrix(-0.86719 -0.497978 0 1 539.812 435.591)" fill="#9598A4"/>
<ellipse cx="2.07846" cy="2.07846" rx="2.07846" ry="2.07846" transform="matrix(-0.86719 -0.497978 0 1 528.998 429.38)" fill="#9598A4"/>
<ellipse cx="2.07846" cy="2.07846" rx="2.07846" ry="2.07846" transform="matrix(-0.86719 -0.497978 0 1 518.184 423.17)" fill="#9598A4"/>
</g>
<g clip-path="url(#clip8_11190_37816)">
<path d="M537.052 313.202C543.936 317.17 549.516 313.953 549.516 306.017C549.516 298.081 543.936 288.431 537.052 284.463C530.169 280.495 524.589 283.711 524.589 291.647C524.589 299.584 530.169 309.234 537.052 313.202Z" fill="#F47421"/>
<path d="M537.053 305.802C540.392 307.726 543.098 306.166 543.098 302.317C543.098 298.468 540.392 293.788 537.053 291.863C533.715 289.939 531.008 291.499 531.008 295.348C531.008 299.197 533.715 303.877 537.053 305.802Z" stroke="white" stroke-width="1.95"/>
<path d="M528.578 296.641C529.868 297.385 530.915 296.782 530.915 295.294C530.915 293.806 529.868 291.996 528.578 291.252C527.287 290.508 526.241 291.112 526.241 292.6C526.241 294.088 527.287 295.897 528.578 296.641Z" fill="#F47421"/>
<path d="M541.761 301.547L544.531 303.143L541.761 301.547Z" fill="black"/>
<path d="M541.761 301.547L544.531 303.143" stroke="#F47421" stroke-width="1.49548"/>
<path d="M528.577 295.865C529.496 296.395 530.241 295.965 530.241 294.906C530.241 293.846 529.496 292.558 528.577 292.028C527.659 291.499 526.914 291.928 526.914 292.987C526.914 294.047 527.659 295.335 528.577 295.865Z" fill="white"/>
<path d="M539.267 290.3C538.622 291.217 539.004 293.085 540.122 294.473C541.239 295.861 542.669 296.243 543.314 295.326C543.96 294.409 543.577 292.541 542.46 291.153C541.342 289.765 539.913 289.383 539.267 290.3Z" fill="#F47421"/>
<path d="M534.699 302.177L533.314 304.144L534.699 302.177Z" fill="black"/>
<path d="M534.699 302.177L533.314 304.144" stroke="#F47421" stroke-width="1.49548"/>
<path d="M539.85 291.024C539.39 291.676 539.663 293.007 540.458 293.995C541.254 294.983 542.272 295.255 542.731 294.602C543.191 293.95 542.918 292.619 542.123 291.631C541.327 290.643 540.31 290.371 539.85 291.024Z" fill="white"/>
<path d="M543.314 309.557C542.668 307.896 541.239 306.63 540.122 306.73C539.004 306.83 538.622 308.257 539.267 309.918C539.913 311.579 541.342 312.845 542.459 312.745C543.577 312.646 543.959 311.218 543.314 309.557Z" fill="#F47421"/>
<path d="M534.699 292.774L533.314 289.211L534.699 292.774Z" fill="black"/>
<path d="M534.699 292.774L533.314 289.211" stroke="#F47421" stroke-width="1.49548"/>
<path d="M542.731 309.61C542.272 308.427 541.254 307.526 540.458 307.597C539.663 307.668 539.39 308.684 539.85 309.866C540.31 311.049 541.327 311.95 542.123 311.879C542.918 311.809 543.191 310.792 542.731 309.61Z" fill="white"/>
</g>
<g clip-path="url(#clip9_11190_37816)">
<mask id="mask0_11190_37816" style="mask-type:luminance" maskUnits="userSpaceOnUse" x="567" y="297" width="32" height="53">
<path d="M567.777 297.23L598.178 314.755V349.805L567.777 332.28V297.23Z" fill="white"/>
</mask>
<g mask="url(#mask0_11190_37816)">
<path d="M592.046 323.16C592.846 325.305 593.301 327.498 593.301 329.553C593.301 333.913 591.252 336.538 588.205 336.829L591.335 328.198C591.92 326.85 592.115 325.614 592.115 324.415C592.115 323.98 592.09 323.562 592.046 323.16ZM584.464 318.918C585.081 319.237 585.637 319.482 585.637 319.482C586.189 319.725 586.124 318.752 585.572 318.471C585.572 318.471 583.912 317.664 582.84 317.046C581.833 316.466 580.14 315.34 580.14 315.34C579.588 314.984 579.523 315.92 580.075 316.276C580.075 316.276 580.598 316.652 581.15 317.008L582.747 322.973L580.504 329.436L576.772 314.484C577.389 314.803 577.945 315.048 577.945 315.048C578.496 315.291 578.431 314.317 577.879 314.036C577.879 314.036 576.219 313.23 575.147 312.612C574.955 312.501 574.728 312.365 574.488 312.217C576.32 310.066 579.47 309.763 583.052 311.828C585.72 313.366 588.149 315.943 589.973 318.92C589.929 318.892 589.886 318.86 589.84 318.834C588.833 318.254 588.119 318.853 588.119 319.939C588.119 320.913 588.606 322.018 589.126 323.291C589.516 324.303 589.971 325.576 589.971 327.037C589.971 328.049 589.633 329.028 589.191 330.408L588.168 333.757L584.464 318.918ZM583.052 335.463C582.045 334.883 581.074 334.153 580.156 333.312L583.231 324.782L586.382 336.55C586.403 336.62 586.428 336.688 586.455 336.755C585.39 336.573 584.245 336.151 583.052 335.463ZM572.802 317.736C572.802 316.023 573.121 314.58 573.689 313.438L578.579 331.701C575.159 327.815 572.802 322.414 572.802 317.736ZM583.052 310.501C576.765 306.878 571.651 309.826 571.651 317.073C571.651 324.32 576.765 333.165 583.052 336.789C589.337 340.412 594.452 337.464 594.452 330.216C594.452 322.969 589.337 314.125 583.052 310.501Z" fill="#5DA5FD"/>
</g>
</g>
</g>
<path d="M474.186 140.786C474.186 134.159 478.845 131.46 484.592 134.758L650.799 230.132V292.29C650.799 298.917 646.14 301.616 640.393 298.318L474.186 202.944V140.786Z" fill="#1062FE"/>
<path d="M547.074 194.255C548.622 195.143 549.877 194.419 549.877 192.639C549.877 190.859 548.622 188.697 547.074 187.81C545.526 186.922 544.271 187.646 544.271 189.426C544.271 191.206 545.526 193.368 547.074 194.255Z" fill="#020A19" stroke="#020A19" stroke-width="1.33333"/>
<path d="M562.025 202.842C563.573 203.729 564.828 203.005 564.828 201.225C564.828 199.445 563.573 197.283 562.025 196.396C560.477 195.509 559.222 196.232 559.222 198.012C559.222 199.792 560.477 201.954 562.025 202.842Z" fill="#020A19" stroke="#020A19" stroke-width="1.33333"/>
<path d="M576.978 211.427C578.526 212.314 579.781 211.59 579.781 209.81C579.781 208.03 578.526 205.868 576.978 204.981C575.429 204.094 574.174 204.817 574.174 206.597C574.174 208.377 575.429 210.539 576.978 211.427Z" fill="#020A19" stroke="#020A19" stroke-width="1.33333"/>
<rect width="149.783" height="4.30853" rx="2.15427" transform="matrix(0.86719 0.497872 0 1 497.547 175.471)" fill="#B7D0FF"/>
<rect width="109.913" height="4.30796" rx="2.15398" transform="matrix(0.86719 0.49784 0 1 514.368 193.716)" fill="#B7D0FF"/>
<rect width="63.5771" height="4.30654" rx="2.15327" transform="matrix(0.86719 0.497762 0 1 534.926 214.107)" fill="#B7D0FF"/>
</g>
<path d="M720.154 658.292C711.745 653.36 698.11 653.36 689.668 658.292C687.423 659.618 685.781 661.148 684.743 662.781L693.319 667.814L668.461 682.37L679.081 688.593L693.319 680.261L703.939 674.038L712.516 679.071C715.296 678.459 717.91 677.506 720.154 676.18C728.563 671.215 728.563 663.223 720.154 658.292Z" fill="#70A1FE"/>
<path d="M770.219 447.575C770.219 443.004 773.401 437.486 777.362 435.218C779.224 434.134 780.917 433.999 782.203 434.608V434.574L782.406 434.676L802.516 446.288L792.8 463.995L772.487 452.281C771.099 451.604 770.219 449.945 770.219 447.575Z" fill="white" stroke="#1062FE" stroke-width="0.5" stroke-miterlimit="10"/>
<path d="M804.818 451.062C804.818 446.492 801.636 444.663 797.675 446.932C793.714 449.2 790.532 454.752 790.532 459.289C790.532 463.826 793.714 465.688 797.675 463.42C801.636 461.151 804.818 455.599 804.818 451.062Z" fill="white" stroke="#1062FE" stroke-width="0.5" stroke-miterlimit="10"/>
<path d="M708.738 487.085C708.738 482.514 711.921 476.996 715.882 474.727C717.744 473.644 719.436 473.509 720.723 474.118V474.084L720.926 474.186L741.036 485.798L731.319 503.505L711.007 491.791C709.619 491.114 708.738 489.455 708.738 487.085Z" fill="white" stroke="#1062FE" stroke-width="0.5" stroke-miterlimit="10"/>
<path d="M743.305 490.572C743.305 486.002 740.122 484.174 736.161 486.442C732.2 488.71 729.018 494.263 729.018 498.799C729.018 503.37 732.2 505.198 736.161 502.93C740.122 500.661 743.305 495.109 743.305 490.572Z" fill="white" stroke="#1062FE" stroke-width="0.5" stroke-miterlimit="10"/>
<path d="M566.942 880.211C566.604 880.211 566.232 880.109 565.893 879.94L367.538 765.405C366.557 764.829 366.184 763.543 366.76 762.561C367.335 761.579 368.622 761.207 369.604 761.782L567.958 876.317C568.94 876.893 569.312 878.179 568.737 879.161C568.364 879.804 567.653 880.211 566.942 880.211Z" fill="#1062FE"/>
<path d="M568.344 880.518C567.634 880.518 566.923 880.145 566.55 879.468C565.975 878.486 566.313 877.2 567.329 876.624L1022.88 620.783C1023.86 620.207 1025.14 620.546 1025.72 621.561C1026.3 622.543 1025.96 623.83 1024.94 624.405L569.394 880.247C569.089 880.45 568.717 880.518 568.344 880.518Z" fill="#1062FE"/>
<path d="M959.432 661.918C959.094 661.918 958.721 661.816 958.383 661.647L800.146 570.269C792.935 566.105 788.432 558.318 788.432 549.99V537.7C788.432 531.267 784.979 525.275 779.393 522.058L735.111 496.497C734.129 495.922 733.757 494.635 734.332 493.653C734.908 492.671 736.194 492.299 737.176 492.874L781.458 518.436C788.297 522.397 792.563 529.778 792.563 537.7V549.99C792.563 556.862 796.253 563.227 802.177 566.681L960.414 658.058C961.396 658.634 961.768 659.92 961.193 660.902C960.854 661.545 960.177 661.918 959.432 661.918Z" fill="#1062FE"/>
<path d="M1020.95 622.408C1020.61 622.408 1020.24 622.307 1019.9 622.137L861.661 530.76C854.45 526.596 849.947 518.809 849.947 510.48V498.191C849.947 491.758 846.494 485.765 840.908 482.549L796.626 456.988C795.644 456.412 795.272 455.126 795.848 454.144C796.423 453.162 797.71 452.79 798.691 453.365L842.973 478.927C849.812 482.888 854.078 490.268 854.078 498.191V510.48C854.078 517.353 857.768 523.718 863.692 527.171L1021.93 618.549C1022.91 619.124 1023.28 620.411 1022.71 621.393C1022.37 622.036 1021.66 622.408 1020.95 622.408Z" fill="#1062FE"/>
<path d="M581.635 884.665C584.818 882.836 586.409 880.399 586.409 877.995V865.299C586.409 867.703 584.818 870.14 581.635 871.969C575.304 875.625 565.08 875.625 558.783 871.969C555.669 870.14 554.078 867.771 554.078 865.401V878.097C554.078 880.467 555.635 882.87 558.783 884.665C565.08 888.287 575.304 888.321 581.635 884.665Z" fill="#CFE0FF" stroke="#1062FE" stroke-width="0.5" stroke-miterlimit="10"/>
<path d="M581.634 871.97C587.964 868.313 587.998 862.388 581.701 858.732C575.404 855.075 565.18 855.075 558.849 858.732C552.519 862.388 552.485 868.313 558.782 871.97C565.079 875.626 575.303 875.626 581.634 871.97Z" fill="white" stroke="#1062FE" stroke-width="0.5" stroke-miterlimit="10"/>
<path d="M573.917 867.467C575.948 866.282 575.982 864.386 573.951 863.201C571.919 862.016 568.602 862.016 566.57 863.201C564.539 864.386 564.505 866.282 566.536 867.467C568.568 868.652 571.885 868.652 573.917 867.467Z" fill="#1062FE"/>
<path d="M532.744 758.863C532.744 763.806 529.257 765.804 524.957 763.366L263.802 612.571C259.537 610.1 256.016 604.04 256.016 599.097V402.122C256.016 397.179 259.503 395.182 263.802 397.619L524.957 548.414C529.223 550.886 532.744 556.946 532.744 561.889V758.863Z" fill="white" stroke="#1062FE" stroke-width="0.5" stroke-miterlimit="10"/>
<path d="M530.848 545.029L269.693 394.234C267.526 392.981 265.563 392.88 264.141 393.726L258.555 396.976C259.943 396.299 261.771 396.468 263.802 397.619L524.957 548.414C529.223 550.886 532.744 556.946 532.744 561.889V758.863C532.744 761.301 531.864 763.061 530.476 763.874L536.062 760.624C537.619 759.879 538.635 758.084 538.635 755.478V558.503C538.635 553.56 535.114 547.5 530.848 545.029Z" fill="#CFE0FF" stroke="#1062FE" stroke-width="0.5" stroke-miterlimit="10"/>
<path d="M263.836 406.625V600.519L524.992 751.28V557.386L263.836 406.625Z" fill="white" stroke="#B7D0FF" stroke-width="0.5" stroke-miterlimit="10"/>
<path d="M347.897 869.031C343.631 871.502 336.623 871.502 332.358 869.031L71.2024 718.236C66.9368 715.765 66.9368 711.736 71.2024 709.264L249.21 606.477C253.476 604.006 260.484 604.006 264.75 606.477L525.905 757.272C530.171 759.744 530.171 763.772 525.905 766.244L347.897 869.031Z" fill="white" stroke="#1062FE" stroke-width="0.5" stroke-miterlimit="10"/>
<path d="M265.021 627.874L252.257 620.494L258.622 616.803L271.419 624.184L265.021 627.874Z" fill="#C6DBFF"/>
<path d="M286.519 640.299L273.755 632.919L280.154 629.228L292.917 636.609L286.519 640.299Z" fill="#C6DBFF"/>
<path d="M308.049 652.69L295.286 645.344L301.651 641.653L314.414 649.034L308.049 652.69Z" fill="#C6DBFF"/>
<path d="M329.547 665.115L316.784 657.769L323.183 654.078L335.946 661.425L329.547 665.115Z" fill="#C6DBFF"/>
<path d="M351.045 677.541L338.282 670.161L344.68 666.47L357.444 673.851L351.045 677.541Z" fill="#C6DBFF"/>
<path d="M372.577 689.966L359.814 682.586L366.179 678.895L378.976 686.276L372.577 689.966Z" fill="#C6DBFF"/>
<path d="M394.075 702.391L381.312 695.011L387.71 691.32L400.473 698.701L394.075 702.391Z" fill="#C6DBFF"/>
<path d="M415.607 714.816L402.81 707.436L409.208 703.745L421.971 711.126L415.607 714.816Z" fill="#C6DBFF"/>
<path d="M437.104 727.208L424.341 719.861L430.706 716.171L443.503 723.552L437.104 727.208Z" fill="#C6DBFF"/>
<path d="M458.602 739.633L445.839 732.252L452.237 728.596L465.001 735.943L458.602 739.633Z" fill="#C6DBFF"/>
<path d="M480.133 752.058L467.336 744.677L473.735 740.987L486.498 748.367L480.133 752.058Z" fill="#C6DBFF"/>
<path d="M501.63 764.483L488.867 757.103L495.232 753.412L508.029 760.793L501.63 764.483Z" fill="#C6DBFF"/>
<path d="M253.713 646.157L230.726 632.919L243.523 625.538L266.477 638.81L253.713 646.157Z" fill="#CFE0FF"/>
<path d="M241.831 663.118L210.109 644.802L222.906 637.455L254.594 655.737L241.831 663.118Z" fill="#CFE0FF"/>
<path d="M229.067 680.588L188.611 657.228L201.374 649.847L241.83 673.208L229.067 680.588Z" fill="#CFE0FF"/>
<path d="M185.53 685.531L162.577 672.259L179.876 662.272L202.83 675.544L185.53 685.531Z" fill="#CFE0FF"/>
<path d="M217.252 703.813L194.299 690.575L211.565 680.588L234.552 693.826L217.252 703.813Z" fill="#CFE0FF"/>
<path d="M248.94 722.13L225.986 708.859L243.286 698.871L266.24 712.143L248.94 722.13Z" fill="#CFE0FF"/>
<path d="M358.257 785.237L335.27 771.965L352.569 761.978L375.523 775.249L358.257 785.237Z" fill="#CFE0FF"/>
<path d="M411.95 816.249L366.923 790.247L384.223 780.26L429.25 806.261L411.95 816.249Z" fill="#CFE0FF"/>
<path d="M326.603 766.955L257.675 727.174L274.975 717.187L343.903 756.967L326.603 766.955Z" fill="#CFE0FF"/>
<path d="M281.238 662.07L262.448 651.202L275.211 643.855L294.001 654.689L281.238 662.07Z" fill="#CFE0FF"/>
<path d="M269.354 678.998L250.564 668.164L263.328 660.783L282.117 671.651L269.354 678.998Z" fill="#CFE0FF"/>
<path d="M257.167 696.128L238.377 685.294L251.141 677.914L269.93 688.781L257.167 696.128Z" fill="#CFE0FF"/>
<path d="M284.69 712.04L265.901 701.173L278.664 693.826L297.487 704.66L284.69 712.04Z" fill="#CFE0FF"/>
<path d="M312.214 727.919L293.425 717.085L306.222 709.704L325.011 720.572L312.214 727.919Z" fill="#CFE0FF"/>
<path d="M339.772 743.831L320.983 732.963L333.746 725.583L352.536 736.451L339.772 743.831Z" fill="#CFE0FF"/>
<path d="M367.296 759.71L348.507 748.876L361.27 741.495L380.059 752.363L367.296 759.71Z" fill="#CFE0FF"/>
<path d="M394.82 775.622L376.03 764.754L388.793 757.373L407.583 768.241L394.82 775.622Z" fill="#CFE0FF"/>
<path d="M438.594 800.878L403.554 780.666L416.317 773.286L451.357 793.498L438.594 800.878Z" fill="#CFE0FF"/>
<path d="M296.878 694.909L278.089 684.075L290.852 676.694L309.641 687.528L296.878 694.909Z" fill="#CFE0FF"/>
<path d="M324.402 710.788L305.613 699.954L318.41 692.573L337.199 703.441L324.402 710.788Z" fill="#CFE0FF"/>
<path d="M351.926 726.7L333.137 715.866L345.934 708.486L364.723 719.32L351.926 726.7Z" fill="#CFE0FF"/>
<path d="M379.484 742.578L360.694 731.744L373.458 724.364L392.247 735.231L379.484 742.578Z" fill="#CFE0FF"/>
<path d="M407.008 758.491L388.218 747.623L400.981 740.276L419.771 751.11L407.008 758.491Z" fill="#CFE0FF"/>
<path d="M459.516 788.792L415.742 763.535L428.505 756.155L472.279 781.445L459.516 788.792Z" fill="#CFE0FF"/>
<path d="M308.762 677.947L289.972 667.113L302.735 659.733L321.525 670.6L308.762 677.947Z" fill="#CFE0FF"/>
<path d="M336.286 693.86L317.497 682.992L330.26 675.645L349.049 686.479L336.286 693.86Z" fill="#CFE0FF"/>
<path d="M363.809 709.738L345.02 698.904L357.783 691.523L376.606 702.391L363.809 709.738Z" fill="#CFE0FF"/>
<path d="M391.333 725.65L372.543 714.783L385.341 707.436L404.13 718.27L391.333 725.65Z" fill="#CFE0FF"/>
<path d="M418.89 741.529L400.101 730.695L412.864 723.314L431.653 734.148L418.89 741.529Z" fill="#CFE0FF"/>
<path d="M446.414 757.441L427.625 746.573L440.388 739.226L459.178 750.06L446.414 757.441Z" fill="#CFE0FF"/>
<path d="M480.134 776.908L455.149 762.486L467.912 755.105L492.897 769.528L480.134 776.908Z" fill="#CFE0FF"/>
<path d="M492.322 745.016L285.944 625.877L292.139 622.288L498.517 741.461L492.322 745.016Z" fill="#CFE0FF"/>
<path d="M326.603 782.359L221.282 721.554L155.84 759.337L261.162 820.142L326.603 782.359Z" fill="#CFE0FF"/>
<path d="M525.905 766.244L347.897 869.031C344.512 870.994 339.4 871.4 335.303 870.249C335.27 870.249 332.764 869.268 332.358 869.031L71.203 718.236C70.8983 718.067 70.6275 717.897 70.3905 717.694L70.3566 717.66C70.2889 717.593 70.2212 717.559 70.1535 717.491C70.0181 717.389 69.8489 717.254 69.7134 717.119C69.6457 717.051 69.578 716.983 69.5103 716.915C69.341 716.746 69.2056 716.577 69.0702 716.441C69.0363 716.408 69.0363 716.408 69.0025 716.374L68.9686 716.34C68.7994 716.137 68.6978 715.934 68.5623 715.73C68.2238 715.121 68.0207 714.512 67.9868 713.868V717.626H68.0207C67.9868 719.252 69.0363 720.91 71.203 722.163L332.358 872.958C338.587 876.039 347.491 875.429 350.132 874.854C352.773 874.278 355.176 873.601 357.952 872.992L525.905 776.028C528.072 774.775 529.122 773.116 529.122 771.491V761.775C529.088 763.4 528.004 765.025 525.905 766.244Z" fill="#CFE0FF" stroke="#1062FE" stroke-width="0.5" stroke-miterlimit="10"/>
<path d="M54.4348 503.656L5.06088 475.141C2.34386 473.563 1 471.518 1 469.473C1 467.428 2.34386 465.354 5.06088 463.805L54.4348 435.29C57.1518 433.712 60.716 432.953 64.251 432.953C67.8153 432.953 71.3795 433.741 74.0673 435.29L123.441 463.805C126.158 465.383 127.502 467.428 127.502 469.473C127.502 471.518 126.158 473.593 123.441 475.141L74.0673 503.656C71.3503 505.234 67.7861 505.994 64.251 505.994C60.716 505.994 57.1518 505.205 54.4348 503.656Z" fill="white" stroke="#1062FE" stroke-width="0.5" stroke-miterlimit="10"/>
<path d="M123.721 475.574L123.72 475.575L74.3472 504.089C74.3471 504.089 74.3469 504.089 74.3468 504.089C71.5337 505.723 67.8767 506.494 64.2799 506.494C60.6502 506.494 57.0235 505.692 54.2129 504.06C54.2127 504.06 54.2126 504.06 54.2124 504.06L4.83962 475.545L4.83861 475.545C3.36754 474.691 2.25483 473.684 1.52881 472.591V544.121C1.52881 545.928 2.71677 547.862 5.33726 549.355L5.33975 549.357L54.7135 577.872L54.7146 577.872C57.3355 579.394 60.8068 580.142 64.2799 580.142C67.7796 580.142 71.2521 579.366 73.8461 577.872L123.721 475.574ZM123.721 475.574C125.193 474.72 126.305 473.713 127.031 472.616V544.121C127.031 545.925 125.846 547.832 123.219 549.357C123.219 549.357 123.219 549.357 123.219 549.357L73.8465 577.871L123.721 475.574Z" fill="#F1F5F9" stroke="#1062FE"/>
<path d="M64.2513 462.432L76.4633 469.473L64.2513 476.515L52.0686 469.473L64.2513 462.432Z" fill="#B9C0EB"/>
<path d="M83.9715 473.798L96.1835 480.868L83.9715 487.909L71.7888 480.868L83.9715 473.798Z" fill="#B9C0EB"/>
<path d="M103.721 462.432L115.903 469.473L103.721 476.515L91.5088 469.473L103.721 462.432Z" fill="#B9C0EB"/>
<path d="M64.2513 485.192L76.4633 492.233L64.2513 499.274L52.0686 492.233L64.2513 485.192Z" fill="#B9C0EB"/>
<path d="M44.5304 451.038L56.7423 458.079L44.5304 465.12L32.3477 458.079L44.5304 451.038Z" fill="#B9C0EB"/>
<path d="M83.9715 451.038L96.1835 458.079L83.9715 465.12L71.7888 458.079L83.9715 451.038Z" fill="#B9C0EB"/>
<path d="M64.2513 439.644L76.4633 446.685L64.2513 453.726L52.0686 446.685L64.2513 439.644Z" fill="#B9C0EB"/>
<path d="M24.8106 462.432L37.0226 469.473L24.8106 476.515L12.6279 469.473L24.8106 462.432Z" fill="#B9C0EB"/>
<path d="M44.5304 473.798L56.7423 480.868L44.5304 487.909L32.3477 480.868L44.5304 473.798Z" fill="#B9C0EB"/>
<path d="M863 511.99V617.621C863 620.363 864.794 623.106 868.417 625.205C872.039 627.304 876.779 628.354 881.519 628.354C886.258 628.354 890.998 627.304 894.62 625.205L960.908 586.948C964.53 584.849 966.325 582.106 966.325 579.364V473.699L863 511.99Z" fill="#F9FBFD" stroke="#1062FE" stroke-width="0.5" stroke-miterlimit="10"/>
<path d="M960.94 466.149C957.216 463.983 952.274 462.967 947.399 463.001C942.794 463.069 938.224 464.118 934.737 466.149L868.449 504.407C864.827 506.506 863.033 509.214 863.033 511.957C863.033 514.699 864.827 517.441 868.449 519.507C872.072 521.606 876.812 522.655 881.551 522.655C886.291 522.655 891.031 521.606 894.653 519.507L960.94 481.249C964.563 479.15 966.357 476.408 966.357 473.665C966.391 470.957 964.563 468.215 960.94 466.149Z" fill="white" stroke="#1062FE" stroke-width="0.5" stroke-miterlimit="10"/>
<path d="M895.433 530.781V636.445C895.433 639.188 897.227 641.93 900.849 643.995C904.472 646.094 909.211 647.11 913.951 647.11C918.691 647.11 923.431 646.06 927.053 643.995L993.34 605.738C996.963 603.639 998.791 600.896 998.791 598.154V492.49L895.433 530.781Z" fill="#F9FBFD" stroke="#1062FE" stroke-width="0.5" stroke-miterlimit="10"/>
<path d="M993.374 484.939C989.65 482.772 984.707 481.757 979.832 481.824C975.228 481.892 970.658 482.942 967.171 484.939L900.883 523.23C897.261 525.329 895.432 528.072 895.466 530.78C895.466 533.523 897.261 536.265 900.883 538.364C904.506 540.463 909.245 541.513 913.985 541.513C918.724 541.513 923.464 540.463 927.087 538.364L993.374 500.107C996.997 498.008 998.825 495.265 998.825 492.523C998.825 489.781 996.997 487.038 993.374 484.939Z" fill="white" stroke="#1062FE" stroke-width="0.5" stroke-miterlimit="10"/>
<path d="M927.866 549.571V655.202C927.866 657.944 929.661 660.686 933.283 662.751C936.905 664.851 941.645 665.9 946.385 665.9C951.124 665.9 955.864 664.851 959.486 662.785L1025.77 624.528C1029.4 622.429 1031.19 619.687 1031.19 616.944V511.313L927.866 549.571Z" fill="#F1F5F9" stroke="#1062FE" stroke-width="0.5" stroke-miterlimit="10"/>
<path d="M1025.81 503.729C1022.08 501.563 1017.14 500.547 1012.27 500.615C1007.66 500.682 1003.09 501.732 999.604 503.763L933.316 542.021C929.694 544.12 927.899 546.862 927.899 549.604C927.899 552.347 929.694 555.089 933.316 557.154C936.939 559.253 941.678 560.303 946.418 560.303C951.158 560.303 955.897 559.253 959.52 557.154L1025.81 518.897C1029.43 516.798 1031.22 514.089 1031.22 511.347C1031.22 508.605 1029.43 505.829 1025.81 503.729Z" fill="white" stroke="#1062FE" stroke-width="0.5" stroke-miterlimit="10"/>
<path d="M367.453 375.491L396.873 358.495V323.962L367.453 340.958V375.491Z" fill="#F9FBFD" stroke="#1062FE" stroke-miterlimit="10"/>
<path d="M367.454 375.491L338 358.495V323.962L367.454 340.958V375.491Z" fill="#F9FBFD" stroke="#1062FE" stroke-miterlimit="10"/>
<path d="M367.454 340.958L338 323.962L367.454 307L396.873 323.962L367.454 340.958Z" fill="#F9FBFD" stroke="#1062FE" stroke-miterlimit="10"/>
<path d="M100.637 528.789C97.943 527.947 95.2489 531.483 95.0806 534.513C95.4173 535.692 96.9327 537.544 96.9327 537.544C96.9327 537.544 102.994 544.784 104.51 545.795C106.194 546.805 110.403 548.152 112.255 545.458C112.929 543.437 111.582 542.259 110.403 540.07C108.719 537.376 107.709 534.177 106.362 532.156C105.183 530.641 100.637 528.789 100.637 528.789Z" fill="url(#paint0_linear_11190_37816)"/>
<path d="M105.015 544.953C103.331 543.943 97.1011 536.534 97.1011 536.534C97.1011 536.534 95.7541 534.85 95.249 533.503C95.249 533.84 95.0806 534.177 95.0806 534.514C95.4173 535.692 96.9327 537.544 96.9327 537.544C96.9327 537.544 102.994 544.785 104.51 545.795C106.194 546.805 110.403 548.152 112.255 545.458V545.29C110.235 547.31 106.53 545.963 105.015 544.953Z" fill="#131147"/>
<path d="M107.203 528.957C105.856 528.452 100.973 528.115 100.973 528.115C100.973 528.115 100.805 528.788 100.132 529.125C100.132 529.125 99.9632 529.125 99.9632 529.293C98.7845 529.63 97.4375 530.472 99.2897 532.324C102.826 536.029 108.045 535.018 106.867 533.166C106.193 531.987 106.867 529.967 107.203 528.957Z" fill="white"/>
<path d="M112.592 485.179C112.592 484 111.75 481.98 109.561 480.128C99.6266 471.709 78.5793 465.984 67.1297 456.218C63.9305 458.239 59.5527 462.111 56.3535 464.132C51.9757 482.485 84.8093 484.169 99.2898 490.399C96.5958 502.69 98.6163 518.855 98.6163 530.136C99.6266 532.662 104.678 534.345 107.372 532.156C109.224 519.191 111.75 499.828 112.592 485.179Z" fill="url(#paint1_linear_11190_37816)"/>
<path d="M86.9983 539.06C84.3043 538.218 81.6103 541.754 81.4419 544.785C81.7787 545.963 83.2941 547.815 83.2941 547.815C83.2941 547.815 89.3557 555.056 90.8711 556.066C92.5548 557.076 96.7643 558.423 98.6165 555.729C99.29 553.709 98.1113 552.53 96.7643 550.341C95.0805 547.647 94.0703 544.448 92.7232 542.427C91.5446 540.912 86.9983 539.06 86.9983 539.06Z" fill="url(#paint2_linear_11190_37816)"/>
<path d="M91.3762 555.224C89.6924 554.213 83.4624 546.805 83.4624 546.805C83.4624 546.805 82.1154 545.121 81.6103 543.774C81.6103 544.111 81.4419 544.447 81.4419 544.784C81.7787 545.963 83.2941 547.815 83.2941 547.815C83.2941 547.815 89.3557 555.055 90.8711 556.065C92.5548 557.076 96.7643 558.423 98.6165 555.729V555.56C96.5959 557.581 92.8916 556.234 91.3762 555.224Z" fill="#131147"/>
<path d="M93.5648 539.228C92.2178 538.723 87.3348 538.386 87.3348 538.386C87.3348 538.386 87.1664 539.06 86.4929 539.397C86.4929 539.397 86.3245 539.397 86.3245 539.565C85.1459 539.902 83.7988 540.744 85.651 542.596C89.1869 546.3 94.4066 545.29 93.228 543.438C92.5545 542.091 93.228 540.239 93.5648 539.228Z" fill="white"/>
<path d="M98.9531 495.45C98.9531 494.271 98.1112 492.251 95.9223 490.398C85.988 481.98 67.4664 471.203 56.0167 461.438C52.8176 463.458 48.4397 467.331 45.2406 469.351C40.8627 487.704 71.1707 493.092 85.6512 500.501C82.9572 512.793 84.9777 528.957 84.9777 540.238C85.988 542.764 91.0393 544.448 93.7334 542.259C95.5855 529.462 98.1112 510.099 98.9531 495.45Z" fill="url(#paint3_linear_11190_37816)"/>
<path d="M96.0908 461.101C95.5857 460.764 94.7438 460.764 94.2386 461.101L62.4152 479.454C61.9101 479.791 61.9101 480.296 62.4152 480.633L83.9676 493.092C84.4727 493.429 85.3146 493.429 85.8197 493.092L117.643 474.739C118.148 474.403 118.148 473.897 117.643 473.561L96.0908 461.101Z" fill="white"/>
<path d="M85.9881 490.399L84.4727 491.409L85.1462 491.746L86.6616 490.904L85.9881 490.399Z" fill="#E6EAF5"/>
<path d="M88.514 488.884L86.9985 489.894L87.8404 490.231L89.3559 489.389L88.514 488.884Z" fill="#E6EAF5"/>
<path d="M91.2078 487.368L89.6924 488.378L90.3659 488.715L92.0497 487.873L91.2078 487.368Z" fill="#E6EAF5"/>
<path d="M93.902 485.853L92.2183 486.863L93.0602 487.2L94.5755 486.358L93.902 485.853Z" fill="#E6EAF5"/>
<path d="M96.4275 484.338L94.9121 485.348L95.754 485.685L97.2694 484.843L96.4275 484.338Z" fill="#E6EAF5"/>
<path d="M99.1218 482.822L97.438 483.833L98.2799 484.169L99.7953 483.327L99.1218 482.822Z" fill="#E6EAF5"/>
<path d="M101.647 481.307L100.132 482.317L100.974 482.654L102.489 481.812L101.647 481.307Z" fill="#E6EAF5"/>
<path d="M104.342 479.791L102.826 480.802L103.5 481.138L105.015 480.296L104.342 479.791Z" fill="#E6EAF5"/>
<path d="M106.867 478.276L105.352 479.287L106.193 479.623L107.709 478.781L106.867 478.276Z" fill="#E6EAF5"/>
<path d="M109.561 476.761L108.046 477.771L108.719 478.108L110.403 477.266L109.561 476.761Z" fill="#E6EAF5"/>
<path d="M112.255 475.245L110.571 476.256L111.413 476.592L112.929 475.751L112.255 475.245Z" fill="#E6EAF5"/>
<path d="M114.781 473.73L113.266 474.74L113.939 475.077L115.623 474.235L114.781 473.73Z" fill="#E6EAF5"/>
<path d="M84.6407 488.21L81.7783 489.893L83.2937 490.735L86.1561 489.052L84.6407 488.21Z" fill="#E6EAF5"/>
<path d="M83.1256 486.189L79.2529 488.378L80.7683 489.22L84.641 487.031L83.1256 486.189Z" fill="#E6EAF5"/>
<path d="M81.61 484L76.7271 486.862L78.2424 487.704L83.1254 484.842L81.61 484Z" fill="#E6EAF5"/>
<path d="M76.2219 483.495L73.5278 485.01L75.5484 486.189L78.4108 484.674L76.2219 483.495Z" fill="#E6EAF5"/>
<path d="M80.0947 481.138L77.4006 482.822L79.4211 484L82.2836 482.485L80.0947 481.138Z" fill="#E6EAF5"/>
<path d="M83.9675 478.948L81.2734 480.632L83.294 481.811L86.1564 480.127L83.9675 478.948Z" fill="#E6EAF5"/>
<path d="M97.2693 471.204L94.5752 472.888L96.5957 474.066L99.4582 472.551L97.2693 471.204Z" fill="#E6EAF5"/>
<path d="M103.836 467.499L98.4478 470.698L100.468 471.877L106.025 468.678L103.836 467.499Z" fill="#E6EAF5"/>
<path d="M93.3965 473.561L85.146 478.275L87.1665 479.622L95.5854 474.739L93.3965 473.561Z" fill="#E6EAF5"/>
<path d="M88.0082 486.358L85.6509 487.536L87.1663 488.547L89.5235 487.2L88.0082 486.358Z" fill="#E6EAF5"/>
<path d="M86.493 484.168L84.1357 485.515L85.8195 486.357L88.0084 485.178L86.493 484.168Z" fill="#E6EAF5"/>
<path d="M84.9775 482.148L82.7886 483.495L84.304 484.337L86.4929 482.99L84.9775 482.148Z" fill="#E6EAF5"/>
<path d="M88.3452 480.127L86.1562 481.474L87.6717 482.485L89.8606 481.138L88.3452 480.127Z" fill="#E6EAF5"/>
<path d="M91.7127 478.275L89.3555 479.622L91.0392 480.464L93.2281 479.117L91.7127 478.275Z" fill="#E6EAF5"/>
<path d="M95.0804 476.255L92.7231 477.602L94.4069 478.612L96.5958 477.265L95.0804 476.255Z" fill="#E6EAF5"/>
<path d="M98.4476 474.403L96.0903 475.75L97.7741 476.592L99.963 475.245L98.4476 474.403Z" fill="#E6EAF5"/>
<path d="M101.815 472.382L99.458 473.729L100.973 474.739L103.331 473.392L101.815 472.382Z" fill="#E6EAF5"/>
<path d="M107.035 469.351L102.826 471.877L104.341 472.719L108.719 470.193L107.035 469.351Z" fill="#E6EAF5"/>
<path d="M89.8607 482.316L87.5034 483.663L89.1872 484.505L91.3761 483.158L89.8607 482.316Z" fill="#E6EAF5"/>
<path d="M93.2284 480.296L90.8711 481.643L92.3865 482.485L94.7438 481.306L93.2284 480.296Z" fill="#E6EAF5"/>
<path d="M96.5956 478.443L94.2383 479.79L95.7537 480.632L98.111 479.285L96.5956 478.443Z" fill="#E6EAF5"/>
<path d="M99.9632 476.423L97.606 477.77L99.1213 478.612L101.479 477.433L99.9632 476.423Z" fill="#E6EAF5"/>
<path d="M103.331 474.571L100.974 475.918L102.489 476.76L104.846 475.413L103.331 474.571Z" fill="#E6EAF5"/>
<path d="M109.729 470.866L104.341 473.897L105.857 474.739L111.245 471.708L109.729 470.866Z" fill="#E6EAF5"/>
<path d="M91.3758 484.336L89.0186 485.683L90.5339 486.525L92.8912 485.178L91.3758 484.336Z" fill="#E6EAF5"/>
<path d="M94.5751 482.485L92.3862 483.663L93.9016 484.674L96.2589 483.327L94.5751 482.485Z" fill="#E6EAF5"/>
<path d="M97.9428 480.464L95.7539 481.811L97.2693 482.653L99.6266 481.306L97.9428 480.464Z" fill="#E6EAF5"/>
<path d="M101.31 478.613L99.1216 479.791L100.637 480.801L102.994 479.454L101.31 478.613Z" fill="#E6EAF5"/>
<path d="M104.678 476.591L102.489 477.938L104.004 478.78L106.193 477.433L104.678 476.591Z" fill="#E6EAF5"/>
<path d="M108.045 474.74L105.856 475.918L107.372 476.928L109.561 475.581L108.045 474.74Z" fill="#E6EAF5"/>
<path d="M112.255 472.214L109.056 474.066L110.739 474.908L113.77 473.224L112.255 472.214Z" fill="#E6EAF5"/>
<path d="M113.602 476.255L88.5137 490.735L89.1872 491.072L114.444 476.592L113.602 476.255Z" fill="#423EAD"/>
<path d="M93.3965 471.708L80.5998 479.117L72.686 474.402L85.4828 466.994L93.3965 471.708Z" fill="#E6EAF5"/>
<path d="M62.4151 480.465L83.9675 493.093C84.3042 493.261 84.9777 493.43 85.4829 493.261L85.8196 493.093L117.643 474.74C117.643 474.74 117.643 474.74 117.811 474.74V474.571V475.076C117.811 475.245 117.643 475.413 117.475 475.582L85.6512 493.935C84.8094 494.271 83.7991 494.272 83.4624 494.103C83.1256 494.103 82.7888 493.935 82.4521 493.935L61.91 482.148C61.5732 481.98 61.5732 481.812 61.5732 481.643V480.465C61.91 480.128 62.0784 480.465 62.4151 480.465Z" fill="url(#paint4_linear_11190_37816)"/>
<path d="M95.2488 462.448C97.6061 463.795 102.826 464.468 104.341 465.815C105.857 467.162 106.193 471.035 105.015 472.382C103.836 473.56 102.657 473.56 103.163 472.382C103.836 471.203 103.668 468.846 101.816 468.678C98.2796 468.341 102.657 472.213 101.142 472.213C99.6266 472.213 98.9531 470.193 97.1009 468.846C95.2487 467.499 93.9017 466.994 92.218 465.478C90.7026 463.963 95.2488 462.448 95.2488 462.448Z" fill="#FACFA7"/>
<path d="M72.8545 411.597C82.9572 420.69 82.9572 442.074 83.7991 443.252C84.6409 444.431 89.8607 455.207 95.9223 462.279C95.4171 463.626 92.2179 466.489 92.2179 466.489C88.682 464.636 80.9366 456.723 78.2426 451.84C75.5486 446.957 72.8545 411.597 72.8545 411.597Z" fill="#423EAF"/>
<path d="M44.9037 417.154C48.1029 413.113 55.8482 407.557 61.068 407.22C69.8236 406.546 76.5587 413.787 78.4109 419.68C80.0947 425.405 78.0741 456.386 79.9263 464.132C79.0844 468.173 73.0228 470.362 70.1603 471.035C57.8688 473.729 46.5875 476.423 44.2302 469.015C40.3575 455.713 40.3575 421.7 44.9037 417.154Z" fill="#6B67E9"/>
<path d="M59.8894 395.602C59.5527 392.739 69.3186 398.464 68.9818 402.168C68.6451 405.199 67.8032 407.893 70.834 409.745C71.8443 410.587 75.3802 415.639 69.9921 416.481C63.5937 417.491 57.1954 412.271 54.1646 409.409C57.5321 407.725 60.8997 404.863 59.8894 395.602Z" fill="#FACFA7"/>
<path d="M57.5322 394.086L61.4049 388.53H78.5795V397.117C78.5795 404.357 74.7068 409.24 69.9922 409.24C65.446 409.24 61.0682 405.368 60.8998 399.979L58.8793 399.306L57.5322 394.086Z" fill="#FACFA7"/>
<path d="M69.6552 411.934C65.6141 411.934 60.3944 405.368 60.8995 399.811C61.0679 405.031 65.4457 408.735 69.6552 409.072C69.9919 409.409 70.1603 409.577 70.6655 409.745C70.6655 409.745 70.8338 409.914 71.0022 410.082C71.0022 411.092 70.4971 411.934 69.6552 411.934Z" fill="#F0C19B"/>
<path d="M80.263 472.382C83.9673 474.908 84.8092 473.392 86.8298 474.234C88.8503 475.076 90.534 476.423 91.2075 476.928C91.8811 477.433 89.6921 477.265 88.6819 476.928C90.8708 478.78 91.0392 481.138 90.7024 482.316C90.1973 483.495 87.1665 484.674 86.3246 484C83.2938 481.138 83.7989 479.959 79.7579 478.949C78.2425 478.612 76.2219 476.423 76.2219 476.423L80.263 472.382Z" fill="#FACFA7"/>
<path d="M49.4499 415.807C46.0824 415.302 43.3883 416.817 42.7148 422.374C41.7045 431.466 49.2816 450.493 52.3124 455.376C55.3432 460.259 74.3699 476.423 76.5588 477.433C77.4007 476.086 80.7682 472.214 80.9366 471.877C78.5793 469.183 63.4253 451.503 61.5732 446.62C58.8791 439.548 59.721 417.659 49.4499 415.807Z" fill="url(#paint5_linear_11190_37816)"/>
<path d="M125.557 460.258L94.9117 477.938C94.4066 478.275 94.0698 478.612 93.7331 479.117L85.8193 492.587C85.651 492.755 85.9877 493.092 86.1561 492.924L118.148 474.571C118.485 474.402 118.653 474.234 118.821 473.897L126.23 461.269C126.735 460.427 126.398 459.753 125.557 460.258Z" fill="#362E92"/>
<path d="M85.8197 492.587L93.7334 479.117C94.0702 478.612 94.4069 478.275 94.9121 477.939L125.557 460.259C125.894 460.09 126.23 460.09 126.399 460.259C126.399 460.259 126.23 459.922 125.894 459.754C125.725 459.585 125.557 459.585 125.22 459.754L94.5753 477.433C94.0702 477.77 93.7334 478.107 93.3967 478.612L85.4829 492.082C85.4829 492.251 85.4829 492.251 85.4829 492.419C85.6513 492.587 85.8197 492.756 85.8197 492.756C85.6513 492.756 85.6513 492.587 85.8197 492.587Z" fill="url(#paint6_linear_11190_37816)"/>
<path d="M75.2115 392.739C81.4415 396.275 91.0391 391.561 81.4415 385.668C72.5175 380.111 65.614 378.764 60.5627 384.826C52.9857 393.918 58.3738 405.368 58.8789 404.526C60.8994 401.832 58.8789 397.959 62.2465 397.117C62.0781 395.265 62.4148 390.887 63.9302 394.087C65.4456 397.286 66.6243 392.908 67.2978 391.224C68.1397 389.372 70.3286 390.045 75.2115 392.739Z" fill="url(#paint7_linear_11190_37816)"/>
<path d="M459 256.81L357.884 194.886C353.916 192.456 349.002 192.156 344.768 194.084L143 286" stroke="black" stroke-opacity="0.12"/>
<path d="M96 565L212 627" stroke="black" stroke-opacity="0.12"/>
<rect width="4" height="45" rx="2" transform="matrix(0.866025 -0.5 0 1 956 570)" fill="#FDD1D3"/>
<rect width="4" height="45" rx="2" transform="matrix(0.866025 -0.5 0 1 962.928 566)" fill="#FDD1D3"/>
<rect width="4" height="45" rx="2" transform="matrix(0.866025 -0.5 0 1 969.856 562)" fill="#FDD1D3"/>
<rect width="1.40334" height="45" rx="0.701672" transform="matrix(0.866025 -0.5 0 1 970 561.702)" fill="#1062FE"/>
<rect width="1.40334" height="45" rx="0.701672" transform="matrix(0.866025 -0.5 0 1 963 566.702)" fill="#1062FE"/>
<rect width="1.40334" height="44.5862" rx="0.701672" transform="matrix(0.866025 -0.5 0 1 956 570.115)" fill="#1062FE"/>
<rect width="4" height="45" rx="2" transform="matrix(0.866025 -0.5 0 1 976.785 558)" fill="#CFE0FF"/>
<rect width="1.40334" height="45" rx="0.701672" transform="matrix(0.866025 -0.5 0 1 976.785 558)" fill="#1062FE"/>
<path d="M136.157 375.019L261.177 302.844V93.748L136.157 165.923V375.019Z" fill="#F9FBFD"/>
<path d="M136.157 375.019L11.1772 302.844V93.748L136.157 165.923V375.019Z" fill="#F1F5F9"/>
<path d="M136.157 165.923L11.1772 93.7479L136.157 21.5933L261.177 93.7479L136.157 165.923Z" fill="#F1F5F9"/>
<path d="M245.598 168.599L151.735 222.808V187.019L245.598 132.831V168.599Z" fill="white" stroke="#1062FE" stroke-width="0.416174" stroke-miterlimit="10"/>
<path d="M158.423 190.991L198.656 167.756V175.185L158.423 198.4V190.991Z" fill="#1062FE"/>
<path d="M159.267 203.73L199.5 180.495V187.925L159.267 211.16V203.73Z" fill="#1062FE"/>
<path d="M205.818 166.562C205.818 164.936 206.95 162.96 208.37 162.158C209.769 161.355 210.922 162.014 210.922 163.619C210.922 165.245 209.79 167.221 208.37 168.023C206.97 168.826 205.818 168.167 205.818 166.562Z" fill="#B7D0FF"/>
<path d="M216.622 160.326C216.622 158.7 217.754 156.724 219.174 155.922C220.573 155.119 221.726 155.778 221.726 157.383C221.726 159.009 220.594 160.985 219.174 161.787C217.754 162.61 216.622 161.952 216.622 160.326Z" fill="#1062FE"/>
<path d="M227.406 154.091C227.406 152.465 228.538 150.489 229.958 149.686C231.357 148.884 232.51 149.542 232.51 151.148C232.51 152.773 231.378 154.749 229.958 155.552C228.538 156.375 227.406 155.716 227.406 154.091Z" fill="#B7D0FF"/>
<path d="M210.14 189.2L207.588 190.661V172.777L210.14 171.316V189.2Z" fill="#1062FE"/>
<path opacity="0.2" d="M220.923 182.965L218.372 184.446V166.562L220.923 165.08V182.965Z" fill="#1062FE"/>
<path d="M231.707 176.749L229.176 178.21V160.326L231.707 158.865V176.749Z" fill="#1062FE"/>
<path d="M245.598 215.069L151.735 269.277V233.509L245.598 179.3V215.069Z" fill="white" stroke="#1062FE" stroke-width="0.416174" stroke-miterlimit="10"/>
<path d="M245.598 261.56L151.735 315.748V279.98L245.598 225.771V261.56Z" fill="white" stroke="#1062FE" stroke-width="0.416174" stroke-miterlimit="10"/>
<path d="M161.634 235.032L201.867 211.797V219.226L161.634 242.441V235.032Z" fill="#1062FE"/>
<path d="M162.478 247.771L202.711 224.536V231.965L162.478 255.2V247.771Z" fill="#1062FE"/>
<path d="M209.029 210.603C209.029 208.977 210.161 207.002 211.581 206.199C212.98 205.396 214.133 206.055 214.133 207.66C214.133 209.286 213.001 211.262 211.581 212.065C210.181 212.867 209.029 212.209 209.029 210.603Z" fill="#1062FE"/>
<path d="M219.833 204.368C219.833 202.742 220.965 200.766 222.385 199.964C223.784 199.161 224.937 199.82 224.937 201.425C224.937 203.051 223.805 205.027 222.385 205.829C220.965 206.652 219.833 205.994 219.833 204.368Z" fill="#B7D0FF"/>
<path d="M230.616 198.131C230.616 196.505 231.748 194.53 233.168 193.727C234.567 192.924 235.72 193.583 235.72 195.188C235.72 196.814 234.588 198.79 233.168 199.592C231.748 200.416 230.616 199.757 230.616 198.131Z" fill="#B7D0FF"/>
<path d="M213.35 233.242L210.798 234.703V216.819L213.35 215.357V233.242Z" fill="#1062FE"/>
<path d="M224.133 227.006L221.582 228.488V210.604L224.133 209.122V227.006Z" fill="#E7EFFF"/>
<path d="M234.918 220.791L232.366 222.252V204.368L234.918 202.907V220.791Z" fill="#E7EFFF"/>
<path d="M162.478 281.503L202.711 258.268V265.697L162.478 288.932V281.503Z" fill="#1062FE"/>
<path d="M163.301 294.242L203.534 271.006V278.436L163.301 301.671V294.242Z" fill="#1062FE"/>
<path d="M209.872 257.074C209.872 255.448 211.004 253.472 212.424 252.669C213.823 251.867 214.976 252.525 214.976 254.131C214.976 255.756 213.844 257.732 212.424 258.535C211.004 259.358 209.872 258.699 209.872 257.074Z" fill="#FCACAF"/>
<path d="M220.656 250.838C220.656 249.212 221.788 247.237 223.208 246.434C224.608 245.631 225.76 246.29 225.76 247.895C225.76 249.521 224.628 251.497 223.208 252.299C221.788 253.123 220.656 252.464 220.656 250.838Z" fill="#D3363C"/>
<path d="M231.439 244.623C231.439 242.997 232.571 241.022 233.991 240.219C235.391 239.416 236.543 240.075 236.543 241.68C236.543 243.306 235.411 245.282 233.991 246.085C232.592 246.887 231.439 246.229 231.439 244.623Z" fill="#FCACAF"/>
<path d="M214.174 279.712L211.643 281.194V263.309L214.174 261.828V279.712Z" fill="#FEECED"/>
<path d="M224.957 273.497L222.426 274.958V257.073L224.957 255.612V273.497Z" fill="#D3363C"/>
<path d="M235.762 267.261L233.21 268.722V250.838L235.762 249.377V267.261Z" fill="#D3363C"/>
<defs>
<linearGradient id="paint0_linear_11190_37816" x1="98.1355" y1="540.514" x2="108.782" y2="536.202" gradientUnits="userSpaceOnUse">
<stop stop-color="#20196F"/>
<stop offset="0.5268" stop-color="#312B8E"/>
<stop offset="1" stop-color="#423EAD"/>
</linearGradient>
<linearGradient id="paint1_linear_11190_37816" x1="55.927" y1="494.572" x2="112.598" y2="494.572" gradientUnits="userSpaceOnUse">
<stop stop-color="#20196F"/>
<stop offset="0.2333" stop-color="#231C74"/>
<stop offset="0.5147" stop-color="#2B2583"/>
<stop offset="0.8196" stop-color="#38339B"/>
<stop offset="1" stop-color="#423EAD"/>
</linearGradient>
<linearGradient id="paint2_linear_11190_37816" x1="84.5022" y1="550.751" x2="95.1477" y2="546.439" gradientUnits="userSpaceOnUse">
<stop stop-color="#20196F"/>
<stop offset="0.5268" stop-color="#312B8E"/>
<stop offset="1" stop-color="#423EAD"/>
</linearGradient>
<linearGradient id="paint3_linear_11190_37816" x1="44.7612" y1="502.316" x2="98.9637" y2="502.316" gradientUnits="userSpaceOnUse">
<stop stop-color="#20196F"/>
<stop offset="0.5126" stop-color="#302B8D"/>
<stop offset="1" stop-color="#423EAD"/>
</linearGradient>
<linearGradient id="paint4_linear_11190_37816" x1="118.143" y1="483.996" x2="61.96" y2="483.996" gradientUnits="userSpaceOnUse">
<stop offset="0.5618" stop-color="#A3A9CA"/>
<stop offset="0.6124" stop-color="#CCD0F2"/>
</linearGradient>
<linearGradient id="paint5_linear_11190_37816" x1="79.4606" y1="463.942" x2="37.6039" y2="421.548" gradientUnits="userSpaceOnUse">
<stop stop-color="#6B67E9"/>
<stop offset="1" stop-color="#807DFB"/>
</linearGradient>
<linearGradient id="paint6_linear_11190_37816" x1="85.3132" y1="476.283" x2="126.338" y2="476.283" gradientUnits="userSpaceOnUse">
<stop offset="0.1748" stop-color="#423EAD"/>
<stop offset="0.1984" stop-color="#5652C9"/>
<stop offset="0.2267" stop-color="#6B67E7"/>
</linearGradient>
<linearGradient id="paint7_linear_11190_37816" x1="56.5858" y1="392.767" x2="85.5614" y2="392.767" gradientUnits="userSpaceOnUse">
<stop stop-color="#5655C4"/>
<stop offset="0.4281" stop-color="#4645AB"/>
<stop offset="1" stop-color="#34318D"/>
</linearGradient>
<clipPath id="clip0_11190_37816">
<rect width="355" height="557" fill="white" transform="translate(458)"/>
</clipPath>
<clipPath id="clip1_11190_37816">
<rect width="183.435" height="275.817" fill="white" transform="translate(473.106 233.961)"/>
</clipPath>
<clipPath id="clip2_11190_37816">
<rect width="24.1525" height="23.6119" fill="white" transform="matrix(0.866358 0.499423 0 1 624.633 337.093)"/>
</clipPath>
<clipPath id="clip3_11190_37816">
<rect width="133.955" height="13.3839" fill="white" transform="matrix(-0.86719 -0.497978 0 1 626.329 431.736)"/>
</clipPath>
<clipPath id="clip4_11190_37816">
<rect width="138.968" height="13.3839" fill="white" transform="matrix(-0.86719 -0.497978 0 1 626.329 445.12)"/>
</clipPath>
<clipPath id="clip5_11190_37816">
<rect width="137.297" height="13.3839" fill="white" transform="matrix(-0.86719 -0.497978 0 1 626.406 458.975)"/>
</clipPath>
<clipPath id="clip6_11190_37816">
<rect width="138.968" height="13.3839" fill="white" transform="matrix(-0.86719 -0.497978 0 1 626.329 471.888)"/>
</clipPath>
<clipPath id="clip7_11190_37816">
<rect width="142.31" height="13.3839" fill="white" transform="matrix(-0.86719 -0.497978 0 1 626.329 485.271)"/>
</clipPath>
<clipPath id="clip8_11190_37816">
<rect width="31.9693" height="31.9324" fill="white" transform="matrix(0.866358 0.499423 0 1 523.205 274.883)"/>
</clipPath>
<clipPath id="clip9_11190_37816">
<rect width="27.8382" height="28.0398" fill="white" transform="matrix(0.866358 0.499423 0 1 571.021 302.371)"/>
</clipPath>
</defs>
</svg>
